SplineFontDB: 3.2
FontName: Besley-Regular
FullName: Besley Regular
FamilyName: Besley
Weight: Regular
Version: 003.000
ItalicAngle: 0
UnderlinePosition: -200
UnderlineWidth: 100
Ascent: 1600
Descent: 400
InvalidEm: 0
LayerCount: 2
Layer: 0 0 "Back" 1
Layer: 1 0 "Fore" 0
XUID: [1021 31 -699969567 16487490]
FSType: 0
OS2Version: 0
OS2_WeightWidthSlopeOnly: 0
OS2_UseTypoMetrics: 1
CreationTime: 1460762150
ModificationTime: 1668180644
PfmFamily: 17
TTFWeight: 400
TTFWidth: 5
LineGap: 0
VLineGap: 0
OS2TypoAscent: 2500
OS2TypoAOffset: 0
OS2TypoDescent: -850
OS2TypoDOffset: 0
OS2TypoLinegap: 0
OS2WinAscent: 2500
OS2WinAOffset: 0
OS2WinDescent: 850
OS2WinDOffset: 0
HheadAscent: 2500
HheadAOffset: 0
HheadDescent: -850
HheadDOffset: 0
OS2CapHeight: 1500
OS2XHeight: 1040
OS2FamilyClass: 1024
OS2Vendor: 'it* '
OS2UnicodeRanges: 00000001.00000000.00000000.00000000
Lookup: 1 0 0 "'smcp' Lowercase to Small Capitals in Latin lookup 0" { "'smcp' Lowercase to Small Capitals in Latin lookup 0 subtable"  } ['smcp' ('latn' <'dflt' > ) ]
Lookup: 1 0 0 "'c2sc' Capitals to Small Capitals in Latin lookup 1" { "'c2sc' Capitals to Small Capitals in Latin lookup 1 subtable"  } ['c2sc' ('latn' <'dflt' > ) ]
Lookup: 1 0 0 "'ss01' Style Set 1 lookup 2" { "'ss01' Style Set 1 lookup 2 subtable"  } ['ss01' ('DFLT' <'dflt' > 'grek' <'dflt' > 'latn' <'dflt' > ) ]
Lookup: 6 0 0 "'calt' Contextual Alternates lookup 3" { "'calt' Contextual Alternates lookup 3 subtable"  } ['calt' ('DFLT' <'dflt' > 'grek' <'dflt' > 'latn' <'dflt' > ) ]
Lookup: 4 0 1 "'liga' Standard Ligatures lookup 4" { "'liga' Standard Ligatures lookup 4 subtable"  } ['liga' ('DFLT' <'dflt' > 'grek' <'dflt' > 'latn' <'dflt' > ) ]
Lookup: 1 0 0 "'onum' Oldstyle Figures lookup 5" { "'onum' Oldstyle Figures lookup 5 subtable" ("oldstyle") } ['onum' ('DFLT' <'dflt' > 'grek' <'dflt' > 'latn' <'dflt' > ) ]

StartChar: ampersand
Encoding: 38 38 0
Width: 1740
Flags: MW
LayerCount: 2
Fore
SplineSet
1117 920 m 2
 1540 920 l 2
 1561 920 1570 915 1570 892 c 2
 1570 834 l 2
 1570 810 1570 810 1546 810 c 2
 1414 810 l 2
 1389 810 1390 808 1387 787 c 0
 1358 607 1290 434 1176 293 c 0
 1154 266 1139 273 1161 238 c 2
 1228 132 l 2
 1240 113 1243 110 1275 110 c 2
 1510 110 l 2
 1537 110 1540 103 1540 75 c 2
 1540 35 l 2
 1540 8 1538 0 1512 0 c 2
 1120 0 l 2
 1074 0 1069 4 1052 31 c 2
 1010 97 l 2
 989 130 988 122 957 102 c 0
 837 25 696 -20 540 -20 c 0
 274 -20 42 114 42 400 c 0
 42 686 261 787 483 873 c 0
 520 887 504 894 486 923 c 2
 450 980 l 2
 400 1058 358 1156 358 1226 c 0
 358 1406 528 1520 760 1520 c 0
 974 1520 1132 1430 1132 1270 c 0
 1132 1064 972 970 789 892 c 0
 754 877 761 870 781 839 c 2
 1053 408 l 2
 1080 365 1080 359 1111 401 c 0
 1195 516 1254 652 1276 781 c 0
 1280 807 1273 810 1242 810 c 2
 1128 810 l 2
 1093 810 1090 817 1090 853 c 2
 1090 888 l 2
 1090 913 1093 920 1117 920 c 2
529 783 m 0
 380 711 262 617 262 440 c 0
 262 216 422 110 610 110 c 0
 716 110 816 144 905 202 c 0
 935 221 930 224 912 253 c 2
 585 769 l 2
 565 800 563 800 529 783 c 0
944 1280 m 0
 944 1374 868 1440 758 1440 c 0
 644 1440 554 1386 554 1280 c 0
 554 1210 608 1110 690 980 c 0
 703 960 706 965 727 976 c 0
 852 1041 944 1127 944 1280 c 0
EndSplineSet
EndChar

StartChar: period
Encoding: 46 46 1
Width: 564
Flags: MW
LayerCount: 2
Fore
SplineSet
150 100 m 4
 150 173 209 232 282 232 c 4
 355 232 414 173 414 100 c 4
 414 27 355 -32 282 -32 c 4
 209 -32 150 27 150 100 c 4
EndSplineSet
EndChar

StartChar: zero
Encoding: 48 48 2
Width: 1180
Flags: MW
LayerCount: 2
Fore
SplineSet
80 750 m 0
 80 1316 344 1520 590 1520 c 0
 856 1520 1100 1316 1100 750 c 0
 1100 184 816 -20 590 -20 c 0
 344 -20 80 184 80 750 c 0
300 750 m 0
 300 266 422 80 590 80 c 0
 778 80 880 266 880 750 c 0
 880 1234 778 1420 590 1420 c 0
 422 1420 300 1234 300 750 c 0
EndSplineSet
Substitution2: "'onum' Oldstyle Figures lookup 5 subtable" zero.oldstyle
Substitution2: "'tnum' Tabular Numbers lookup 6 subtable" uniFF10
EndChar

StartChar: one
Encoding: 49 49 3
Width: 1050
Flags: MW
LayerCount: 2
Fore
SplineSet
100 38 m 2
 100 80 l 2
 100 109 111 110 140 110 c 2
 398 110 l 2
 434 110 440 118 440 152 c 2
 440 1173 l 2
 440 1209 437 1220 402 1220 c 2
 178 1220 l 2
 149 1220 134 1222 134 1254 c 2
 134 1284 l 2
 134 1320 138 1330 176 1330 c 0
 370 1331 435 1345 522 1538 c 0
 532 1559 530 1580 564 1580 c 2
 592 1580 l 2
 617 1580 630 1579 630 1554 c 2
 630 162 l 2
 630 115 636 110 684 110 c 2
 906 110 l 2
 932 110 950 109 950 80 c 2
 950 40 l 2
 950 8 947 0 916 0 c 2
 134 0 l 2
 104 0 100 7 100 38 c 2
EndSplineSet
Substitution2: "'onum' Oldstyle Figures lookup 5 subtable" one.oldstyle
Substitution2: "'tnum' Tabular Numbers lookup 6 subtable" uniFF11
EndChar

StartChar: two
Encoding: 50 50 4
Width: 1140
Flags: MW
LayerCount: 2
Fore
SplineSet
1070 325 m 0
 1085 63 963 -20 790 -20 c 0
 576 -20 446 100 300 100 c 0
 241 100 210 73 190 30 c 0
 183 13 178 0 151 0 c 2
 103 0 l 2
 82 0 80 10 80 29 c 0
 89 307 235 503 514 698 c 0
 662 801 834 942 834 1170 c 0
 834 1348 732 1436 554 1436 c 0
 396 1436 270 1348 270 1294 c 0
 270 1248 364 1238 364 1146 c 0
 364 1072 299 1030 245 1030 c 0
 187 1030 112 1066 112 1162 c 0
 112 1346 290 1520 584 1520 c 0
 866 1520 1056 1400 1056 1140 c 0
 1056 900 847 740 564 580 c 0
 372 472 260 339 207 204 c 0
 192 165 170 134 186 134 c 0
 205 134 203 163 230 191 c 0
 276 238 340 269 420 269 c 0
 570 269 650 181 802 181 c 0
 919 181 968 235 975 327 c 0
 978 350 977 354 1003 354 c 2
 1044 354 l 2
 1067 354 1069 349 1070 325 c 0
EndSplineSet
Substitution2: "'onum' Oldstyle Figures lookup 5 subtable" two.oldstyle
Substitution2: "'tnum' Tabular Numbers lookup 6 subtable" uniFF12
EndChar

StartChar: three
Encoding: 51 51 5
Width: 1060
Flags: MW
LayerCount: 2
Fore
SplineSet
50 298 m 0
 50 394 120 430 178 430 c 0
 232 430 292 388 292 314 c 0
 292 242 228 232 228 186 c 0
 228 132 314 64 482 64 c 0
 700 64 778 232 778 380 c 0
 778 514 732 685 474 717 c 0
 428 723 384 703 384 762 c 2
 384 780 l 2
 384 839 429 819 474 826 c 0
 725 864 738 1066 738 1182 c 0
 738 1330 660 1436 482 1436 c 0
 354 1436 288 1370 288 1316 c 0
 288 1270 352 1260 352 1188 c 0
 352 1114 292 1072 238 1072 c 0
 180 1072 110 1108 110 1204 c 0
 110 1368 238 1520 522 1520 c 0
 724 1520 940 1422 940 1182 c 0
 940 1046 906 896 732 814 c 0
 657 779 646 792 646 770 c 0
 646 754 684 758 726 743 c 0
 924 673 980 534 980 380 c 0
 980 160 804 -20 502 -20 c 0
 198 -20 50 134 50 298 c 0
EndSplineSet
Substitution2: "'onum' Oldstyle Figures lookup 5 subtable" three.oldstyle
Substitution2: "'tnum' Tabular Numbers lookup 6 subtable" uniFF13
EndChar

StartChar: four
Encoding: 52 52 6
Width: 1080
Flags: MW
LayerCount: 2
Fore
SplineSet
1030 84 m 2
 1030 26 l 2
 1030 3 1023 0 999 0 c 2
 532 0 l 2
 507 0 500 5 500 32 c 2
 500 77 l 2
 500 103 505 110 530 110 c 2
 662 110 l 2
 683 110 690 115 690 135 c 2
 690 422 l 2
 690 453 687 460 657 460 c 2
 154 460 l 2
 124 460 117 463 103 477 c 2
 77 503 l 2
 58 522 63 528 74 555 c 0
 214 886 626 1050 728 1447 c 0
 736 1477 728 1500 769 1500 c 2
 878 1500 l 2
 919 1500 927 1496 922 1459 c 0
 867 1047 392 874 234 618 c 0
 215 587 223 570 280 570 c 2
 672 570 l 2
 693 570 690 575 690 595 c 2
 690 720 l 2
 690 753 698 752 715 765 c 0
 762 801 790 848 820 938 c 0
 826 955 823 970 848 970 c 2
 854 970 l 2
 880 970 880 963 880 939 c 2
 880 614 l 2
 880 576 885 570 922 570 c 2
 1029 570 l 2
 1056 570 1060 563 1060 535 c 2
 1060 490 l 2
 1060 463 1052 460 1024 460 c 2
 915 460 l 2
 884 460 880 450 880 421 c 2
 880 146 l 2
 880 115 886 110 918 110 c 2
 995 110 l 2
 1020 110 1030 109 1030 84 c 2
EndSplineSet
Substitution2: "'onum' Oldstyle Figures lookup 5 subtable" four.oldstyle
Substitution2: "'tnum' Tabular Numbers lookup 6 subtable" uniFF14
EndChar

StartChar: five
Encoding: 53 53 7
Width: 1030
Flags: MW
LayerCount: 2
Fore
SplineSet
60 278 m 0
 60 374 130 410 188 410 c 0
 242 410 302 368 302 294 c 0
 302 222 238 212 238 166 c 0
 238 112 324 64 432 64 c 0
 630 64 768 252 768 460 c 0
 768 728 650 902 472 902 c 0
 359 902 296 879 234 803 c 0
 218 784 211 774 173 774 c 2
 131 774 l 2
 93 774 96 788 100 818 c 2
 183 1462 l 2
 187 1493 194 1500 228 1500 c 2
 474 1500 l 2
 696 1500 738 1469 798 1536 c 0
 808 1547 812 1564 837 1564 c 2
 894 1564 l 2
 908 1564 911 1562 908 1550 c 2
 896 1500 l 2
 860 1336 824 1320 350 1320 c 2
 306 1320 l 2
 276 1320 265 1316 261 1288 c 2
 219 966 l 2
 213 918 203 894 211 890 c 0
 224 884 230 906 266 934 c 0
 317 974 388 1000 496 1000 c 0
 818 1000 970 780 970 500 c 0
 970 200 734 -20 452 -20 c 0
 208 -20 60 114 60 278 c 0
EndSplineSet
Substitution2: "'onum' Oldstyle Figures lookup 5 subtable" five.oldstyle
Substitution2: "'tnum' Tabular Numbers lookup 6 subtable" uniFF15
EndChar

StartChar: six
Encoding: 54 54 8
Width: 1100
Flags: MW
LayerCount: 2
Fore
SplineSet
746 1382 m 0
 746 1408 716 1436 638 1436 c 0
 406 1436 319 1203 303 860 c 0
 301 827 297 814 304 810 c 0
 312 806 316 820 333 839 c 0
 400 913 500 960 632 960 c 0
 854 960 1040 800 1040 470 c 0
 1040 150 860 -20 578 -20 c 0
 256 -20 100 170 100 740 c 0
 100 1220 306 1520 628 1520 c 0
 792 1520 940 1446 940 1282 c 0
 940 1186 870 1150 812 1150 c 0
 758 1150 698 1192 698 1266 c 0
 698 1338 746 1356 746 1382 c 0
840 470 m 0
 840 698 746 862 588 862 c 0
 422 862 300 720 300 560 c 0
 300 262 400 70 598 70 c 0
 776 70 840 252 840 470 c 0
EndSplineSet
Substitution2: "'tnum' Tabular Numbers lookup 6 subtable" uniFF16
EndChar

StartChar: seven
Encoding: 55 55 9
Width: 1048
Flags: MW
LayerCount: 2
Fore
SplineSet
80 1162 m 0
 84 1439 185 1520 360 1520 c 0
 554 1520 624 1400 790 1400 c 0
 864 1400 896 1433 916 1483 c 0
 921 1496 922 1500 941 1500 c 2
 1010 1500 l 2
 1033 1500 1029 1494 1026 1473 c 0
 1002 1323 805 997 676 736 c 0
 584 548 568 472 568 384 c 0
 568 238 634 208 634 116 c 0
 634 42 594 -20 506 -20 c 0
 428 -20 374 54 374 192 c 0
 374 370 426 554 558 762 c 0
 649 906 760 1097 833 1254 c 0
 843 1275 855 1291 850 1296 c 0
 845 1301 833 1283 812 1277 c 0
 786 1269 756 1266 720 1266 c 0
 520 1266 500 1334 348 1334 c 0
 227 1334 178 1281 174 1166 c 0
 174 1151 173 1146 158 1146 c 2
 102 1146 l 2
 87 1146 80 1147 80 1162 c 0
EndSplineSet
Substitution2: "'onum' Oldstyle Figures lookup 5 subtable" seven.oldstyle
Substitution2: "'tnum' Tabular Numbers lookup 6 subtable" uniFF17
EndChar

StartChar: eight
Encoding: 56 56 10
Width: 1060
Flags: MW
LayerCount: 2
Fore
SplineSet
270 420 m 0
 270 252 352 70 530 70 c 0
 708 70 790 252 790 420 c 0
 790 588 708 770 530 770 c 0
 352 770 270 588 270 420 c 0
120 1140 m 0
 120 1360 288 1520 530 1520 c 0
 772 1520 940 1360 940 1140 c 0
 940 987 859 880 728 827 c 0
 708 819 695 818 695 811 c 0
 695 805 703 802 726 794 c 0
 889 734 990 598 990 420 c 0
 990 180 812 -20 530 -20 c 0
 248 -20 70 180 70 420 c 0
 70 595 167 722 326 784 c 0
 345 792 372 799 372 808 c 0
 372 817 355 820 324 833 c 0
 198 887 120 990 120 1140 c 0
320 1140 m 0
 320 992 392 850 530 850 c 0
 668 850 740 992 740 1140 c 0
 740 1288 668 1430 530 1430 c 0
 392 1430 320 1288 320 1140 c 0
EndSplineSet
Substitution2: "'tnum' Tabular Numbers lookup 6 subtable" uniFF18
EndChar

StartChar: nine
Encoding: 57 57 11
Width: 1100
Flags: MW
LayerCount: 2
Fore
SplineSet
354 118 m 0
 354 92 384 64 462 64 c 0
 694 64 781 297 797 640 c 0
 799 673 803 686 796 690 c 0
 788 694 784 680 767 661 c 0
 700 587 600 540 468 540 c 0
 246 540 60 700 60 1030 c 0
 60 1350 240 1520 522 1520 c 0
 844 1520 1000 1330 1000 760 c 0
 1000 280 794 -20 472 -20 c 0
 308 -20 160 54 160 218 c 0
 160 314 230 350 288 350 c 0
 342 350 402 308 402 234 c 0
 402 162 354 144 354 118 c 0
260 1030 m 0
 260 802 354 638 512 638 c 0
 678 638 800 780 800 940 c 0
 800 1238 700 1430 502 1430 c 0
 324 1430 260 1248 260 1030 c 0
EndSplineSet
Substitution2: "'onum' Oldstyle Figures lookup 5 subtable" nine.oldstyle
Substitution2: "'tnum' Tabular Numbers lookup 6 subtable" uniFF19
EndChar

StartChar: A
Encoding: 65 65 12
Width: 1720
Flags: MW
AnchorPoint: "Anchor-0" 864 1500 basechar 0
AnchorPoint: "Anchor-1" 796 0 basechar 0
AnchorPoint: "Anchor-2" 796 0 basechar 0
AnchorPoint: "Anchor-3" 1396 0 basechar 0
LayerCount: 2
Fore
SplineSet
816 1252 m 6
 524 578 l 6
 514 554 516 550 552 550 c 6
 1058 550 l 6
 1119 550 1112 553 1096 596 c 6
 848 1246 l 6
 833 1286 831 1286 816 1252 c 6
0 42 m 6
 0 84 l 6
 0 104 6 110 28 110 c 6
 154 110 l 6
 196 110 203 122 215 150 c 6
 808 1500 l 6
 812 1509 816 1510 829 1510 c 6
 909 1510 l 6
 925 1510 931 1509 935 1498 c 6
 1478 154 l 6
 1491 122 1488 110 1534 110 c 6
 1692 110 l 6
 1719 110 1720 106 1720 79 c 6
 1720 35 l 6
 1720 4 1719 0 1688 0 c 6
 1098 0 l 6
 1072 0 1060 3 1060 32 c 6
 1060 78 l 6
 1060 106 1070 110 1096 110 c 6
 1248 110 l 6
 1280 110 1272 127 1265 146 c 6
 1175 386 l 6
 1158 431 1160 440 1096 440 c 6
 516 440 l 6
 470 440 462 431 449 400 c 6
 346 158 l 6
 332 126 333 110 377 110 c 6
 528 110 l 6
 552 110 560 105 560 80 c 6
 560 32 l 6
 560 0 560 0 528 0 c 6
 50 0 l 6
 13 0 0 2 0 42 c 6
EndSplineSet
Substitution2: "'c2sc' Capitals to Small Capitals in Latin lookup 1 subtable" a.sc
EndChar

StartChar: B
Encoding: 66 66 13
Width: 1495
Flags: MW
AnchorPoint: "Anchor-0" 674 1500 basechar 0
AnchorPoint: "Anchor-1" 706 0 basechar 0
AnchorPoint: "Anchor-2" 706 0 basechar 0
LayerCount: 2
Fore
SplineSet
875 110 m 6
 1047 110 1195 222 1195 420 c 4
 1195 618 1047 720 875 720 c 6
 534 720 l 6
 491 720 485 711 485 666 c 6
 485 148 l 6
 485 115 496 110 531 110 c 6
 875 110 l 6
534 830 m 6
 855 830 l 6
 1007 830 1155 912 1155 1110 c 4
 1155 1308 1007 1390 855 1390 c 6
 520 1390 l 6
 488 1390 485 1378 485 1345 c 6
 485 870 l 6
 485 831 494 830 534 830 c 6
895 0 m 6
 116 0 l 6
 85 0 75 1 75 32 c 6
 75 76 l 6
 75 106 84 110 112 110 c 6
 255 110 l 6
 283 110 295 113 295 140 c 6
 295 1352 l 6
 295 1388 287 1390 250 1390 c 6
 116 1390 l 6
 82 1390 75 1393 75 1426 c 6
 75 1468 l 6
 75 1495 83 1500 108 1500 c 6
 855 1500 l 6
 1157 1500 1355 1370 1355 1110 c 4
 1355 937 1277 835 1128 793 c 4
 1099 785 1102 772 1126 766 c 4
 1309 718 1415 610 1415 420 c 4
 1415 120 1217 0 895 0 c 6
EndSplineSet
Substitution2: "'c2sc' Capitals to Small Capitals in Latin lookup 1 subtable" b.sc
EndChar

StartChar: C
Encoding: 67 67 14
Width: 1620
Flags: MW
AnchorPoint: "Anchor-0" 866 1500 basechar 0
AnchorPoint: "Anchor-1" 867 0 basechar 0
AnchorPoint: "Anchor-2" 867 0 basechar 0
LayerCount: 2
Fore
SplineSet
110 750 m 0
 110 1196 464 1520 870 1520 c 0
 1063 1520 1213 1439 1314 1333 c 0
 1334 1312 1342 1312 1353 1349 c 2
 1395 1492 l 2
 1399 1506 1397 1510 1416 1510 c 2
 1470 1510 l 2
 1487 1510 1490 1507 1490 1491 c 2
 1490 1016 l 2
 1490 994 1484 990 1461 990 c 2
 1400 990 l 2
 1374 990 1380 998 1376 1019 c 0
 1342 1213 1154 1404 880 1404 c 0
 532 1404 340 1114 340 750 c 0
 340 386 512 98 860 98 c 0
 1181 98 1371 335 1398 574 c 0
 1399 586 1404 590 1418 590 c 2
 1488 590 l 2
 1502 590 1510 589 1509 576 c 0
 1484 236 1241 -20 840 -20 c 0
 414 -20 110 304 110 750 c 0
EndSplineSet
Substitution2: "'c2sc' Capitals to Small Capitals in Latin lookup 1 subtable" c.sc
EndChar

StartChar: D
Encoding: 68 68 15
Width: 1645
Flags: MW
AnchorPoint: "Anchor-0" 684 1500 basechar 0
AnchorPoint: "Anchor-1" 683 0 basechar 0
AnchorPoint: "Anchor-2" 683 0 basechar 0
LayerCount: 2
Fore
SplineSet
75 34 m 2
 75 72 l 2
 75 104 79 110 110 110 c 2
 264 110 l 2
 294 110 295 119 295 150 c 2
 295 1346 l 2
 295 1380 294 1390 260 1390 c 2
 132 1390 l 2
 90 1390 75 1391 75 1426 c 2
 75 1471 l 2
 75 1496 99 1500 130 1500 c 2
 815 1500 l 2
 1261 1500 1535 1176 1535 750 c 0
 1535 324 1241 0 815 0 c 2
 110 0 l 2
 80 0 75 6 75 34 c 2
526 110 m 2
 815 110 l 2
 1183 110 1305 386 1305 750 c 0
 1305 1114 1163 1390 815 1390 c 2
 528 1390 l 2
 491 1390 485 1385 485 1346 c 2
 485 144 l 2
 485 112 493 110 526 110 c 2
EndSplineSet
Substitution2: "'c2sc' Capitals to Small Capitals in Latin lookup 1 subtable" d.sc
EndChar

StartChar: E
Encoding: 69 69 16
Width: 1515
Flags: MW
AnchorPoint: "Anchor-0" 794 1500 basechar 0
AnchorPoint: "Anchor-1" 766 0 basechar 0
AnchorPoint: "Anchor-2" 766 0 basechar 0
AnchorPoint: "Anchor-3" 1206 0 basechar 0
LayerCount: 2
Fore
SplineSet
246 1390 m 6
 111 1390 l 6
 78 1390 75 1401 75 1432 c 6
 75 1462 l 6
 75 1493 79 1500 109 1500 c 6
 1311 1500 l 6
 1357 1500 1365 1498 1365 1452 c 6
 1365 1070 l 6
 1365 1038 1371 1030 1337 1030 c 6
 1297 1030 l 6
 1268 1030 1266 1042 1265 1068 c 4
 1259 1312 1188 1390 965 1390 c 6
 529 1390 l 6
 493 1390 485 1384 485 1346 c 6
 485 860 l 6
 485 831 487 816 519 816 c 6
 655 816 l 6
 815 816 884 897 894 1014 c 4
 896 1041 901 1046 921 1046 c 6
 954 1046 l 6
 976 1046 985 1039 985 1016 c 6
 985 536 l 6
 985 504 982 496 953 496 c 6
 920 496 l 6
 908 496 896 499 893 530 c 4
 882 647 814 736 655 736 c 6
 523 736 l 6
 488 736 485 728 485 692 c 6
 485 154 l 6
 485 117 490 110 529 110 c 6
 945 110 l 6
 1209 110 1280 190 1285 478 c 4
 1285 504 1291 510 1309 510 c 6
 1347 510 l 6
 1372 510 1385 507 1385 480 c 6
 1385 34 l 6
 1385 6 1380 0 1353 0 c 6
 115 0 l 6
 85 0 75 4 75 36 c 6
 75 82 l 6
 75 109 84 110 111 110 c 6
 241 110 l 6
 290 110 295 116 295 166 c 6
 295 1348 l 6
 295 1389 287 1390 246 1390 c 6
EndSplineSet
Substitution2: "'c2sc' Capitals to Small Capitals in Latin lookup 1 subtable" e.sc
EndChar

StartChar: F
Encoding: 70 70 17
Width: 1445
Flags: MW
AnchorPoint: "Anchor-0" 764 1500 basechar 0
AnchorPoint: "Anchor-1" 396 0 basechar 0
AnchorPoint: "Anchor-2" 396 0 basechar 0
LayerCount: 2
Fore
SplineSet
266 1390 m 2
 99 1390 l 2
 80 1390 75 1392 75 1412 c 2
 75 1481 l 2
 75 1495 76 1500 90 1500 c 2
 1321 1500 l 2
 1342 1500 1345 1493 1345 1471 c 2
 1345 1050 l 2
 1345 1031 1336 1030 1317 1030 c 2
 1265 1030 l 2
 1245 1030 1245 1035 1245 1054 c 0
 1242 1313 1174 1390 945 1390 c 2
 519 1390 l 2
 494 1390 485 1376 485 1353 c 2
 485 836 l 2
 485 802 491 796 524 796 c 2
 675 796 l 2
 830 796 900 856 913 964 c 0
 916 992 906 1006 940 1006 c 2
 974 1006 l 2
 997 1006 1005 1004 1005 982 c 2
 1005 503 l 2
 1005 485 1004 476 986 476 c 2
 934 476 l 2
 915 476 916 481 915 499 c 0
 909 623 841 696 675 696 c 2
 515 696 l 2
 487 696 485 688 485 659 c 2
 485 150 l 2
 485 118 489 110 523 110 c 2
 697 110 l 2
 716 110 725 109 725 90 c 2
 725 30 l 2
 725 4 716 0 692 0 c 2
 100 0 l 2
 80 0 75 0 75 20 c 2
 75 92 l 2
 75 109 84 110 102 110 c 2
 268 110 l 2
 290 110 295 117 295 140 c 2
 295 1360 l 2
 295 1387 292 1390 266 1390 c 2
EndSplineSet
Substitution2: "'c2sc' Capitals to Small Capitals in Latin lookup 1 subtable" f.sc
EndChar

StartChar: G
Encoding: 71 71 18
Width: 1740
Flags: MW
AnchorPoint: "Anchor-0" 866 1500 basechar 0
AnchorPoint: "Anchor-1" 837 0 basechar 0
AnchorPoint: "Anchor-2" 837 0 basechar 0
LayerCount: 2
Fore
SplineSet
1087 740 m 2
 1661 740 l 2
 1701 740 1710 737 1710 694 c 2
 1710 644 l 2
 1710 615 1704 610 1673 610 c 2
 1543 610 l 2
 1513 610 1510 603 1510 572 c 2
 1510 482 l 2
 1510 448 1510 419 1504 392 c 0
 1462 210 1256 -20 840 -20 c 0
 424 -20 110 304 110 750 c 0
 110 1196 464 1520 870 1520 c 0
 1071 1520 1216 1455 1318 1349 c 0
 1340 1326 1347 1332 1357 1364 c 2
 1389 1464 l 2
 1395 1483 1402 1500 1419 1500 c 2
 1463 1500 l 2
 1479 1500 1490 1491 1490 1474 c 2
 1490 1034 l 2
 1490 1013 1488 990 1465 990 c 2
 1417 990 l 2
 1382 990 1380 997 1376 1026 c 0
 1347 1218 1230 1408 884 1408 c 0
 556 1408 340 1114 340 750 c 0
 340 386 512 90 850 90 c 0
 1100 90 1240 225 1290 344 c 0
 1297 361 1300 374 1300 400 c 2
 1300 578 l 2
 1300 608 1286 610 1259 610 c 2
 1091 610 l 2
 1057 610 1050 613 1050 646 c 2
 1050 702 l 2
 1050 734 1056 740 1087 740 c 2
EndSplineSet
Substitution2: "'c2sc' Capitals to Small Capitals in Latin lookup 1 subtable" g.sc
EndChar

StartChar: H
Encoding: 72 72 19
Width: 1770
Flags: MW
AnchorPoint: "Anchor-0" 876 1500 basechar 0
AnchorPoint: "Anchor-1" 876 0 basechar 0
AnchorPoint: "Anchor-2" 876 0 basechar 0
LayerCount: 2
Fore
SplineSet
485 1347 m 2
 485 888 l 2
 485 837 489 830 542 830 c 2
 1232 830 l 2
 1284 830 1285 841 1285 894 c 2
 1285 1338 l 2
 1285 1380 1284 1390 1242 1390 c 2
 1079 1390 l 2
 1051 1390 1045 1403 1045 1429 c 2
 1045 1458 l 2
 1045 1494 1050 1500 1085 1500 c 2
 1655 1500 l 2
 1687 1500 1695 1496 1695 1462 c 2
 1695 1424 l 2
 1695 1396 1686 1390 1656 1390 c 2
 1530 1390 l 2
 1486 1390 1475 1388 1475 1344 c 2
 1475 144 l 2
 1475 116 1482 110 1512 110 c 2
 1656 110 l 2
 1683 110 1695 107 1695 78 c 2
 1695 44 l 2
 1695 2 1684 0 1645 0 c 2
 1085 0 l 2
 1049 0 1045 7 1045 44 c 2
 1045 74 l 2
 1045 102 1047 110 1074 110 c 2
 1243 110 l 2
 1282 110 1285 123 1285 160 c 2
 1285 672 l 2
 1285 715 1276 720 1236 720 c 2
 532 720 l 2
 492 720 485 717 485 678 c 2
 485 150 l 2
 485 119 490 110 523 110 c 2
 692 110 l 2
 719 110 725 105 725 76 c 2
 725 50 l 2
 725 5 719 0 675 0 c 2
 115 0 l 2
 82 0 75 5 75 40 c 2
 75 68 l 2
 75 104 81 110 116 110 c 2
 254 110 l 2
 286 110 295 112 295 144 c 2
 295 1351 l 2
 295 1383 286 1390 256 1390 c 2
 110 1390 l 2
 76 1390 75 1401 75 1436 c 2
 75 1462 l 2
 75 1494 85 1500 115 1500 c 2
 685 1500 l 2
 712 1500 725 1497 725 1468 c 2
 725 1428 l 2
 725 1396 719 1390 688 1390 c 2
 524 1390 l 2
 490 1390 485 1383 485 1347 c 2
EndSplineSet
Substitution2: "'c2sc' Capitals to Small Capitals in Latin lookup 1 subtable" h.sc
EndChar

StartChar: I
Encoding: 73 73 20
Width: 830
Flags: MW
AnchorPoint: "Anchor-0" 406 1500 basechar 0
AnchorPoint: "Anchor-1" 402 0 basechar 0
AnchorPoint: "Anchor-2" 402 0 basechar 0
AnchorPoint: "Anchor-3" 402 0 basechar 0
LayerCount: 2
Fore
SplineSet
500 1354 m 6
 500 154 l 6
 500 121 509 110 538 110 c 6
 718 110 l 6
 737 110 740 97 740 78 c 6
 740 32 l 6
 740 8 728 0 700 0 c 6
 130 0 l 6
 102 0 90 7 90 32 c 6
 90 82 l 6
 90 103 98 110 136 110 c 6
 242 110 l 6
 277 110 310 114 310 160 c 6
 310 1356 l 6
 310 1382 310 1390 280 1390 c 6
 124 1390 l 6
 98 1390 90 1399 90 1420 c 6
 90 1474 l 6
 90 1500 97 1500 120 1500 c 6
 704 1500 l 6
 734 1500 740 1497 740 1466 c 6
 740 1432 l 6
 740 1397 723 1390 698 1390 c 6
 538 1390 l 6
 506 1390 500 1387 500 1354 c 6
EndSplineSet
Substitution2: "'c2sc' Capitals to Small Capitals in Latin lookup 1 subtable" i.sc
EndChar

StartChar: J
Encoding: 74 74 21
Width: 1177
Flags: MW
AnchorPoint: "Anchor-0" 736 1500 basechar 0
AnchorPoint: "Anchor-1" 448 0 basechar 0
AnchorPoint: "Anchor-2" 448 0 basechar 0
LayerCount: 2
Fore
SplineSet
20 290 m 0
 20 414 98 480 178 480 c 0
 248 480 306 434 306 362 c 0
 306 232 218 264 218 180 c 0
 218 146 248 90 412 90 c 0
 594 90 702 200 702 480 c 2
 702 1331 l 2
 702 1376 700 1390 655 1390 c 2
 467 1390 l 2
 425 1390 422 1397 422 1440 c 2
 422 1460 l 2
 422 1499 436 1500 472 1500 c 2
 1092 1500 l 2
 1115 1500 1132 1498 1132 1472 c 2
 1132 1424 l 2
 1132 1397 1129 1390 1103 1390 c 2
 937 1390 l 2
 894 1390 892 1382 892 1338 c 2
 892 540 l 2
 892 220 734 -20 412 -20 c 0
 138 -20 20 150 20 290 c 0
EndSplineSet
Substitution2: "'c2sc' Capitals to Small Capitals in Latin lookup 1 subtable" j.sc
EndChar

StartChar: K
Encoding: 75 75 22
Width: 1745
Flags: MW
AnchorPoint: "Anchor-0" 866 1500 basechar 0
AnchorPoint: "Anchor-1" 890 0 basechar 0
AnchorPoint: "Anchor-2" 890 0 basechar 0
LayerCount: 2
Fore
SplineSet
75 38 m 2
 75 78 l 2
 75 105 82 110 107 110 c 2
 253 110 l 2
 292 110 295 120 295 156 c 2
 295 1358 l 2
 295 1390 295 1390 263 1390 c 2
 107 1390 l 2
 78 1390 75 1388 75 1418 c 2
 75 1470 l 2
 75 1494 80 1500 103 1500 c 2
 695 1500 l 2
 718 1500 725 1495 725 1470 c 2
 725 1432 l 2
 725 1393 715 1390 679 1390 c 2
 533 1390 l 2
 487 1390 485 1380 485 1334 c 2
 485 682 l 2
 485 625 489 619 524 655 c 2
 1201 1356 l 2
 1224 1379 1218 1390 1173 1390 c 2
 1055 1390 l 2
 1019 1390 1015 1398 1015 1432 c 2
 1015 1464 l 2
 1015 1497 1026 1500 1057 1500 c 2
 1579 1500 l 2
 1611 1500 1615 1493 1615 1460 c 2
 1615 1434 l 2
 1615 1397 1611 1390 1575 1390 c 2
 1437 1390 l 2
 1388 1390 1374 1379 1351 1356 c 2
 933 926 l 2
 913 905 912 893 930 870 c 2
 1495 146 l 2
 1514 122 1525 110 1571 110 c 2
 1705 110 l 2
 1738 110 1745 105 1745 70 c 2
 1745 34 l 2
 1745 0 1745 0 1711 0 c 2
 1119 0 l 2
 1090 0 1085 7 1085 34 c 2
 1085 66 l 2
 1085 102 1088 110 1123 110 c 2
 1226 110 l 2
 1273 110 1274 126 1256 150 c 2
 815 732 l 2
 790 765 777 766 750 738 c 2
 509 490 l 2
 488 469 485 459 485 414 c 2
 485 150 l 2
 485 115 491 110 527 110 c 2
 689 110 l 2
 721 110 725 102 725 72 c 2
 725 40 l 2
 725 6 720 0 687 0 c 2
 109 0 l 2
 79 0 75 7 75 38 c 2
EndSplineSet
Substitution2: "'c2sc' Capitals to Small Capitals in Latin lookup 1 subtable" k.sc
EndChar

StartChar: L
Encoding: 76 76 23
Width: 1455
Flags: MW
AnchorPoint: "Anchor-0" 384 1500 basechar 0
AnchorPoint: "Anchor-1" 849 943 basechar 0
AnchorPoint: "Anchor-2" 686 0 basechar 0
AnchorPoint: "Anchor-3" 849 943 basechar 0
LayerCount: 2
Fore
SplineSet
253 1390 m 2
 106 1390 l 2
 80 1390 75 1396 75 1424 c 2
 75 1471 l 2
 75 1496 82 1500 108 1500 c 2
 664 1500 l 2
 696 1500 705 1498 705 1466 c 2
 705 1424 l 2
 705 1395 697 1390 670 1390 c 2
 526 1390 l 2
 496 1390 485 1384 485 1351 c 2
 485 142 l 2
 485 113 497 110 527 110 c 2
 935 110 l 2
 1203 110 1272 230 1275 482 c 0
 1275 501 1277 510 1296 510 c 2
 1338 510 l 2
 1365 510 1375 509 1375 482 c 2
 1375 46 l 2
 1375 9 1373 0 1336 0 c 2
 118 0 l 2
 87 0 75 3 75 36 c 2
 75 78 l 2
 75 102 77 110 100 110 c 2
 248 110 l 2
 286 110 295 112 295 150 c 2
 295 1352 l 2
 295 1385 288 1390 253 1390 c 2
EndSplineSet
Substitution2: "'c2sc' Capitals to Small Capitals in Latin lookup 1 subtable" l.sc
EndChar

StartChar: M
Encoding: 77 77 24
Width: 2070
Flags: MW
AnchorPoint: "Anchor-0" 1046 1500 basechar 0
AnchorPoint: "Anchor-1" 1026 0 basechar 0
AnchorPoint: "Anchor-2" 1026 0 basechar 0
LayerCount: 2
Fore
SplineSet
318 1390 m 2
 164 1390 l 2
 137 1390 130 1394 130 1420 c 2
 130 1466 l 2
 130 1498 143 1500 172 1500 c 2
 584 1500 l 2
 628 1500 623 1485 633 1454 c 2
 1009 318 l 2
 1022 279 1023 251 1034 251 c 0
 1043 251 1045 265 1056 298 c 2
 1441 1466 l 2
 1450 1493 1447 1500 1484 1500 c 2
 1904 1500 l 2
 1933 1500 1940 1495 1940 1464 c 2
 1940 1440 l 2
 1940 1397 1936 1390 1894 1390 c 2
 1767 1390 l 2
 1730 1390 1725 1370 1726 1336 c 2
 1774 152 l 2
 1775 119 1780 110 1816 110 c 2
 1962 110 l 2
 2000 110 2000 110 2000 72 c 2
 2000 42 l 2
 2000 8 1997 0 1964 0 c 2
 1398 0 l 2
 1367 0 1350 5 1350 38 c 2
 1350 62 l 2
 1350 101 1351 110 1390 110 c 2
 1546 110 l 2
 1581 110 1586 120 1585 152 c 2
 1550 1169 l 2
 1548 1221 1553 1336 1544 1336 c 0
 1522 1336 1499 1230 1480 1172 c 2
 1092 16 l 2
 1084 -8 1078 -20 1044 -20 c 2
 998 -20 l 2
 950 -20 945 0 934 34 c 2
 528 1228 l 2
 514 1269 509 1360 484 1360 c 0
 477 1360 474 1340 471 1278 c 2
 426 175 l 2
 424 120 435 110 492 110 c 2
 614 110 l 2
 652 110 660 106 660 66 c 2
 660 40 l 2
 660 5 644 0 608 0 c 2
 114 0 l 2
 77 0 70 4 70 40 c 2
 70 68 l 2
 70 105 76 110 112 110 c 2
 250 110 l 2
 283 110 296 125 297 154 c 2
 354 1350 l 2
 355 1377 348 1390 318 1390 c 2
EndSplineSet
Substitution2: "'c2sc' Capitals to Small Capitals in Latin lookup 1 subtable" m.sc
EndChar

StartChar: N
Encoding: 78 78 25
Width: 1750
Flags: MW
AnchorPoint: "Anchor-0" 896 1500 basechar 0
AnchorPoint: "Anchor-1" 826 0 basechar 0
AnchorPoint: "Anchor-2" 826 0 basechar 0
LayerCount: 2
Fore
SplineSet
234 1390 m 2
 114 1390 l 2
 85 1390 80 1398 80 1425 c 2
 80 1455 l 2
 80 1490 81 1500 116 1500 c 2
 420 1500 l 2
 497 1500 501 1486 532 1445 c 2
 1322 408 l 2
 1349 373 1370 377 1370 457 c 2
 1370 1343 l 2
 1370 1387 1360 1390 1318 1390 c 2
 1220 1390 l 2
 1190 1390 1150 1387 1150 1421 c 2
 1150 1443 l 2
 1150 1483 1157 1500 1198 1500 c 2
 1660 1500 l 2
 1685 1500 1710 1500 1710 1471 c 2
 1710 1434 l 2
 1710 1400 1708 1390 1674 1390 c 2
 1548 1390 l 2
 1506 1390 1500 1383 1500 1339 c 2
 1500 25 l 2
 1500 1 1499 -20 1472 -20 c 2
 1466 -20 l 2
 1435 -20 1424 -12 1411 5 c 2
 472 1225 l 2
 443 1263 420 1266 420 1167 c 2
 420 153 l 2
 420 116 425 110 464 110 c 2
 616 110 l 2
 647 110 650 98 650 69 c 2
 650 39 l 2
 650 4 641 0 608 0 c 2
 122 0 l 2
 87 0 80 3 80 37 c 2
 80 73 l 2
 80 107 95 110 126 110 c 2
 235 110 l 2
 282 110 290 116 290 161 c 2
 290 1341 l 2
 290 1387 281 1390 234 1390 c 2
EndSplineSet
Substitution2: "'c2sc' Capitals to Small Capitals in Latin lookup 1 subtable" n.sc
EndChar

StartChar: O
Encoding: 79 79 26
Width: 1660
Flags: MW
AnchorPoint: "Anchor-0" 826 1500 basechar 0
AnchorPoint: "Anchor-1" 826 0 basechar 0
AnchorPoint: "Anchor-2" 826 0 basechar 0
LayerCount: 2
Fore
SplineSet
110 750 m 0
 110 1176 384 1520 830 1520 c 0
 1276 1520 1550 1176 1550 750 c 0
 1550 324 1256 -20 830 -20 c 0
 384 -20 110 324 110 750 c 0
340 750 m 0
 340 386 482 80 830 80 c 0
 1198 80 1320 386 1320 750 c 0
 1320 1114 1178 1420 830 1420 c 0
 482 1420 340 1114 340 750 c 0
EndSplineSet
Substitution2: "'c2sc' Capitals to Small Capitals in Latin lookup 1 subtable" o.sc
EndChar

StartChar: P
Encoding: 80 80 27
Width: 1380
Flags: MW
AnchorPoint: "Anchor-0" 676 1500 basechar 0
AnchorPoint: "Anchor-1" 392 0 basechar 0
AnchorPoint: "Anchor-2" 392 0 basechar 0
LayerCount: 2
Fore
SplineSet
263 1390 m 2
 100 1390 l 2
 76 1390 75 1399 75 1423 c 2
 75 1464 l 2
 75 1495 83 1500 112 1500 c 2
 785 1500 l 2
 1147 1500 1305 1340 1305 1080 c 0
 1305 820 1147 660 785 660 c 2
 549 660 l 2
 494 660 485 659 485 604 c 2
 485 173 l 2
 485 118 489 110 543 110 c 2
 673 110 l 2
 704 110 705 101 705 70 c 2
 705 48 l 2
 705 8 703 0 663 0 c 2
 129 0 l 2
 88 0 75 2 75 46 c 2
 75 82 l 2
 75 106 82 110 107 110 c 2
 249 110 l 2
 290 110 295 120 295 158 c 2
 295 1364 l 2
 295 1387 287 1390 263 1390 c 2
535 770 m 2
 785 770 l 2
 977 770 1085 902 1085 1080 c 0
 1085 1258 977 1390 785 1390 c 2
 514 1390 l 2
 488 1390 485 1378 485 1351 c 2
 485 814 l 2
 485 772 493 770 535 770 c 2
EndSplineSet
Substitution2: "'c2sc' Capitals to Small Capitals in Latin lookup 1 subtable" p.sc
EndChar

StartChar: Q
Encoding: 81 81 28
Width: 1660
Flags: MW
AnchorPoint: "Anchor-0" 826 1500 basechar 0
LayerCount: 2
Fore
SplineSet
110 750 m 0
 110 1176 384 1520 830 1520 c 0
 1276 1520 1550 1176 1550 750 c 0
 1550 477 1429 236 1229 100 c 0
 1195 77 1189 77 1211 40 c 0
 1251 -28 1291 -74 1336 -74 c 0
 1451 -74 1502 34 1509 139 c 0
 1510 157 1515 164 1536 164 c 2
 1572 164 l 2
 1603 164 1609 160 1609 131 c 0
 1609 -82 1499 -250 1320 -250 c 0
 1187 -250 1125 -144 1067 -20 c 0
 1053 11 1043 9 1000 -1 c 0
 946 -14 889 -20 830 -20 c 0
 384 -20 110 324 110 750 c 0
630 121 m 0
 687 94 754 80 830 80 c 0
 879 80 924 86 965 96 c 0
 1011 108 1016 117 1001 151 c 0
 939 291 878 420 728 420 c 0
 582 420 520 259 585 158 c 0
 597 140 610 131 630 121 c 0
1180 232 m 0
 1281 356 1320 544 1320 750 c 0
 1320 1114 1178 1420 830 1420 c 0
 482 1420 340 1114 340 750 c 0
 340 589 368 441 429 324 c 0
 452 281 457 281 460 322 c 0
 468 442 538 606 724 606 c 0
 911 606 1022 413 1113 233 c 0
 1140 180 1144 189 1180 232 c 0
EndSplineSet
Substitution2: "'c2sc' Capitals to Small Capitals in Latin lookup 1 subtable" q.sc
EndChar

StartChar: R
Encoding: 82 82 29
Width: 1545
Flags: MW
AnchorPoint: "Anchor-0" 786 1500 basechar 0
AnchorPoint: "Anchor-1" 816 0 basechar 0
AnchorPoint: "Anchor-2" 816 0 basechar 0
LayerCount: 2
Fore
SplineSet
1590 190 m 0
 1554 69 1469 -20 1305 -20 c 0
 839 -20 1298 690 785 690 c 2
 531 690 l 2
 487 690 485 682 485 638 c 2
 485 144 l 2
 485 113 493 110 525 110 c 2
 674 110 l 2
 702 110 705 103 705 74 c 2
 705 29 l 2
 705 4 698 0 672 0 c 2
 106 0 l 2
 81 0 75 6 75 32 c 2
 75 75 l 2
 75 105 83 110 111 110 c 2
 247 110 l 2
 288 110 295 113 295 153 c 2
 295 1342 l 2
 295 1385 288 1390 246 1390 c 2
 111 1390 l 2
 76 1390 75 1399 75 1435 c 2
 75 1466 l 2
 75 1492 78 1500 103 1500 c 2
 865 1500 l 2
 1227 1500 1365 1320 1365 1100 c 0
 1365 936 1298 814 1108 756 c 0
 1070 744 1068 733 1112 710 c 0
 1406 553 1157 110 1377 110 c 0
 1414 110 1454 143 1484 212 c 0
 1491 228 1495 241 1515 234 c 2
 1565 218 l 2
 1585 211 1595 207 1590 190 c 0
532 810 m 2
 865 810 l 2
 1017 810 1165 902 1165 1100 c 0
 1165 1298 1017 1390 865 1390 c 2
 532 1390 l 2
 485 1390 485 1390 485 1343 c 2
 485 858 l 2
 485 817 489 810 532 810 c 2
EndSplineSet
Substitution2: "'c2sc' Capitals to Small Capitals in Latin lookup 1 subtable" r.sc
Substitution2: "'ss01' Style Set 1 lookup 2 subtable" R.alt
EndChar

StartChar: S
Encoding: 83 83 30
Width: 1345
Flags: MW
AnchorPoint: "Anchor-0" 676 1500 basechar 0
AnchorPoint: "Anchor-1" 705 0 basechar 0
AnchorPoint: "Anchor-2" 705 0 basechar 0
LayerCount: 2
Fore
SplineSet
1079 1047 m 0
 1063 1265 906 1418 690 1418 c 0
 458 1418 370 1308 370 1170 c 0
 370 750 1250 1020 1250 420 c 0
 1250 140 1052 -30 710 -30 c 0
 559 -30 424 29 334 109 c 0
 304 136 298 135 282 95 c 2
 251 18 l 2
 240 -9 238 -10 199 -10 c 2
 168 -10 l 2
 137 -10 130 -6 130 24 c 2
 130 482 l 2
 130 510 140 510 168 510 c 2
 210 510 l 2
 237 510 240 499 242 476 c 0
 259 286 418 72 690 72 c 0
 962 72 1070 232 1070 370 c 0
 1070 830 190 550 190 1110 c 0
 190 1390 408 1520 670 1520 c 0
 796 1520 912 1476 992 1407 c 0
 1015 1387 1029 1381 1044 1417 c 2
 1075 1488 l 2
 1080 1499 1082 1500 1098 1500 c 2
 1162 1500 l 2
 1187 1500 1190 1493 1190 1467 c 2
 1190 1036 l 2
 1190 1011 1181 1010 1156 1010 c 2
 1112 1010 l 2
 1076 1010 1081 1014 1079 1047 c 0
EndSplineSet
Substitution2: "'c2sc' Capitals to Small Capitals in Latin lookup 1 subtable" s.sc
EndChar

StartChar: T
Encoding: 84 84 31
Width: 1550
Flags: MW
AnchorPoint: "Anchor-0" 765 1500 basechar 0
AnchorPoint: "Anchor-1" 766 0 basechar 0
AnchorPoint: "Anchor-2" 766 0 basechar 0
LayerCount: 2
Fore
SplineSet
420 41 m 2
 420 75 l 2
 420 107 432 110 462 110 c 2
 626 110 l 2
 674 110 680 115 680 165 c 2
 680 1355 l 2
 680 1393 673 1400 636 1400 c 2
 540 1400 l 2
 278 1400 206 1312 200 1031 c 0
 199 1000 196 990 162 990 c 2
 134 990 l 2
 100 990 100 1011 100 1041 c 2
 100 1447 l 2
 100 1493 103 1500 148 1500 c 2
 1408 1500 l 2
 1447 1500 1450 1493 1450 1453 c 2
 1450 1021 l 2
 1450 992 1442 990 1412 990 c 2
 1388 990 l 2
 1351 990 1350 1005 1349 1037 c 0
 1342 1314 1270 1400 1010 1400 c 2
 908 1400 l 2
 873 1400 870 1393 870 1357 c 2
 870 167 l 2
 870 116 875 110 924 110 c 2
 1088 110 l 2
 1128 110 1130 102 1130 61 c 2
 1130 42 l 2
 1130 2 1108 0 1072 0 c 2
 466 0 l 2
 427 0 420 3 420 41 c 2
EndSplineSet
Substitution2: "'c2sc' Capitals to Small Capitals in Latin lookup 1 subtable" t.sc
EndChar

StartChar: U
Encoding: 85 85 32
Width: 1680
Flags: MW
AnchorPoint: "Anchor-0" 876 1500 basechar 0
AnchorPoint: "Anchor-1" 856 0 basechar 0
AnchorPoint: "Anchor-2" 856 0 basechar 0
AnchorPoint: "Anchor-3" 981 0 basechar 0
LayerCount: 2
Fore
SplineSet
1248 1390 m 6
 1070 1390 l 6
 1045 1390 1040 1396 1040 1423 c 6
 1040 1461 l 6
 1040 1495 1048 1500 1080 1500 c 6
 1586 1500 l 6
 1620 1500 1630 1497 1630 1461 c 6
 1630 1427 l 6
 1630 1393 1620 1390 1588 1390 c 6
 1454 1390 l 6
 1417 1390 1410 1387 1410 1351 c 6
 1410 600 l 6
 1410 170 1246 -30 850 -30 c 4
 424 -30 270 234 270 600 c 6
 270 1349 l 6
 270 1387 255 1390 220 1390 c 6
 84 1390 l 6
 51 1390 50 1399 50 1433 c 6
 50 1465 l 6
 50 1497 62 1500 92 1500 c 6
 654 1500 l 6
 686 1500 700 1498 700 1463 c 6
 700 1435 l 6
 700 1394 691 1390 652 1390 c 6
 510 1390 l 6
 467 1390 460 1387 460 1345 c 6
 460 620 l 6
 460 316 552 90 880 90 c 4
 1188 90 1290 236 1290 600 c 6
 1290 1345 l 6
 1290 1384 1286 1390 1248 1390 c 6
EndSplineSet
Substitution2: "'c2sc' Capitals to Small Capitals in Latin lookup 1 subtable" u.sc
EndChar

StartChar: V
Encoding: 86 86 33
Width: 1720
Flags: MW
AnchorPoint: "Anchor-0" 906 1500 basechar 0
AnchorPoint: "Anchor-1" 882 0 basechar 0
AnchorPoint: "Anchor-2" 882 0 basechar 0
LayerCount: 2
Fore
SplineSet
971 336 m 6
 1387 1347 l 6
 1402 1384 1393 1390 1337 1390 c 6
 1195 1390 l 6
 1167 1390 1160 1393 1160 1420 c 6
 1160 1469 l 6
 1160 1494 1165 1500 1189 1500 c 6
 1691 1500 l 6
 1719 1500 1720 1491 1720 1463 c 6
 1720 1426 l 6
 1720 1400 1719 1390 1693 1390 c 6
 1560 1390 l 6
 1516 1390 1509 1376 1497 1347 c 6
 946 10 l 6
 937 -13 930 -30 895 -30 c 6
 865 -30 l 6
 825 -30 815 -19 804 8 c 6
 239 1359 l 6
 228 1386 228 1390 188 1390 c 6
 32 1390 l 6
 2 1390 0 1398 0 1429 c 6
 0 1461 l 6
 0 1494 6 1500 38 1500 c 6
 622 1500 l 6
 659 1500 660 1491 660 1453 c 6
 660 1439 l 6
 660 1396 655 1390 614 1390 c 6
 508 1390 l 6
 450 1390 450 1376 465 1339 c 6
 863 351 l 6
 916 220 928 233 971 336 c 6
EndSplineSet
Substitution2: "'c2sc' Capitals to Small Capitals in Latin lookup 1 subtable" v.sc
EndChar

StartChar: W
Encoding: 87 87 34
Width: 2360
Flags: MW
AnchorPoint: "Anchor-0" 1226 1500 basechar 0
AnchorPoint: "Anchor-1" 1186 0 basechar 0
AnchorPoint: "Anchor-2" 1186 0 basechar 0
LayerCount: 2
Fore
SplineSet
836 322 m 2
 1141 1156 l 2
 1156 1198 1167 1219 1153 1264 c 2
 1124 1352 l 2
 1114 1383 1105 1390 1065 1390 c 2
 977 1390 l 2
 942 1390 940 1398 940 1434 c 2
 940 1452 l 2
 940 1495 946 1500 987 1500 c 2
 1463 1500 l 2
 1494 1500 1500 1494 1500 1462 c 2
 1500 1436 l 2
 1500 1391 1480 1390 1439 1390 c 2
 1381 1390 l 2
 1328 1390 1312 1384 1325 1341 c 2
 1605 406 l 2
 1619 357 1626 284 1639 284 c 0
 1648 284 1657 291 1671 334 c 2
 2012 1358 l 2
 2022 1388 2027 1390 1985 1390 c 2
 1837 1390 l 2
 1802 1390 1800 1398 1800 1434 c 2
 1800 1450 l 2
 1800 1491 1802 1500 1843 1500 c 2
 2311 1500 l 2
 2351 1500 2360 1498 2360 1458 c 2
 2360 1434 l 2
 2360 1395 2353 1390 2315 1390 c 2
 2177 1390 l 2
 2134 1390 2136 1383 2126 1352 c 2
 1679 8 l 2
 1670 -18 1670 -20 1635 -20 c 2
 1593 -20 l 2
 1557 -20 1552 -12 1543 16 c 2
 1277 866 l 2
 1257 930 1248 1024 1226 1025 c 0
 1217 1025 1205 1009 1189 966 c 2
 845 20 l 2
 834 -11 836 -20 791 -20 c 2
 749 -20 l 2
 711 -20 705 -6 696 20 c 2
 229 1350 l 2
 217 1383 207 1390 163 1390 c 2
 41 1390 l 2
 6 1390 0 1394 0 1428 c 2
 0 1454 l 2
 0 1494 4 1500 43 1500 c 2
 605 1500 l 2
 642 1500 660 1490 660 1450 c 2
 660 1425 l 2
 660 1393 645 1390 615 1390 c 2
 481 1390 l 2
 424 1390 422 1376 435 1338 c 2
 743 428 l 2
 764 365 776 266 800 266 c 0
 810 266 821 282 836 322 c 2
EndSplineSet
Substitution2: "'c2sc' Capitals to Small Capitals in Latin lookup 1 subtable" w.sc
EndChar

StartChar: X
Encoding: 88 88 35
Width: 1740
Flags: MW
AnchorPoint: "Anchor-0" 896 1500 basechar 0
AnchorPoint: "Anchor-1" 846 0 basechar 0
AnchorPoint: "Anchor-2" 846 0 basechar 0
LayerCount: 2
Fore
SplineSet
20 34 m 2
 20 87 l 2
 20 105 29 110 45 110 c 2
 213 110 l 2
 260 110 264 116 284 141 c 2
 733 707 l 2
 779 764 766 770 722 827 c 2
 317 1360 l 2
 300 1382 298 1390 256 1390 c 2
 136 1390 l 2
 105 1390 90 1392 90 1426 c 2
 90 1468 l 2
 90 1494 95 1500 120 1500 c 2
 717 1500 l 2
 740 1500 750 1499 750 1476 c 2
 750 1421 l 2
 750 1396 745 1390 721 1390 c 2
 587 1390 l 2
 539 1390 528 1387 548 1361 c 2
 864 950 l 2
 906 895 904 895 947 950 c 2
 1264 1358 l 2
 1285 1385 1288 1390 1235 1390 c 2
 1090 1390 l 2
 1060 1390 1050 1390 1050 1420 c 2
 1050 1469 l 2
 1050 1495 1057 1500 1081 1500 c 2
 1605 1500 l 2
 1640 1500 1650 1497 1650 1459 c 2
 1650 1421 l 2
 1650 1395 1642 1390 1617 1390 c 2
 1451 1390 l 2
 1415 1390 1413 1381 1398 1362 c 2
 1026 879 l 2
 977 816 970 812 1020 747 c 2
 1479 148 l 2
 1501 119 1505 110 1559 110 c 2
 1681 110 l 2
 1710 110 1720 106 1720 75 c 2
 1720 38 l 2
 1720 8 1717 0 1688 0 c 2
 1091 0 l 2
 1067 0 1060 4 1060 27 c 2
 1060 79 l 2
 1060 106 1071 110 1096 110 c 2
 1234 110 l 2
 1272 110 1256 125 1244 141 c 2
 887 611 l 2
 838 675 839 675 789 611 c 2
 430 154 l 2
 404 121 408 110 478 110 c 2
 586 110 l 2
 613 110 620 106 620 79 c 2
 620 32 l 2
 620 7 616 0 592 0 c 2
 50 0 l 2
 24 0 20 7 20 34 c 2
EndSplineSet
Substitution2: "'c2sc' Capitals to Small Capitals in Latin lookup 1 subtable" x.sc
EndChar

StartChar: Y
Encoding: 89 89 36
Width: 1570
Flags: MW
AnchorPoint: "Anchor-0" 816 1500 basechar 0
AnchorPoint: "Anchor-1" 796 0 basechar 0
AnchorPoint: "Anchor-2" 796 0 basechar 0
LayerCount: 2
Fore
SplineSet
490 34 m 2
 490 70 l 2
 490 107 500 110 534 110 c 2
 670 110 l 2
 704 110 710 115 710 148 c 2
 710 540 l 2
 710 600 705 625 683 658 c 2
 218 1354 l 2
 198 1385 194 1390 140 1390 c 2
 34 1390 l 2
 9 1390 0 1391 0 1416 c 2
 0 1462 l 2
 0 1493 4 1500 34 1500 c 2
 626 1500 l 2
 655 1500 660 1494 660 1464 c 2
 660 1432 l 2
 660 1397 656 1390 622 1390 c 2
 484 1390 l 2
 430 1390 421 1379 439 1352 c 2
 796 820 l 2
 831 767 829 768 864 822 c 2
 1206 1348 l 2
 1233 1389 1228 1390 1160 1390 c 2
 1004 1390 l 2
 975 1390 970 1397 970 1424 c 2
 970 1458 l 2
 970 1492 973 1500 1006 1500 c 2
 1538 1500 l 2
 1569 1500 1570 1491 1570 1460 c 2
 1570 1432 l 2
 1570 1394 1563 1390 1524 1390 c 2
 1428 1390 l 2
 1360 1390 1360 1371 1335 1332 c 2
 932 714 l 2
 910 680 900 663 900 602 c 2
 900 150 l 2
 900 110 900 110 940 110 c 2
 1110 110 l 2
 1132 110 1140 107 1140 86 c 2
 1140 40 l 2
 1140 1 1126 0 1090 0 c 2
 536 0 l 2
 506 0 490 1 490 34 c 2
EndSplineSet
Substitution2: "'c2sc' Capitals to Small Capitals in Latin lookup 1 subtable" y.sc
EndChar

StartChar: Z
Encoding: 90 90 37
Width: 1510
Flags: MW
AnchorPoint: "Anchor-0" 736 1500 basechar 0
AnchorPoint: "Anchor-1" 776 0 basechar 0
AnchorPoint: "Anchor-2" 776 0 basechar 0
LayerCount: 2
Fore
SplineSet
228 1500 m 2
 1302 1500 l 2
 1327 1500 1330 1492 1330 1466 c 2
 1330 1434 l 2
 1330 1386 1310 1364 1289 1338 c 2
 418 234 l 2
 384 190 336 160 336 132 c 0
 336 119 342 110 372 110 c 2
 970 110 l 2
 1231 110 1304 188 1310 468 c 0
 1311 494 1311 510 1341 510 c 2
 1376 510 l 2
 1408 510 1410 497 1410 468 c 2
 1410 58 l 2
 1410 4 1404 0 1348 0 c 2
 128 0 l 2
 100 0 90 4 90 34 c 2
 90 62 l 2
 90 100 96 117 112 137 c 2
 1004 1268 l 2
 1033 1305 1083 1339 1083 1373 c 0
 1083 1388 1060 1390 1018 1390 c 2
 610 1390 l 2
 349 1390 276 1312 270 1068 c 0
 270 1031 265 1030 228 1030 c 2
 210 1030 l 2
 173 1030 170 1041 170 1076 c 2
 170 1452 l 2
 170 1500 180 1500 228 1500 c 2
EndSplineSet
Substitution2: "'c2sc' Capitals to Small Capitals in Latin lookup 1 subtable" z.sc
EndChar

StartChar: a
Encoding: 97 97 38
Width: 1142
Flags: MW
AnchorPoint: "Anchor-0" 587 1040 basechar 0
AnchorPoint: "Anchor-1" 610 0 basechar 0
AnchorPoint: "Anchor-2" 610 0 basechar 0
AnchorPoint: "Anchor-3" 1000 10 basechar 0
LayerCount: 2
Fore
SplineSet
115 246 m 4
 115 434 289 598 633 598 c 6
 731 598 l 6
 754 598 757 600 757 624 c 6
 757 734 l 6
 757 868 721 968 561 968 c 4
 453 968 347 930 347 890 c 4
 347 854 403 864 403 786 c 4
 403 718 361 670 293 670 c 4
 231 670 175 698 175 786 c 4
 175 960 399 1060 601 1060 c 4
 881 1060 937 906 937 744 c 6
 937 142 l 6
 937 102 961 84 989 84 c 4
 1017 84 1049 94 1084 149 c 4
 1091 161 1097 164 1107 156 c 5
 1143 134 l 6
 1154 127 1155 123 1149 110 c 4
 1102 21 1022 -20 941 -20 c 4
 940 -20 l 4
 789 -20 771 75 763 124 c 4
 759 148 753 148 735 123 c 4
 703 78 636 -20 425 -20 c 4
 247 -20 115 78 115 246 c 4
319 276 m 0
 319 142 415 92 515 92 c 0
 651 92 757 200 757 382 c 2
 757 502 l 2
 757 519 754 522 737 522 c 2
 633 522 l 2
 401 522 319 430 319 276 c 0
EndSplineSet
Substitution2: "'smcp' Lowercase to Small Capitals in Latin lookup 0 subtable" a.sc
EndChar

StartChar: b
Encoding: 98 98 39
Width: 1311
Flags: MW
AnchorPoint: "Anchor-0" 847 1040 basechar 0
AnchorPoint: "Anchor-1" 700 0 basechar 0
AnchorPoint: "Anchor-2" 700 0 basechar 0
LayerCount: 2
Fore
SplineSet
425 520 m 0
 425 292 539 84 721 84 c 0
 889 84 1001 292 1001 520 c 0
 1001 748 889 956 721 956 c 0
 539 956 425 748 425 520 c 0
82 1450 m 2
 69 1450 65 1456 65 1470 c 2
 65 1545 l 2
 65 1555 66 1560 76 1560 c 2
 409 1560 l 2
 419 1560 425 1558 425 1547 c 2
 425 867 l 2
 425 837 427 834 435 850 c 0
 501 981 613 1058 757 1058 c 0
 995 1058 1201 860 1201 520 c 0
 1201 180 995 -20 757 -20 c 0
 617 -20 507 52 441 177 c 0
 428 201 425 200 425 152 c 2
 425 36 l 2
 425 16 421 0 400 0 c 2
 84 0 l 2
 68 0 65 1 65 17 c 2
 65 94 l 2
 65 107 70 110 84 110 c 2
 228 110 l 2
 242 110 245 113 245 128 c 2
 245 1430 l 2
 245 1446 241 1450 229 1450 c 2
 82 1450 l 2
EndSplineSet
Substitution2: "'smcp' Lowercase to Small Capitals in Latin lookup 0 subtable" b.sc
EndChar

StartChar: c
Encoding: 99 99 40
Width: 1116
Flags: MW
AnchorPoint: "Anchor-0" 606 1040 basechar 0
AnchorPoint: "Anchor-1" 604 0 basechar 0
AnchorPoint: "Anchor-2" 604 0 basechar 0
LayerCount: 2
Fore
SplineSet
105 520 m 4
 105 820 281 1060 603 1060 c 4
 847 1060 995 926 995 762 c 4
 995 666 925 630 867 630 c 4
 813 630 753 672 753 746 c 4
 753 818 817 828 817 874 c 4
 817 928 731 966 623 966 c 4
 405 966 307 748 307 520 c 4
 307 292 385 78 603 78 c 4
 762 78 865 178 917 327 c 4
 922 340 926 346 945 346 c 6
 1007 346 l 6
 1028 346 1031 343 1026 328 c 4
 962 124 834 -20 599 -20 c 4
 257 -20 105 220 105 520 c 4
EndSplineSet
Substitution2: "'smcp' Lowercase to Small Capitals in Latin lookup 0 subtable" c.sc
EndChar

StartChar: d
Encoding: 100 100 41
Width: 1311
Flags: HMW
AnchorPoint: "Anchor-0" 576 1040 basechar 0
AnchorPoint: "Anchor-1" 1314 1040 basechar 0
AnchorPoint: "Anchor-2" 757 0 basechar 0
AnchorPoint: "Anchor-3" 1314 1040 basechar 0
LayerCount: 2
Fore
SplineSet
315 520 m 0
 315 292 427 84 595 84 c 0
 777 84 891 292 891 520 c 0
 891 748 777 956 595 956 c 0
 427 956 315 748 315 520 c 0
115 520 m 0
 115 860 321 1058 559 1058 c 0
 698 1058 806 987 873 865 c 0
 887 840 891 840 891 893 c 2
 891 1423 l 2
 891 1449 886 1450 859 1450 c 2
 729 1450 l 2
 713 1450 711 1458 711 1475 c 2
 711 1541 l 2
 711 1557 719 1560 734 1560 c 2
 1032 1560 l 2
 1057 1560 1071 1557 1071 1530 c 2
 1071 142 l 2
 1071 113 1076 110 1106 110 c 2
 1219 110 l 2
 1244 110 1251 109 1251 84 c 2
 1251 29 l 2
 1251 4 1249 0 1225 0 c 2
 925 0 l 2
 896 0 891 7 891 36 c 2
 891 157 l 2
 891 191 883 201 865 173 c 0
 788 50 698 -20 559 -20 c 0
 321 -20 115 180 115 520 c 0
EndSplineSet
Substitution2: "'smcp' Lowercase to Small Capitals in Latin lookup 0 subtable" d.sc
EndChar

StartChar: e
Encoding: 101 101 42
Width: 1126
Flags: MW
AnchorPoint: "Anchor-0" 580 1040 basechar 0
AnchorPoint: "Anchor-1" 602 0 basechar 0
AnchorPoint: "Anchor-2" 602 0 basechar 0
AnchorPoint: "Anchor-3" 833 102 basechar 0
LayerCount: 2
Fore
SplineSet
105 500 m 0
 105 820 263 1060 585 1060 c 0
 911 1060 1019 788 1019 551 c 0
 1019 524 1011 522 983 522 c 2
 340 522 l 2
 318 522 307 516 307 493 c 0
 307 272 388 78 595 78 c 0
 753 78 858 175 911 322 c 0
 916 336 918 346 938 346 c 2
 996 346 l 2
 1016 346 1020 340 1016 325 c 0
 960 122 824 -20 571 -20 c 0
 269 -20 105 220 105 500 c 0
339 608 m 2
 791 608 l 2
 817 608 820 610 820 624 c 0
 820 756 747 972 585 972 c 0
 400 972 311 790 311 633 c 0
 311 613 315 608 339 608 c 2
EndSplineSet
Substitution2: "'smcp' Lowercase to Small Capitals in Latin lookup 0 subtable" e.sc
EndChar

StartChar: f
Encoding: 102 102 43
Width: 812
Flags: MW
AnchorPoint: "Anchor-0" 734 1692 basechar 0
AnchorPoint: "Anchor-1" 356 0 basechar 0
AnchorPoint: "Anchor-2" 356 0 basechar 0
LayerCount: 2
Fore
SplineSet
417 900 m 2
 417 146 l 2
 417 114 418 110 450 110 c 2
 618 110 l 2
 637 110 657 109 657 88 c 2
 657 30 l 2
 657 5 649 0 625 0 c 2
 80 0 l 2
 59 0 57 4 57 26 c 2
 57 88 l 2
 57 108 67 110 85 110 c 2
 215 110 l 2
 236 110 237 117 237 137 c 2
 237 896 l 2
 237 921 236 930 211 930 c 2
 82 930 l 2
 62 930 57 932 57 954 c 2
 57 1016 l 2
 57 1037 64 1040 84 1040 c 2
 211 1040 l 2
 235 1040 237 1043 237 1068 c 2
 237 1144 l 2
 237 1406 371 1580 631 1580 c 0
 833 1580 967 1472 967 1358 c 0
 967 1272 919 1226 849 1226 c 0
 779 1226 733 1266 733 1322 c 0
 733 1382 775 1396 775 1436 c 0
 775 1460 739 1490 635 1490 c 0
 475 1490 417 1354 417 1100 c 2
 417 1068 l 2
 417 1048 421 1040 442 1040 c 2
 661 1040 l 2
 688 1040 697 1039 697 1010 c 2
 697 959 l 2
 697 931 694 930 666 930 c 2
 442 930 l 2
 420 930 417 923 417 900 c 2
EndSplineSet
Substitution2: "'smcp' Lowercase to Small Capitals in Latin lookup 0 subtable" f.sc
EndChar

StartChar: g
Encoding: 103 103 44
Width: 1229
Flags: MW
AnchorPoint: "Anchor-0" 647 1040 basechar 0
AnchorPoint: "Anchor-1" 631 -565 basechar 0
AnchorPoint: "Anchor-2" 631 -565 basechar 0
LayerCount: 2
Fore
SplineSet
310 690 m 0
 310 542 360 400 518 400 c 0
 676 400 726 542 726 690 c 0
 726 838 676 980 518 980 c 0
 360 980 310 838 310 690 c 0
120 690 m 0
 120 910 276 1060 518 1060 c 0
 637 1060 734 1024 803 962 c 0
 815 951 814 953 825 965 c 0
 883 1031 956 1060 1006 1060 c 0
 1148 1060 1214 982 1214 878 c 0
 1214 810 1168 768 1108 768 c 0
 1052 768 1012 806 1012 856 c 0
 1012 920 1050 924 1050 956 c 0
 1050 976 1036 986 1012 986 c 0
 965 986 914 966 873 906 c 0
 866 895 862 892 869 880 c 0
 899 826 916 762 916 690 c 0
 916 470 760 320 518 320 c 0
 491 320 466 322 441 326 c 0
 416 330 405 329 385 320 c 0
 324 292 270 251 270 212 c 0
 270 138 354 138 464 138 c 0
 514 138 630 140 686 140 c 0
 876 140 1060 108 1060 -164 c 0
 1060 -386 860 -520 540 -520 c 0
 254 -520 70 -440 70 -270 c 0
 70 -147 153 -56 234 -10 c 0
 261 5 254 1 228 13 c 0
 171 38 134 84 134 168 c 0
 134 244 191 309 285 350 c 0
 321 365 312 362 283 380 c 0
 179 443 120 554 120 690 c 0
918 -214 m 0
 918 -106 850 -18 720 -18 c 0
 678 -18 536 -18 492 -18 c 0
 442 -18 393 -18 347 -14 c 0
 331 -12 328 -14 320 -23 c 0
 261 -84 260 -160 260 -204 c 0
 260 -340 360 -426 572 -426 c 0
 740 -426 918 -358 918 -214 c 0
EndSplineSet
Substitution2: "'smcp' Lowercase to Small Capitals in Latin lookup 0 subtable" g.sc
EndChar

StartChar: h
Encoding: 104 104 45
Width: 1345
Flags: MW
AnchorPoint: "Anchor-0" 843 1035 basechar 0
AnchorPoint: "Anchor-1" 684 0 basechar 0
AnchorPoint: "Anchor-2" 684 0 basechar 0
LayerCount: 2
Fore
SplineSet
223 1450 m 2
 87 1450 l 2
 65 1450 65 1450 65 1472 c 2
 65 1539 l 2
 65 1558 70 1560 90 1560 c 2
 398 1560 l 2
 422 1560 425 1553 425 1528 c 2
 425 882 l 2
 425 814 432 850 451 881 c 0
 516 983 643 1060 791 1060 c 0
 1005 1060 1115 952 1115 738 c 2
 1115 139 l 2
 1115 113 1119 110 1146 110 c 2
 1274 110 l 2
 1292 110 1295 107 1295 88 c 2
 1295 20 l 2
 1295 1 1291 0 1272 0 c 2
 778 0 l 2
 760 0 757 5 757 23 c 2
 757 86 l 2
 757 101 758 110 773 110 c 2
 910 110 l 2
 934 110 935 114 935 139 c 2
 935 716 l 2
 935 864 877 946 745 946 c 0
 549 946 425 772 425 566 c 2
 425 135 l 2
 425 114 431 110 453 110 c 2
 574 110 l 2
 599 110 605 104 605 78 c 2
 605 28 l 2
 605 10 602 0 584 0 c 2
 85 0 l 2
 66 0 65 -1 65 19 c 2
 65 87 l 2
 65 107 63 110 84 110 c 2
 216 110 l 2
 238 110 245 113 245 134 c 2
 245 1423 l 2
 245 1442 242 1450 223 1450 c 2
EndSplineSet
Substitution2: "'smcp' Lowercase to Small Capitals in Latin lookup 0 subtable" h.sc
EndChar

StartChar: i
Encoding: 105 105 46
Width: 695
Flags: MW
AnchorPoint: "Anchor-1" 362 0 basechar 0
AnchorPoint: "Anchor-2" 362 0 basechar 0
LayerCount: 2
Fore
SplineSet
240 1400 m 0
 240 1466 294 1520 360 1520 c 0
 426 1520 480 1466 480 1400 c 0
 480 1334 426 1280 360 1280 c 0
 294 1280 240 1334 240 1400 c 0
256 930 m 6
 121 930 l 6
 101 930 100 934 100 954 c 6
 100 1014 l 6
 100 1034 105 1040 124 1040 c 6
 441 1040 l 6
 457 1040 460 1036 460 1019 c 6
 460 134 l 6
 460 117 465 110 481 110 c 6
 616 110 l 6
 635 110 640 109 640 90 c 6
 640 24 l 6
 640 5 640 0 621 0 c 6
 131 0 l 6
 108 0 100 2 100 24 c 6
 100 80 l 6
 100 106 109 110 133 110 c 6
 257 110 l 6
 279 110 280 116 280 138 c 6
 280 906 l 6
 280 926 274 930 256 930 c 6
EndSplineSet
Substitution2: "'smcp' Lowercase to Small Capitals in Latin lookup 0 subtable" i.sc
EndChar

StartChar: j
Encoding: 106 106 47
Width: 614
Flags: MW
AnchorPoint: "Anchor-1" 157 -565 basechar 0
AnchorPoint: "Anchor-2" 157 -565 basechar 0
LayerCount: 2
Fore
SplineSet
199 1400 m 0
 199 1466 253 1520 319 1520 c 0
 385 1520 439 1466 439 1400 c 0
 439 1334 385 1280 319 1280 c 0
 253 1280 199 1334 199 1400 c 0
225 930 m 2
 88 930 l 2
 69 930 65 931 65 950 c 2
 65 1017 l 2
 65 1037 68 1040 88 1040 c 2
 401 1040 l 2
 419 1040 425 1037 425 1018 c 2
 425 22 l 2
 425 -278 383 -520 101 -520 c 0
 -77 -520 -181 -404 -181 -280 c 0
 -181 -204 -133 -138 -63 -138 c 0
 5 -138 53 -184 53 -250 c 0
 53 -320 15 -318 15 -358 c 0
 15 -384 27 -432 101 -432 c 0
 323 -432 245 -20 245 208 c 2
 245 911 l 2
 245 926 239 930 225 930 c 2
EndSplineSet
Substitution2: "'smcp' Lowercase to Small Capitals in Latin lookup 0 subtable" j.sc
EndChar

StartChar: k
Encoding: 107 107 48
Width: 1252
Flags: MW
AnchorPoint: "Anchor-0" 915 1040 basechar 0
AnchorPoint: "Anchor-1" 664 0 basechar 0
AnchorPoint: "Anchor-2" 664 0 basechar 0
LayerCount: 2
Fore
SplineSet
206 1450 m 2
 91 1450 l 2
 67 1450 65 1453 65 1476 c 2
 65 1524 l 2
 65 1552 67 1560 94 1560 c 2
 378 1560 l 2
 408 1560 425 1554 425 1521 c 2
 425 648 l 2
 425 612 420 591 444 610 c 2
 814 899 l 2
 850 927 862 930 794 930 c 2
 676 930 l 2
 644 930 643 939 643 972 c 2
 643 1010 l 2
 643 1033 646 1040 668 1040 c 2
 1160 1040 l 2
 1183 1040 1189 1034 1189 1010 c 2
 1189 960 l 2
 1189 932 1181 930 1152 930 c 2
 1044 930 l 2
 1014 930 999 923 984 910 c 2
 642 631 l 2
 619 612 617 612 638 590 c 2
 1073 134 l 2
 1090 116 1095 110 1132 110 c 2
 1194 110 l 2
 1212 110 1217 104 1217 85 c 2
 1217 38 l 2
 1217 6 1208 0 1178 0 c 2
 772 0 l 2
 744 0 743 9 743 38 c 2
 743 75 l 2
 743 104 746 110 774 110 c 2
 823 110 l 2
 867 110 860 118 843 136 c 2
 444 546 l 2
 429 561 425 554 425 518 c 2
 425 146 l 2
 425 119 429 110 458 110 c 2
 548 110 l 2
 569 110 585 107 585 84 c 2
 585 22 l 2
 585 2 577 0 556 0 c 2
 90 0 l 2
 69 0 65 11 65 30 c 2
 65 92 l 2
 65 109 74 110 92 110 c 2
 210 110 l 2
 237 110 245 112 245 138 c 2
 245 1418 l 2
 245 1447 233 1450 206 1450 c 2
EndSplineSet
Substitution2: "'smcp' Lowercase to Small Capitals in Latin lookup 0 subtable" k.sc
EndChar

StartChar: l
Encoding: 108 108 49
Width: 654
Flags: HMW
AnchorPoint: "Anchor-0" 328 1696 basechar 0
AnchorPoint: "Anchor-1" 571 1040 basechar 0
AnchorPoint: "Anchor-2" 335 0 basechar 0
AnchorPoint: "Anchor-3" 571 1040 basechar 0
LayerCount: 2
Fore
SplineSet
197 1450 m 6
 87 1450 l 6
 56 1450 54 1464 54 1492 c 6
 54 1530 l 6
 54 1558 70 1560 95 1560 c 6
 369 1560 l 6
 404 1560 414 1559 414 1524 c 6
 414 154 l 6
 414 119 408 110 445 110 c 6
 567 110 l 6
 586 110 594 105 594 84 c 6
 594 40 l 6
 594 2 582 0 547 0 c 6
 93 0 l 6
 63 0 54 4 54 36 c 6
 54 76 l 6
 54 100 55 110 79 110 c 6
 203 110 l 6
 235 110 234 112 234 144 c 6
 234 1416 l 6
 234 1445 228 1450 197 1450 c 6
EndSplineSet
Substitution2: "'smcp' Lowercase to Small Capitals in Latin lookup 0 subtable" l.sc
EndChar

StartChar: m
Encoding: 109 109 50
Width: 1871
Flags: MW
AnchorPoint: "Anchor-0" 1014 1040 basechar 0
AnchorPoint: "Anchor-1" 955 0 basechar 0
AnchorPoint: "Anchor-2" 955 0 basechar 0
LayerCount: 2
Fore
SplineSet
95 30 m 2
 95 88 l 2
 95 106 102 110 121 110 c 2
 213 110 l 2
 248 110 255 114 255 148 c 2
 255 898 l 2
 255 927 243 930 217 930 c 2
 135 930 l 2
 102 930 95 934 95 966 c 2
 95 998 l 2
 95 1033 99 1040 133 1040 c 2
 395 1040 l 2
 424 1040 435 1037 435 1006 c 2
 435 946 l 2
 435 852 450 879 475 915 c 0
 536 1001 629 1060 763 1060 c 0
 908 1060 974 1003 1023 910 c 0
 1041 876 1052 883 1069 903 c 0
 1143 989 1235 1060 1375 1060 c 0
 1589 1060 1659 952 1659 738 c 2
 1659 154 l 2
 1659 118 1663 110 1701 110 c 2
 1799 110 l 2
 1818 110 1821 102 1821 82 c 2
 1821 44 l 2
 1821 4 1813 0 1775 0 c 2
 1343 0 l 2
 1304 0 1293 2 1293 44 c 2
 1293 72 l 2
 1293 104 1298 110 1329 110 c 2
 1433 110 l 2
 1471 110 1479 113 1479 150 c 2
 1479 716 l 2
 1479 864 1441 946 1329 946 c 0
 1113 946 1047 772 1047 566 c 2
 1047 148 l 2
 1047 111 1062 110 1095 110 c 2
 1165 110 l 2
 1194 110 1209 108 1209 76 c 2
 1209 40 l 2
 1209 8 1205 0 1171 0 c 2
 745 0 l 2
 717 0 707 4 707 34 c 2
 707 64 l 2
 707 103 711 110 749 110 c 2
 823 110 l 2
 860 110 867 114 867 150 c 2
 867 716 l 2
 867 864 829 946 717 946 c 0
 521 946 435 772 435 566 c 2
 435 152 l 2
 435 110 435 110 477 110 c 2
 585 110 l 2
 613 110 621 106 621 76 c 2
 621 36 l 2
 621 17 618 0 597 0 c 2
 123 0 l 2
 101 0 95 6 95 30 c 2
EndSplineSet
Substitution2: "'smcp' Lowercase to Small Capitals in Latin lookup 0 subtable" m.sc
EndChar

StartChar: n
Encoding: 110 110 51
Width: 1375
Flags: MW
AnchorPoint: "Anchor-0" 700 1040 basechar 0
AnchorPoint: "Anchor-1" 689 0 basechar 0
AnchorPoint: "Anchor-2" 689 0 basechar 0
LayerCount: 2
Fore
SplineSet
251 930 m 6
 116 930 l 6
 99 930 95 937 95 955 c 6
 95 1017 l 6
 95 1033 99 1040 114 1040 c 6
 424 1040 l 6
 446 1040 455 1023 455 1005 c 6
 455 888 l 6
 455 836 462 849 475 871 c 4
 539 978 648 1060 821 1060 c 4
 1075 1060 1145 952 1145 738 c 6
 1145 155 l 6
 1145 120 1146 110 1181 110 c 6
 1299 110 l 6
 1321 110 1325 103 1325 80 c 6
 1325 22 l 6
 1325 0 1316 0 1294 0 c 6
 807 0 l 6
 786 0 785 9 785 31 c 6
 785 81 l 6
 785 103 789 110 810 110 c 6
 925 110 l 6
 957 110 965 114 965 149 c 6
 965 716 l 6
 965 864 907 946 775 946 c 4
 579 946 455 772 455 566 c 6
 455 151 l 6
 455 120 466 110 497 110 c 6
 600 110 l 6
 627 110 635 105 635 76 c 6
 635 30 l 6
 635 6 630 0 607 0 c 6
 123 0 l 6
 99 0 95 7 95 32 c 6
 95 78 l 6
 95 106 105 110 131 110 c 6
 241 110 l 6
 267 110 275 113 275 138 c 6
 275 913 l 6
 275 928 267 930 251 930 c 6
EndSplineSet
Substitution2: "'smcp' Lowercase to Small Capitals in Latin lookup 0 subtable" n.sc
EndChar

StartChar: o
Encoding: 111 111 52
Width: 1166
Flags: MW
AnchorPoint: "Anchor-0" 583 1040 basechar 0
AnchorPoint: "Anchor-1" 580 0 basechar 0
AnchorPoint: "Anchor-2" 580 0 basechar 0
LayerCount: 2
Fore
SplineSet
315 540 m 4
 315 292 365 70 583 70 c 4
 801 70 851 292 851 500 c 4
 851 748 801 970 583 970 c 4
 365 970 315 748 315 540 c 4
105 500 m 4
 105 820 261 1060 583 1060 c 4
 905 1060 1061 820 1061 540 c 4
 1061 220 905 -20 583 -20 c 4
 261 -20 105 220 105 500 c 4
EndSplineSet
Substitution2: "'smcp' Lowercase to Small Capitals in Latin lookup 0 subtable" o.sc
EndChar

StartChar: p
Encoding: 112 112 53
Width: 1306
Flags: MW
AnchorPoint: "Anchor-0" 813 1040 basechar 0
AnchorPoint: "Anchor-1" 892 0 basechar 0
AnchorPoint: "Anchor-2" 892 0 basechar 0
LayerCount: 2
Fore
SplineSet
425 520 m 0
 425 292 539 84 721 84 c 0
 889 84 1001 292 1001 520 c 0
 1001 748 889 956 721 956 c 0
 539 956 425 748 425 520 c 0
65 970 m 2
 65 1008 l 2
 65 1037 76 1040 102 1040 c 2
 388 1040 l 2
 419 1040 425 1036 425 1006 c 2
 425 892 l 2
 425 842 431 844 443 866 c 0
 508 984 622 1060 757 1060 c 0
 995 1060 1201 860 1201 520 c 0
 1201 180 995 -18 757 -18 c 0
 633 -18 532 39 465 138 c 0
 435 182 425 184 425 78 c 2
 425 -344 l 6
 425 -385 432 -390 472 -390 c 6
 570 -390 l 6
 600 -390 605 -396 605 -428 c 6
 605 -469 l 6
 605 -498 602 -500 574 -500 c 6
 96 -500 l 6
 69 -500 65 -489 65 -464 c 6
 65 -424 l 6
 65 -398 67 -390 92 -390 c 6
 206 -390 l 6
 243 -390 245 -382 245 -344 c 6
 245 892 l 2
 245 927 233 930 200 930 c 2
 100 930 l 2
 68 930 65 940 65 970 c 2
EndSplineSet
Substitution2: "'smcp' Lowercase to Small Capitals in Latin lookup 0 subtable" p.sc
EndChar

StartChar: q
Encoding: 113 113 54
Width: 1286
Flags: MW
AnchorPoint: "Anchor-0" 621 1040 basechar 0
AnchorPoint: "Anchor-1" 530 0 basechar 0
AnchorPoint: "Anchor-2" 530 0 basechar 0
LayerCount: 2
Fore
SplineSet
881 520 m 0
 881 748 767 956 585 956 c 0
 417 956 305 748 305 520 c 0
 305 292 417 84 585 84 c 0
 767 84 881 292 881 520 c 0
1117 -390 m 6
 1210 -390 l 6
 1231 -390 1241 -396 1241 -416 c 6
 1241 -464 l 6
 1241 -498 1233 -500 1198 -500 c 6
 738 -500 l 6
 707 -500 701 -494 701 -462 c 6
 701 -430 l 6
 701 -397 704 -390 736 -390 c 6
 834 -390 l 6
 878 -390 881 -381 881 -336 c 6
 881 124 l 6
 881 196 871 188 854 159 c 4
 787 47 682 -18 549 -18 c 4
 311 -18 105 180 105 520 c 4
 105 860 311 1060 549 1060 c 4
 680 1060 785 997 852 886 c 4
 870 857 881 852 881 928 c 6
 881 998 l 6
 881 1037 898 1040 938 1040 c 6
 1200 1040 l 6
 1227 1040 1241 1038 1241 1008 c 6
 1241 970 l 6
 1241 939 1233 930 1200 930 c 6
 1105 930 l 6
 1072 930 1061 924 1061 892 c 6
 1061 -348 l 6
 1061 -389 1075 -390 1117 -390 c 6
EndSplineSet
Substitution2: "'smcp' Lowercase to Small Capitals in Latin lookup 0 subtable" q.sc
EndChar

StartChar: r
Encoding: 114 114 55
Width: 1001
Flags: MW
AnchorPoint: "Anchor-0" 530 1040 basechar 0
AnchorPoint: "Anchor-1" 372 0 basechar 0
AnchorPoint: "Anchor-2" 372 0 basechar 0
LayerCount: 2
Fore
SplineSet
275 892 m 2
 275 924 270 930 239 930 c 2
 125 930 l 2
 96 930 95 938 95 968 c 2
 95 1005 l 2
 95 1033 99 1040 127 1040 c 2
 419 1040 l 2
 442 1040 455 1037 455 1012 c 2
 455 907 l 2
 455 873 458 869 476 903 c 0
 524 993 604 1060 735 1060 c 0
 847 1060 951 988 951 872 c 0
 951 788 897 720 827 720 c 0
 759 720 705 760 705 822 c 0
 705 894 751 908 751 932 c 0
 751 952 739 962 691 962 c 0
 555 962 455 772 455 566 c 2
 455 151 l 2
 455 120 456 110 487 110 c 2
 609 110 l 2
 634 110 635 101 635 76 c 2
 635 31 l 2
 635 7 632 0 609 0 c 2
 123 0 l 2
 105 0 95 1 95 19 c 2
 95 82 l 2
 95 104 103 110 123 110 c 2
 234 110 l 2
 264 110 275 116 275 145 c 2
 275 892 l 2
EndSplineSet
Substitution2: "'smcp' Lowercase to Small Capitals in Latin lookup 0 subtable" r.sc
EndChar

StartChar: s
Encoding: 115 115 56
Width: 1035
Flags: MW
AnchorPoint: "Anchor-0" 485 1040 basechar 0
AnchorPoint: "Anchor-1" 485 0 basechar 0
AnchorPoint: "Anchor-2" 485 0 basechar 0
LayerCount: 2
Fore
SplineSet
781 729 m 0
 733 877 606 962 471 962 c 0
 365 962 305 906 305 822 c 0
 305 542 935 700 935 304 c 0
 935 96 775 -24 581 -24 c 0
 451 -24 348 27 287 81 c 0
 266 100 255 103 246 76 c 2
 223 4 l 2
 218 -11 207 -20 186 -20 c 2
 140 -20 l 2
 120 -20 115 -13 115 7 c 2
 115 315 l 2
 115 339 120 346 143 346 c 2
 204 346 l 2
 226 346 231 335 236 319 c 0
 288 158 385 80 551 80 c 0
 691 80 769 144 769 246 c 0
 769 520 149 348 149 770 c 0
 149 958 289 1064 459 1064 c 0
 589 1064 682 1011 735 956 c 0
 756 934 755 923 766 959 c 2
 792 1038 l 2
 798 1056 803 1060 828 1060 c 2
 873 1060 l 2
 893 1060 899 1054 899 1032 c 2
 899 725 l 2
 899 703 893 700 870 700 c 2
 814 700 l 2
 786 700 787 709 781 729 c 0
EndSplineSet
Substitution2: "'smcp' Lowercase to Small Capitals in Latin lookup 0 subtable" s.sc
EndChar

StartChar: t
Encoding: 116 116 57
Width: 740
Flags: MW
AnchorPoint: "Anchor-0" 327 1277 basechar 0
AnchorPoint: "Anchor-1" 517 1153 basechar 0
AnchorPoint: "Anchor-2" 440 0 basechar 0
AnchorPoint: "Anchor-3" 517 1153 basechar 0
LayerCount: 2
Fore
SplineSet
704 195 m 4
 663 74 574 -24 418 -24 c 4
 274 -24 216 62 216 172 c 6
 216 896 l 6
 216 920 208 930 184 930 c 6
 65 930 l 6
 37 930 30 933 30 960 c 6
 30 1014 l 6
 30 1039 35 1040 60 1040 c 4
 204 1040 227 1058 280 1291 c 4
 285 1313 287 1320 316 1320 c 6
 370 1320 l 6
 390 1320 396 1311 396 1291 c 6
 396 1071 l 6
 396 1043 409 1040 435 1040 c 6
 657 1040 l 6
 683 1040 690 1035 690 1007 c 6
 690 955 l 6
 690 931 681 930 657 930 c 6
 437 930 l 6
 409 930 396 928 396 897 c 6
 396 214 l 6
 396 134 430 100 484 100 c 4
 541 100 587 142 622 218 c 4
 631 238 634 241 656 233 c 6
 688 222 l 6
 704 216 710 212 704 195 c 4
EndSplineSet
Substitution2: "'smcp' Lowercase to Small Capitals in Latin lookup 0 subtable" t.sc
EndChar

StartChar: u
Encoding: 117 117 58
Width: 1345
Flags: MW
AnchorPoint: "Anchor-0" 665 1040 basechar 0
AnchorPoint: "Anchor-1" 677 0 basechar 0
AnchorPoint: "Anchor-2" 677 0 basechar 0
AnchorPoint: "Anchor-3" 1107 0 basechar 0
LayerCount: 2
Fore
SplineSet
235 302 m 2
 235 897 l 2
 235 922 233 930 209 930 c 2
 91 930 l 2
 64 930 55 931 55 958 c 2
 55 1004 l 2
 55 1035 62 1040 91 1040 c 2
 377 1040 l 2
 407 1040 415 1038 415 1009 c 2
 415 324 l 2
 415 176 473 74 605 74 c 0
 801 74 925 268 925 474 c 2
 925 896 l 2
 925 928 912 930 883 930 c 2
 773 930 l 2
 755 930 745 931 745 949 c 2
 745 1012 l 2
 745 1033 749 1040 769 1040 c 2
 1081 1040 l 2
 1102 1040 1105 1032 1105 1010 c 2
 1105 144 l 2
 1105 114 1108 110 1139 110 c 2
 1251 110 l 2
 1269 110 1285 107 1285 86 c 2
 1285 34 l 2
 1285 7 1283 0 1257 0 c 2
 959 0 l 2
 929 0 925 7 925 38 c 2
 925 159 l 2
 925 172 915 187 901 163 c 0
 837 56 733 -20 559 -20 c 0
 305 -20 235 88 235 302 c 2
EndSplineSet
Substitution2: "'smcp' Lowercase to Small Capitals in Latin lookup 0 subtable" u.sc
EndChar

StartChar: v
Encoding: 118 118 59
Width: 1188
Flags: MW
AnchorPoint: "Anchor-0" 639 1040 basechar 0
AnchorPoint: "Anchor-1" 612 0 basechar 0
AnchorPoint: "Anchor-2" 612 0 basechar 0
LayerCount: 2
Fore
SplineSet
663 285 m 2
 892 897 l 2
 902 924 897 930 863 930 c 2
 751 930 l 2
 730 930 725 936 725 959 c 2
 725 1013 l 2
 725 1030 731 1040 748 1040 c 2
 1137 1040 l 2
 1165 1040 1173 1036 1173 1006 c 2
 1173 953 l 2
 1173 932 1165 930 1143 930 c 2
 1039 930 l 2
 1010 930 1012 923 1004 903 c 2
 666 -1 l 2
 660 -17 651 -20 628 -20 c 2
 583 -20 l 2
 560 -20 550 -17 544 -1 c 2
 195 909 l 2
 188 929 177 930 149 930 c 2
 39 930 l 2
 22 930 15 938 15 954 c 2
 15 1005 l 2
 15 1035 30 1040 57 1040 c 2
 529 1040 l 2
 550 1040 557 1035 557 1012 c 2
 557 962 l 2
 557 930 547 930 515 930 c 2
 419 930 l 2
 390 930 388 921 395 900 c 2
 606 288 l 2
 621 246 627 224 634 224 c 0
 641 224 648 244 663 285 c 2
EndSplineSet
Substitution2: "'smcp' Lowercase to Small Capitals in Latin lookup 0 subtable" v.sc
EndChar

StartChar: w
Encoding: 119 119 60
Width: 1750
Flags: MW
AnchorPoint: "Anchor-0" 892 1040 basechar 0
AnchorPoint: "Anchor-1" 892 0 basechar 0
AnchorPoint: "Anchor-2" 892 0 basechar 0
LayerCount: 2
Fore
SplineSet
602 263 m 2
 829 1017 l 2
 835 1037 844 1040 870 1040 c 2
 923 1040 l 2
 951 1040 961 1038 967 1017 c 2
 1200 269 l 2
 1205 252 1209 235 1216 235 c 0
 1222 235 1225 252 1230 269 c 2
 1411 901 l 2
 1417 923 1416 930 1388 930 c 2
 1254 930 l 2
 1230 930 1222 932 1222 955 c 2
 1222 1012 l 2
 1222 1032 1225 1040 1244 1040 c 2
 1707 1040 l 2
 1729 1040 1730 1032 1730 1009 c 2
 1730 955 l 2
 1730 935 1724 930 1702 930 c 2
 1573 930 l 2
 1541 930 1540 929 1533 904 c 2
 1274 8 l 2
 1268 -14 1262 -20 1232 -20 c 2
 1160 -20 l 2
 1133 -20 1126 -15 1120 5 c 2
 896 726 l 2
 890 745 887 757 880 757 c 0
 873 757 870 747 864 726 c 2
 643 9 l 2
 636 -13 631 -20 601 -20 c 2
 538 -20 l 2
 508 -20 495 -20 488 3 c 2
 193 910 l 2
 189 924 180 930 162 930 c 2
 36 930 l 2
 21 930 20 938 20 954 c 2
 20 1015 l 2
 20 1031 21 1040 37 1040 c 2
 574 1040 l 2
 598 1040 602 1033 602 1008 c 2
 602 968 l 2
 602 940 601 930 573 930 c 2
 398 930 l 2
 377 930 373 926 377 911 c 2
 572 263 l 2
 577 247 579 235 587 235 c 0
 596 235 597 247 602 263 c 2
EndSplineSet
Substitution2: "'smcp' Lowercase to Small Capitals in Latin lookup 0 subtable" w.sc
EndChar

StartChar: x
Encoding: 120 120 61
Width: 1193
Flags: HMW
AnchorPoint: "Anchor-0" 660 1040 basechar 0
AnchorPoint: "Anchor-1" 592 0 basechar 0
AnchorPoint: "Anchor-2" 592 0 basechar 0
LayerCount: 2
Fore
SplineSet
703 729 m 6
 861 906 l 6
 877 924 869 930 851 930 c 6
 760 930 l 6
 744 930 735 931 735 947 c 6
 735 1014 l 6
 735 1033 739 1040 757 1040 c 6
 1131 1040 l 6
 1149 1040 1153 1033 1153 1014 c 6
 1153 952 l 6
 1153 934 1147 930 1128 930 c 6
 1067 930 l 6
 1038 930 1030 925 1017 911 c 6
 766 633 l 6
 736 600 712 583 712 565 c 4
 712 547 733 529 759 493 c 6
 1025 133 l 6
 1039 114 1041 110 1075 110 c 6
 1125 110 l 6
 1145 110 1153 107 1153 88 c 6
 1153 22 l 6
 1153 0 1143 0 1121 0 c 6
 683 0 l 6
 663 0 661 8 661 29 c 6
 661 83 l 6
 661 104 670 110 691 110 c 6
 792 110 l 6
 830 110 810 130 796 149 c 6
 634 365 l 6
 608 400 598 426 585 426 c 4
 572 426 554 400 526 368 c 6
 317 135 l 6
 301 117 303 110 345 110 c 6
 449 110 l 6
 470 110 473 103 473 81 c 6
 473 27 l 6
 473 8 471 0 453 0 c 6
 77 0 l 6
 52 0 45 3 45 27 c 6
 45 79 l 6
 45 97 49 110 69 110 c 6
 119 110 l 6
 148 110 150 117 163 131 c 6
 454 453 l 6
 485 488 505 508 505 527 c 4
 505 548 484 568 453 610 c 6
 240 897 l 6
 221 922 219 930 173 930 c 6
 81 930 l 6
 51 930 45 935 45 966 c 6
 45 1012 l 6
 45 1036 57 1040 79 1040 c 6
 543 1040 l 6
 566 1040 567 1031 567 1008 c 6
 567 958 l 6
 567 935 560 930 539 930 c 6
 464 930 l 6
 432 930 446 912 457 897 c 6
 586 727 l 6
 613 691 624 670 638 670 c 4
 653 670 671 694 703 729 c 6
EndSplineSet
Substitution2: "'smcp' Lowercase to Small Capitals in Latin lookup 0 subtable" x.sc
EndChar

StartChar: y
Encoding: 121 121 62
Width: 1266
Flags: MW
AnchorPoint: "Anchor-0" 689 1040 basechar 0
AnchorPoint: "Anchor-1" 361 -565 basechar 0
AnchorPoint: "Anchor-2" 361 -565 basechar 0
LayerCount: 2
Fore
SplineSet
31 -262 m 4
 31 -170 91 -116 153 -116 c 4
 213 -116 253 -152 253 -214 c 4
 253 -290 169 -280 169 -332 c 4
 169 -378 211 -420 277 -420 c 4
 355 -420 467 -361 561 -120 c 6
 584 -62 l 6
 600 -21 599 -10 581 30 c 6
 188 898 l 6
 176 924 176 930 136 930 c 6
 50 930 l 6
 20 930 15 936 15 964 c 6
 15 1020 l 6
 15 1038 23 1040 42 1040 c 6
 520 1040 l 6
 552 1040 557 1034 557 1000 c 6
 557 975 l 6
 557 935 553 930 514 930 c 6
 420 930 l 6
 378 930 372 928 385 900 c 6
 657 294 l 6
 675 254 684 235 692 235 c 4
 702 235 709 259 727 306 c 6
 959 896 l 6
 970 925 969 930 926 930 c 6
 854 930 l 6
 825 930 821 939 821 966 c 6
 821 1000 l 6
 821 1035 829 1040 862 1040 c 6
 1220 1040 l 6
 1243 1040 1251 1038 1251 1016 c 6
 1251 970 l 6
 1251 940 1250 930 1220 930 c 6
 1138 930 l 6
 1092 930 1095 920 1082 888 c 6
 649 -204 l 6
 545 -465 393 -520 277 -520 c 4
 123 -520 31 -396 31 -262 c 4
EndSplineSet
Substitution2: "'smcp' Lowercase to Small Capitals in Latin lookup 0 subtable" y.sc
EndChar

StartChar: z
Encoding: 122 122 63
Width: 1110
Flags: HMW
AnchorPoint: "Anchor-0" 553 1040 basechar 0
AnchorPoint: "Anchor-1" 564 0 basechar 0
AnchorPoint: "Anchor-2" 564 0 basechar 0
LayerCount: 2
Fore
SplineSet
497 940 m 6
 264 940 243 850 241 671 c 4
 241 648 242 636 216 636 c 6
 177 636 l 6
 148 636 141 639 141 667 c 6
 141 990 l 6
 141 1036 148 1040 195 1040 c 6
 969 1040 l 6
 994 1040 1003 1036 1003 1009 c 6
 1003 976 l 6
 1003 935 991 926 974 905 c 6
 346 142 l 6
 315 105 300 100 373 100 c 6
 623 100 l 6
 909 100 924 176 925 408 c 4
 925 428 934 428 954 428 c 6
 991 428 l 6
 1017 428 1025 425 1025 400 c 6
 1025 60 l 6
 1025 7 1021 0 969 0 c 6
 131 0 l 6
 102 0 95 8 95 36 c 6
 95 73 l 6
 95 114 115 124 133 146 c 6
 746 893 l 6
 784 939 761 940 677 940 c 6
 497 940 l 6
EndSplineSet
Substitution2: "'smcp' Lowercase to Small Capitals in Latin lookup 0 subtable" z.sc
EndChar

StartChar: comma
Encoding: 44 44 65
Width: 578
Flags: MW
LayerCount: 2
Fore
SplineSet
154 98 m 0
 154 164 212 216 288 216 c 0
 366 216 428 154 428 8 c 0
 428 -126 338 -296 173 -311 c 0
 158 -312 150 -313 150 -296 c 2
 150 -253 l 2
 150 -235 160 -232 175 -230 c 0
 266 -216 344 -124 333 -9 c 0
 331 7 322 -1 311 -8 c 0
 295 -19 281 -20 260 -20 c 0
 194 -20 154 32 154 98 c 0
EndSplineSet
EndChar

StartChar: exclam
Encoding: 33 33 67
Width: 638
Flags: MW
LayerCount: 2
Fore
SplineSet
200 98 m 0
 200 164 252 216 318 216 c 0
 384 216 436 164 436 98 c 0
 436 32 384 -20 318 -20 c 0
 252 -20 200 32 200 98 c 0
436 1318 m 0
 415 977 360 732 356 445 c 0
 356 423 356 416 332 416 c 2
 301 416 l 2
 282 416 280 422 280 440 c 0
 277 729 221 975 200 1318 c 0
 200 1332 200 1344 200 1356 c 0
 200 1448 224 1516 318 1516 c 0
 412 1516 438 1448 438 1356 c 0
 438 1344 436 1332 436 1318 c 0
EndSplineSet
EndChar

StartChar: quotesingle
Encoding: 39 39 70
Width: 400
Flags: MW
LayerCount: 2
Fore
SplineSet
298 1358 m 4
 277 1216 241 1107 238 994 c 4
 238 978 231 976 214 976 c 6
 184 976 l 6
 166 976 163 983 162 999 c 4
 158 1111 123 1218 102 1358 c 4
 100 1372 100 1382 100 1394 c 4
 100 1472 142 1516 200 1516 c 4
 258 1516 300 1472 300 1394 c 4
 300 1382 300 1372 298 1358 c 4
EndSplineSet
EndChar

StartChar: quoteleft
Encoding: 8216 8216 71
Width: 478
Flags: MW
LayerCount: 2
Fore
SplineSet
374 1190 m 0
 374 1124 316 1072 240 1072 c 0
 162 1072 100 1134 100 1280 c 0
 100 1414 190 1584 355 1599 c 0
 370 1600 378 1601 378 1584 c 2
 378 1541 l 2
 378 1523 368 1520 353 1518 c 0
 262 1504 184 1412 195 1297 c 0
 197 1281 206 1289 217 1296 c 0
 233 1307 247 1308 268 1308 c 0
 334 1308 374 1256 374 1190 c 0
EndSplineSet
EndChar

StartChar: quotedblleft
Encoding: 8220 8220 72
Width: 878
Flags: MW
LayerCount: 2
Fore
SplineSet
374 1190 m 0
 374 1124 316 1072 240 1072 c 0
 162 1072 100 1134 100 1280 c 0
 100 1414 190 1584 355 1599 c 0
 370 1600 378 1601 378 1584 c 2
 378 1541 l 2
 378 1523 368 1520 353 1518 c 0
 262 1504 184 1412 195 1297 c 0
 197 1281 206 1289 217 1296 c 0
 233 1307 247 1308 268 1308 c 0
 334 1308 374 1256 374 1190 c 0
774 1190 m 0
 774 1124 716 1072 640 1072 c 0
 562 1072 500 1134 500 1280 c 0
 500 1414 590 1584 755 1599 c 0
 770 1600 778 1601 778 1584 c 2
 778 1541 l 2
 778 1523 768 1520 753 1518 c 0
 662 1504 584 1412 595 1297 c 0
 597 1281 606 1289 617 1296 c 0
 633 1307 647 1308 668 1308 c 0
 734 1308 774 1256 774 1190 c 0
EndSplineSet
EndChar

StartChar: quotedblright
Encoding: 8221 8221 73
Width: 878
Flags: MW
LayerCount: 2
Fore
SplineSet
104 1402 m 0
 104 1468 162 1520 238 1520 c 0
 316 1520 378 1458 378 1312 c 0
 378 1178 288 1008 123 993 c 0
 108 992 100 991 100 1008 c 2
 100 1051 l 2
 100 1069 110 1072 125 1074 c 0
 216 1088 294 1180 283 1295 c 0
 281 1311 272 1303 261 1296 c 0
 245 1285 231 1284 210 1284 c 0
 144 1284 104 1336 104 1402 c 0
504 1402 m 0
 504 1468 562 1520 638 1520 c 0
 716 1520 778 1458 778 1312 c 0
 778 1178 688 1008 523 993 c 0
 508 992 500 991 500 1008 c 2
 500 1051 l 2
 500 1069 510 1072 525 1074 c 0
 616 1088 694 1180 683 1295 c 0
 681 1311 672 1303 661 1296 c 0
 645 1285 631 1284 610 1284 c 0
 544 1284 504 1336 504 1402 c 0
EndSplineSet
EndChar

StartChar: quoteright
Encoding: 8217 8217 74
Width: 478
Flags: MW
LayerCount: 2
Fore
SplineSet
104 1402 m 0
 104 1468 162 1520 238 1520 c 0
 316 1520 378 1458 378 1312 c 0
 378 1178 288 1008 123 993 c 0
 108 992 100 991 100 1008 c 2
 100 1051 l 2
 100 1069 110 1072 125 1074 c 0
 216 1088 294 1180 283 1295 c 0
 281 1311 272 1303 261 1296 c 0
 245 1285 231 1284 210 1284 c 0
 144 1284 104 1336 104 1402 c 0
EndSplineSet
EndChar

StartChar: question
Encoding: 63 63 75
Width: 1100
Flags: MW
LayerCount: 2
Fore
SplineSet
298 1324 m 0
 298 1264 360 1262 360 1160 c 0
 360 1076 294 1040 224 1040 c 0
 154 1040 90 1086 90 1182 c 0
 90 1346 238 1520 522 1520 c 0
 844 1520 1000 1360 1000 1100 c 0
 1000 901 847 703 601 640 c 0
 569 632 554 630 554 587 c 2
 554 451 l 2
 554 421 546 418 515 418 c 2
 478 418 l 2
 443 418 434 420 434 455 c 2
 434 651 l 2
 434 694 443 700 473 711 c 0
 667 783 798 947 798 1140 c 0
 798 1288 720 1436 522 1436 c 0
 354 1436 298 1368 298 1324 c 0
EndSplineSet
Refer: 1 46 N 1 0 0 1 298 0 2
EndChar

StartChar: parenleft
Encoding: 40 40 76
Width: 890
Flags: MW
LayerCount: 2
Fore
SplineSet
823 -276 m 2
 814 -318 l 2
 809 -342 808 -340 785 -334 c 0
 355 -226 110 134 110 650 c 0
 110 1155 344 1474 757 1587 c 0
 786 1595 808 1604 815 1569 c 2
 824 1530 l 2
 831 1497 827 1500 798 1490 c 0
 473 1382 340 1099 340 650 c 0
 340 198 475 -123 804 -232 c 0
 833 -242 829 -245 823 -276 c 2
EndSplineSet
EndChar

StartChar: parenright
Encoding: 41 41 77
Width: 890
Flags: MW
LayerCount: 2
Fore
SplineSet
67 1536 m 2
 76 1578 l 2
 81 1602 82 1600 105 1594 c 0
 535 1486 780 1126 780 610 c 0
 780 105 546 -214 133 -327 c 0
 104 -335 82 -344 75 -309 c 2
 66 -270 l 2
 59 -237 63 -240 92 -230 c 0
 417 -122 550 161 550 610 c 0
 550 1062 415 1383 86 1492 c 0
 57 1502 61 1505 67 1536 c 2
EndSplineSet
EndChar

StartChar: asterisk
Encoding: 42 42 78
Width: 1270
Flags: MW
LayerCount: 2
Fore
SplineSet
165 772 m 0
 136 822 153 881 221 920 c 0
 317 975 435 998 524 1032 c 0
 549 1041 552 1042 526 1052 c 0
 437 1086 319 1110 223 1165 c 0
 155 1204 138 1262 167 1312 c 0
 196 1362 255 1377 323 1338 c 0
 422 1281 497 1193 570 1133 c 0
 589 1118 596 1108 590 1142 c 0
 575 1235 536 1339 536 1458 c 0
 536 1536 578 1580 636 1580 c 0
 694 1580 736 1536 736 1458 c 0
 736 1340 698 1235 682 1142 c 0
 675 1099 689 1119 709 1136 c 0
 780 1196 852 1278 947 1333 c 0
 1015 1372 1074 1358 1103 1308 c 0
 1132 1258 1115 1199 1047 1160 c 0
 955 1107 842 1083 754 1051 c 0
 723 1040 713 1039 748 1026 c 0
 837 993 951 969 1045 915 c 0
 1113 876 1130 818 1101 768 c 0
 1072 718 1013 703 945 742 c 0
 846 799 771 887 698 947 c 0
 677 965 673 970 679 933 c 0
 695 841 732 739 732 622 c 0
 732 544 690 500 632 500 c 0
 574 500 532 544 532 622 c 0
 532 741 570 845 586 939 c 0
 592 975 586 966 566 950 c 0
 493 890 419 804 321 747 c 0
 253 708 194 722 165 772 c 0
EndSplineSet
EndChar

StartChar: at
Encoding: 64 64 79
Width: 2120
Flags: MW
LayerCount: 2
Fore
SplineSet
1328 692 m 0
 1328 776 1300 956 1168 956 c 0
 1020 956 870 728 870 480 c 0
 870 346 900 244 1028 244 c 0
 1150 244 1328 436 1328 692 c 0
1640 -161 m 0
 1474 -336 1245 -428 938 -428 c 0
 652 -428 130 -224 130 442 c 0
 130 1108 624 1580 1170 1580 c 0
 1716 1580 2010 1208 2010 842 c 0
 2010 522 1824 140 1482 140 c 0
 1376 140 1322 198 1289 267 c 0
 1269 309 1272 325 1223 271 c 0
 1148 188 1057 140 968 140 c 0
 810 140 668 251 668 460 c 0
 668 760 898 1058 1136 1058 c 0
 1239 1058 1311 1004 1351 912 c 0
 1379 848 1378 841 1393 905 c 2
 1417 1010 l 2
 1422 1033 1429 1040 1459 1040 c 2
 1550 1040 l 2
 1596 1040 1601 1027 1591 986 c 2
 1460 420 l 2
 1456 394 1432 264 1526 264 c 0
 1728 264 1884 542 1884 850 c 0
 1884 1204 1572 1474 1204 1474 c 0
 716 1474 340 1006 340 462 c 0
 340 -142 702 -318 990 -318 c 0
 1185 -318 1385 -255 1557 -86 c 0
 1588 -56 1588 -46 1620 -78 c 2
 1649 -107 l 2
 1674 -132 1664 -136 1640 -161 c 0
EndSplineSet
EndChar

StartChar: dollar
Encoding: 36 36 80
Width: 1320
Flags: MW
LayerCount: 2
Fore
SplineSet
660 1670 m 1
 770 1670 l 1
 760 1513 l 1
 967 1489 1148 1393 1148 1158 c 0
 1148 1062 1078 1026 1020 1026 c 0
 966 1026 906 1068 906 1142 c 0
 906 1214 970 1224 970 1270 c 0
 970 1319 911 1391 753 1412 c 1
 720 896 l 1
 958 842 1220 779 1220 430 c 0
 1220 150 1022 -20 660 -20 c 1
 650 -170 l 1
 540 -170 l 1
 550 -15 l 1
 249 16 92 175 92 372 c 0
 92 468 162 504 220 504 c 0
 274 504 334 462 334 388 c 0
 334 316 270 306 270 260 c 0
 270 210 347 112 557 88 c 1
 597 701 l 1
 378 753 160 821 160 1110 c 0
 160 1395 402 1520 650 1520 c 1
 660 1670 l 1
1040 380 m 0
 1040 573 885 630 705 675 c 1
 666 82 l 1
 933 85 1040 243 1040 380 c 0
340 1170 m 0
 340 1015 460 961 611 922 c 1
 644 1418 l 1
 443 1412 340 1304 340 1170 c 0
EndSplineSet
EndChar

StartChar: numbersign
Encoding: 35 35 81
Width: 1320
Flags: MW
LayerCount: 2
Fore
SplineSet
486 1610 m 2
 546 1610 l 2
 568 1610 569 1605 567 1584 c 2
 513 1121 l 2
 509 1085 508 1080 550 1080 c 2
 817 1080 l 2
 859 1080 859 1082 863 1119 c 2
 917 1581 l 2
 920 1606 917 1610 946 1610 c 2
 998 1610 l 2
 1031 1610 1029 1608 1026 1579 c 2
 973 1120 l 2
 968 1080 968 1080 1013 1080 c 2
 1317 1080 l 2
 1336 1080 1340 1073 1340 1053 c 2
 1340 996 l 2
 1340 976 1333 970 1314 970 c 2
 985 970 l 2
 957 970 956 970 953 945 c 2
 912 597 l 2
 909 568 909 560 945 560 c 2
 1255 560 l 2
 1276 560 1280 553 1280 531 c 2
 1280 485 l 2
 1280 453 1269 450 1239 450 c 2
 922 450 l 2
 895 450 895 449 892 425 c 2
 833 -84 l 2
 830 -109 830 -110 802 -110 c 2
 753 -110 l 2
 719 -110 721 -109 724 -79 c 2
 782 420 l 2
 785 446 782 450 746 450 c 2
 471 450 l 2
 439 450 435 452 432 423 c 2
 373 -86 l 2
 370 -109 371 -110 345 -110 c 2
 282 -110 l 2
 256 -110 260 -105 263 -83 c 2
 321 414 l 2
 324 442 323 450 289 450 c 2
 4 450 l 2
 -18 450 -20 457 -20 480 c 2
 -20 535 l 2
 -20 558 -13 560 11 560 c 2
 308 560 l 2
 344 560 338 568 342 598 c 2
 383 943 l 2
 386 967 387 970 359 970 c 2
 72 970 l 2
 42 970 40 978 40 1009 c 2
 40 1047 l 2
 40 1070 41 1080 64 1080 c 2
 356 1080 l 2
 395 1080 399 1084 402 1114 c 2
 457 1585 l 2
 460 1609 459 1610 486 1610 c 2
801 970 m 2
 544 970 l 2
 499 970 495 962 491 931 c 2
 452 596 l 2
 448 562 455 560 488 560 c 2
 756 560 l 2
 794 560 799 568 802 593 c 2
 841 927 l 2
 846 969 838 970 801 970 c 2
EndSplineSet
EndChar

StartChar: slash
Encoding: 47 47 82
Width: 1040
Flags: MW
LayerCount: 2
Fore
SplineSet
874 1560 m 2
 919 1560 l 2
 957 1560 958 1555 948 1530 c 2
 231 -268 l 2
 220 -296 210 -300 169 -300 c 2
 137 -300 l 2
 88 -300 85 -289 97 -258 c 2
 818 1526 l 2
 829 1553 834 1560 874 1560 c 2
EndSplineSet
EndChar

StartChar: percent
Encoding: 37 37 83
Width: 2000
Flags: MW
LayerCount: 2
Fore
SplineSet
70 1080 m 0
 70 1366 244 1520 470 1520 c 0
 696 1520 870 1366 870 1080 c 0
 870 794 656 640 470 640 c 0
 244 640 70 794 70 1080 c 0
290 1080 m 0
 290 876 322 740 470 740 c 0
 618 740 650 876 650 1080 c 0
 650 1284 618 1420 470 1420 c 0
 322 1420 290 1284 290 1080 c 0
1430 1500 m 2
 1487 1500 l 2
 1522 1500 1520 1490 1506 1468 c 2
 625 28 l 2
 612 7 602 0 567 0 c 2
 514 0 l 2
 475 0 484 23 495 41 c 2
 1388 1478 l 2
 1396 1492 1407 1500 1430 1500 c 2
1130 420 m 0
 1130 706 1304 860 1530 860 c 0
 1756 860 1930 706 1930 420 c 0
 1930 134 1716 -20 1530 -20 c 0
 1304 -20 1130 134 1130 420 c 0
1350 420 m 0
 1350 216 1382 80 1530 80 c 0
 1678 80 1710 216 1710 420 c 0
 1710 624 1678 760 1530 760 c 0
 1382 760 1350 624 1350 420 c 0
EndSplineSet
EndChar

StartChar: hyphen
Encoding: 45 45 84
Width: 640
Flags: MW
LayerCount: 2
Fore
SplineSet
108 710 m 2
 534 710 l 2
 557 710 560 706 560 682 c 2
 560 603 l 2
 560 579 558 570 532 570 c 2
 106 570 l 2
 81 570 80 574 80 600 c 2
 80 682 l 2
 80 705 87 710 108 710 c 2
EndSplineSet
Substitution2: "Single Substitution lookup 8 subtable" hyphen.sc
EndChar

StartChar: plus
Encoding: 43 43 86
Width: 1060
Flags: MW
LayerCount: 2
Fore
SplineSet
620 836 m 2
 906 836 l 2
 929 836 940 832 940 808 c 2
 940 751 l 2
 940 734 939 726 922 726 c 2
 624 726 l 2
 592 726 584 723 584 692 c 2
 584 389 l 2
 584 372 577 370 559 370 c 2
 501 370 l 2
 481 370 476 370 476 390 c 2
 476 685 l 2
 476 720 475 726 440 726 c 2
 149 726 l 2
 124 726 120 731 120 755 c 2
 120 809 l 2
 120 831 129 836 150 836 c 2
 442 836 l 2
 469 836 476 841 476 870 c 2
 476 1160 l 2
 476 1183 480 1190 505 1190 c 2
 562 1190 l 2
 582 1190 584 1182 584 1161 c 2
 584 874 l 2
 584 842 589 836 620 836 c 2
EndSplineSet
EndChar

StartChar: equal
Encoding: 61 61 87
Width: 1120
Flags: MW
LayerCount: 2
Fore
SplineSet
157 680 m 2
 967 680 l 2
 997 680 1000 676 1000 652 c 2
 1000 603 l 2
 1000 579 998 570 964 570 c 2
 154 570 l 2
 122 570 120 574 120 600 c 2
 120 652 l 2
 120 675 130 680 157 680 c 2
157 980 m 2
 967 980 l 2
 997 980 1000 976 1000 952 c 2
 1000 903 l 2
 1000 879 998 870 964 870 c 2
 154 870 l 2
 122 870 120 874 120 900 c 2
 120 952 l 2
 120 975 130 980 157 980 c 2
EndSplineSet
EndChar

StartChar: less
Encoding: 60 60 88
Width: 1120
Flags: MW
LayerCount: 2
Fore
SplineSet
296 752 m 2
 962 495 l 2
 990 484 1000 477 1000 437 c 2
 1000 395 l 2
 1000 350 983 357 956 367 c 2
 152 678 l 2
 123 689 120 699 120 740 c 2
 120 820 l 2
 120 862 125 862 154 873 c 2
 966 1187 l 2
 991 1197 1000 1193 1000 1159 c 2
 1000 1113 l 2
 1000 1076 989 1066 964 1056 c 2
 298 799 l 2
 267 787 250 787 250 776 c 0
 250 765 263 765 296 752 c 2
EndSplineSet
EndChar

StartChar: greater
Encoding: 62 62 89
Width: 1120
Flags: MW
LayerCount: 2
Fore
SplineSet
824 798 m 2
 158 1055 l 2
 130 1066 120 1073 120 1113 c 2
 120 1155 l 2
 120 1200 137 1193 164 1183 c 2
 968 872 l 2
 997 861 1000 851 1000 810 c 2
 1000 730 l 2
 1000 688 995 688 966 677 c 2
 154 363 l 2
 129 353 120 357 120 391 c 2
 120 437 l 2
 120 474 131 484 156 494 c 2
 822 751 l 2
 853 763 870 763 870 774 c 0
 870 785 857 785 824 798 c 2
EndSplineSet
EndChar

StartChar: backslash
Encoding: 92 92 90
Width: 1040
Flags: MW
LayerCount: 2
Fore
SplineSet
208 1560 m 1
 960 -300 l 1
 822 -300 l 1
 80 1560 l 1
 208 1560 l 1
EndSplineSet
EndChar

StartChar: bracketleft
Encoding: 91 91 91
Width: 650
Flags: MW
LayerCount: 2
Fore
SplineSet
167 1560 m 2
 527 1560 l 2
 572 1560 590 1560 590 1511 c 2
 590 1488 l 2
 590 1456 586 1450 555 1450 c 2
 357 1450 l 2
 315 1450 290 1448 290 1401 c 2
 290 -150 l 2
 290 -188 298 -190 337 -190 c 2
 545 -190 l 2
 576 -190 590 -192 590 -226 c 2
 590 -262 l 2
 590 -295 584 -300 549 -300 c 2
 180 -300 l 2
 128 -300 110 -292 110 -231 c 2
 110 1500 l 2
 110 1544 115 1560 167 1560 c 2
EndSplineSet
EndChar

StartChar: braceleft
Encoding: 123 123 92
Width: 544
Flags: MW
LayerCount: 2
Fore
SplineSet
442 -299 m 0
 186 -289 110 -189 110 -20 c 0
 110 254 230 344 230 470 c 0
 230 537 190 555 142 570 c 0
 115 579 110 580 110 617 c 2
 110 651 l 2
 110 680 126 685 146 692 c 0
 192 707 230 727 230 792 c 0
 230 918 110 1008 110 1282 c 0
 110 1453 187 1552 450 1560 c 0
 481 1561 484 1555 484 1520 c 2
 484 1498 l 2
 484 1466 484 1467 454 1465 c 0
 350 1458 296 1409 296 1294 c 0
 296 1142 364 1062 364 862 c 0
 364 769 331 704 275 658 c 0
 255 642 245 642 245 630 c 0
 245 619 256 618 276 602 c 0
 331 557 364 493 364 400 c 0
 364 200 296 120 296 -32 c 0
 296 -142 345 -193 440 -204 c 0
 467 -207 484 -200 484 -233 c 2
 484 -261 l 2
 484 -297 475 -300 442 -299 c 0
EndSplineSet
EndChar

StartChar: bracketright
Encoding: 93 93 93
Width: 650
Flags: MW
LayerCount: 2
Fore
SplineSet
483 -300 m 2
 123 -300 l 2
 78 -300 60 -300 60 -251 c 2
 60 -228 l 2
 60 -196 64 -190 95 -190 c 2
 293 -190 l 2
 335 -190 360 -188 360 -141 c 2
 360 1410 l 2
 360 1448 352 1450 313 1450 c 2
 105 1450 l 2
 74 1450 60 1452 60 1486 c 2
 60 1522 l 2
 60 1555 66 1560 101 1560 c 2
 470 1560 l 2
 522 1560 540 1552 540 1491 c 2
 540 -240 l 2
 540 -284 535 -300 483 -300 c 2
EndSplineSet
EndChar

StartChar: braceright
Encoding: 125 125 94
Width: 544
Flags: MW
LayerCount: 2
Fore
SplineSet
102 1559 m 0
 358 1549 434 1449 434 1280 c 0
 434 1006 314 916 314 790 c 0
 314 723 354 705 402 690 c 0
 429 681 434 680 434 643 c 2
 434 609 l 2
 434 580 418 575 398 568 c 0
 352 553 314 533 314 468 c 0
 314 342 434 252 434 -22 c 0
 434 -193 357 -292 94 -300 c 0
 63 -301 60 -295 60 -260 c 2
 60 -238 l 2
 60 -206 60 -207 90 -205 c 0
 194 -198 248 -149 248 -34 c 0
 248 118 180 198 180 398 c 0
 180 491 213 556 269 602 c 0
 289 618 299 618 299 630 c 0
 299 641 288 642 268 658 c 0
 213 703 180 767 180 860 c 0
 180 1060 248 1140 248 1292 c 0
 248 1402 199 1453 104 1464 c 0
 77 1467 60 1460 60 1493 c 2
 60 1521 l 2
 60 1557 69 1560 102 1559 c 0
EndSplineSet
EndChar

StartChar: bar
Encoding: 124 124 95
Width: 600
Flags: MW
LayerCount: 2
Fore
SplineSet
257 1560 m 2
 339 1560 l 2
 384 1560 390 1555 390 1512 c 2
 390 -454 l 2
 390 -486 388 -500 353 -500 c 2
 257 -500 l 2
 216 -500 210 -495 210 -456 c 2
 210 1506 l 2
 210 1551 212 1560 257 1560 c 2
EndSplineSet
EndChar

StartChar: asciitilde
Encoding: 126 126 96
Width: 1376
Flags: MW
LayerCount: 2
Fore
SplineSet
456 874 m 4
 368 874 321 818 315 709 c 4
 314 687 307 686 284 686 c 6
 234 686 l 6
 208 686 200 689 201 714 c 4
 212 924 347 1020 498 1020 c 4
 738 1020 738 832 920 832 c 4
 1005 832 1053 885 1061 989 c 4
 1063 1014 1068 1020 1096 1020 c 6
 1142 1020 l 6
 1167 1020 1177 1019 1176 992 c 4
 1168 777 1031 686 878 686 c 4
 604 686 612 874 456 874 c 4
EndSplineSet
EndChar

StartChar: asciicircum
Encoding: 94 94 97
Width: 1090
Flags: MW
LayerCount: 2
Fore
SplineSet
508 1399 m 2
 192 1138 l 2
 172 1122 169 1121 145 1134 c 2
 120 1147 l 2
 99 1159 105 1165 120 1180 c 2
 460 1520 l 2
 472 1532 479 1540 504 1540 c 2
 580 1540 l 2
 609 1540 618 1532 632 1518 c 2
 970 1180 l 2
 985 1165 989 1159 967 1147 c 2
 947 1136 l 2
 923 1122 918 1121 898 1138 c 2
 585 1397 l 2
 547 1428 546 1430 508 1399 c 2
EndSplineSet
EndChar

StartChar: grave
Encoding: 96 96 98
Width: 790
Flags: MW
LayerCount: 2
Fore
SplineSet
180 1440 m 2
 142 1441 110 1472 110 1510 c 0
 110 1548 144 1589 200 1576 c 2
 637 1470 l 2
 662 1464 678 1460 675 1440 c 0
 673 1421 666 1420 641 1421 c 2
 180 1440 l 2
EndSplineSet
EndChar

StartChar: uni203E
Encoding: 8254 8254 99
Width: 719
Flags: MW
LayerCount: 2
Fore
SplineSet
33 1859 m 2
 998 1859 l 2
 1033 1859 1038 1855 1038 1831 c 2
 1038 1782 l 2
 1038 1758 1035 1749 995 1749 c 2
 30 1749 l 2
 -9 1749 -10 1753 -10 1779 c 2
 -10 1831 l 2
 -10 1854 1 1859 33 1859 c 2
EndSplineSet
EndChar

StartChar: uni2010
Encoding: 8208 8208 100
Width: 920
Flags: MW
LayerCount: 2
Fore
SplineSet
148 830 m 2
 774 830 l 2
 797 830 800 826 800 802 c 2
 800 753 l 2
 800 729 798 720 772 720 c 2
 146 720 l 2
 121 720 120 724 120 750 c 2
 120 802 l 2
 120 825 127 830 148 830 c 2
EndSplineSet
EndChar

StartChar: uni2011
Encoding: 8209 8209 101
Width: 920
Flags: MW
LayerCount: 2
Fore
SplineSet
148 830 m 2
 774 830 l 2
 797 830 800 826 800 802 c 2
 800 753 l 2
 800 729 798 720 772 720 c 2
 146 720 l 2
 121 720 120 724 120 750 c 2
 120 802 l 2
 120 825 127 830 148 830 c 2
EndSplineSet
EndChar

StartChar: endash
Encoding: 8211 8211 102
Width: 1432
Flags: MW
LayerCount: 2
Fore
SplineSet
169 830 m 2
 1267 830 l 2
 1307 830 1312 826 1312 802 c 2
 1312 753 l 2
 1312 729 1309 720 1263 720 c 2
 166 720 l 2
 122 720 120 724 120 750 c 2
 120 802 l 2
 120 825 132 830 169 830 c 2
EndSplineSet
EndChar

StartChar: figuredash
Encoding: 8210 8210 103
Width: 1224
Flags: MW
LayerCount: 2
Fore
SplineSet
160 830 m 2
 1066 830 l 2
 1099 830 1104 826 1104 802 c 2
 1104 753 l 2
 1104 729 1102 720 1064 720 c 2
 157 720 l 2
 121 720 120 724 120 750 c 2
 120 802 l 2
 120 825 130 830 160 830 c 2
EndSplineSet
EndChar

StartChar: emdash
Encoding: 8212 8212 104
Width: 2124
Flags: MW
LayerCount: 2
Fore
SplineSet
198 830 m 2
 1932 830 l 2
 1996 830 2004 826 2004 802 c 2
 2004 753 l 2
 2004 729 1999 720 1927 720 c 2
 192 720 l 2
 123 720 120 724 120 750 c 2
 120 802 l 2
 120 825 140 830 198 830 c 2
EndSplineSet
EndChar

StartChar: uni2015
Encoding: 8213 8213 105
Width: 2331
Flags: MW
LayerCount: 2
Fore
SplineSet
206 830 m 2
 2131 830 l 2
 2202 830 2211 826 2211 802 c 2
 2211 753 l 2
 2211 729 2205 720 2125 720 c 2
 200 720 l 2
 123 720 120 724 120 750 c 2
 120 802 l 2
 120 825 141 830 206 830 c 2
EndSplineSet
EndChar

StartChar: perthousand
Encoding: 8240 8240 106
Width: 2900
Flags: MW
LayerCount: 2
Fore
SplineSet
2030 420 m 0
 2030 706 2204 860 2430 860 c 0
 2656 860 2830 706 2830 420 c 0
 2830 134 2616 -20 2430 -20 c 0
 2204 -20 2030 134 2030 420 c 0
2250 420 m 0
 2250 216 2282 80 2430 80 c 0
 2578 80 2610 216 2610 420 c 0
 2610 624 2578 760 2430 760 c 0
 2282 760 2250 624 2250 420 c 0
70 1080 m 0
 70 1366 244 1520 470 1520 c 0
 696 1520 870 1366 870 1080 c 0
 870 794 656 640 470 640 c 0
 244 640 70 794 70 1080 c 0
290 1080 m 0
 290 876 322 740 470 740 c 0
 618 740 650 876 650 1080 c 0
 650 1284 618 1420 470 1420 c 0
 322 1420 290 1284 290 1080 c 0
1430 1500 m 2
 1487 1500 l 2
 1522 1500 1520 1490 1506 1468 c 2
 625 28 l 2
 612 7 602 0 567 0 c 2
 514 0 l 2
 475 0 484 23 495 41 c 2
 1388 1478 l 2
 1396 1492 1407 1500 1430 1500 c 2
1130 420 m 0
 1130 706 1304 860 1530 860 c 0
 1756 860 1930 706 1930 420 c 0
 1930 134 1716 -20 1530 -20 c 0
 1304 -20 1130 134 1130 420 c 0
1350 420 m 0
 1350 216 1382 80 1530 80 c 0
 1678 80 1710 216 1710 420 c 0
 1710 624 1678 760 1530 760 c 0
 1382 760 1350 624 1350 420 c 0
EndSplineSet
EndChar

StartChar: uni2031
Encoding: 8241 8241 107
Width: 3800
Flags: MW
LayerCount: 2
Fore
SplineSet
2930 420 m 0
 2930 706 3104 860 3330 860 c 0
 3556 860 3730 706 3730 420 c 0
 3730 134 3516 -20 3330 -20 c 0
 3104 -20 2930 134 2930 420 c 0
3150 420 m 0
 3150 216 3182 80 3330 80 c 0
 3478 80 3510 216 3510 420 c 0
 3510 624 3478 760 3330 760 c 0
 3182 760 3150 624 3150 420 c 0
2030 420 m 0
 2030 706 2204 860 2430 860 c 0
 2656 860 2830 706 2830 420 c 0
 2830 134 2616 -20 2430 -20 c 0
 2204 -20 2030 134 2030 420 c 0
2250 420 m 0
 2250 216 2282 80 2430 80 c 0
 2578 80 2610 216 2610 420 c 0
 2610 624 2578 760 2430 760 c 0
 2282 760 2250 624 2250 420 c 0
70 1080 m 0
 70 1366 244 1520 470 1520 c 0
 696 1520 870 1366 870 1080 c 0
 870 794 656 640 470 640 c 0
 244 640 70 794 70 1080 c 0
290 1080 m 0
 290 876 322 740 470 740 c 0
 618 740 650 876 650 1080 c 0
 650 1284 618 1420 470 1420 c 0
 322 1420 290 1284 290 1080 c 0
1430 1500 m 2
 1487 1500 l 2
 1522 1500 1520 1490 1506 1468 c 2
 625 28 l 2
 612 7 602 0 567 0 c 2
 514 0 l 2
 475 0 484 23 495 41 c 2
 1388 1478 l 2
 1396 1492 1407 1500 1430 1500 c 2
1130 420 m 0
 1130 706 1304 860 1530 860 c 0
 1756 860 1930 706 1930 420 c 0
 1930 134 1716 -20 1530 -20 c 0
 1304 -20 1130 134 1130 420 c 0
1350 420 m 0
 1350 216 1382 80 1530 80 c 0
 1678 80 1710 216 1710 420 c 0
 1710 624 1678 760 1530 760 c 0
 1382 760 1350 624 1350 420 c 0
EndSplineSet
EndChar

StartChar: uniFB00
Encoding: 64256 64256 108
Width: 1500
Flags: MW
LayerCount: 2
Fore
SplineSet
60 29 m 2
 60 75 l 2
 60 105 67 110 95 110 c 2
 212 110 l 2
 240 110 240 111 240 139 c 2
 240 898 l 2
 240 923 235 930 211 930 c 2
 82 930 l 2
 63 930 60 938 60 958 c 2
 60 1003 l 2
 60 1032 63 1040 91 1040 c 2
 212 1040 l 2
 233 1040 240 1044 240 1064 c 2
 240 1104 l 2
 240 1366 414 1540 674 1540 c 0
 804 1540 907 1494 963 1431 c 0
 973 1419 975 1412 982 1412 c 0
 990 1412 990 1420 1001 1438 c 0
 1064 1542 1175 1600 1334 1600 c 0
 1536 1600 1670 1512 1670 1398 c 0
 1670 1312 1622 1266 1552 1266 c 0
 1482 1266 1436 1306 1436 1362 c 0
 1436 1422 1478 1436 1478 1476 c 0
 1478 1500 1442 1530 1358 1530 c 0
 1178 1530 1120 1394 1120 1140 c 2
 1120 1060 l 2
 1120 1031 1139 1040 1165 1040 c 2
 1371 1040 l 2
 1392 1040 1400 1037 1400 1017 c 2
 1400 959 l 2
 1400 934 1388 930 1365 930 c 2
 1155 930 l 2
 1127 930 1120 925 1120 895 c 2
 1120 146 l 2
 1120 115 1127 110 1156 110 c 2
 1331 110 l 2
 1357 110 1360 103 1360 76 c 2
 1360 36 l 2
 1360 7 1356 0 1327 0 c 2
 792 0 l 2
 766 0 760 5 760 33 c 2
 760 83 l 2
 760 103 765 110 784 110 c 2
 915 110 l 2
 938 110 940 118 940 142 c 2
 940 908 l 2
 940 927 932 930 912 930 c 2
 455 930 l 2
 425 930 420 924 420 892 c 2
 420 140 l 2
 420 116 426 110 451 110 c 2
 631 110 l 2
 657 110 660 103 660 76 c 2
 660 25 l 2
 660 0 660 0 635 0 c 2
 83 0 l 2
 63 0 60 8 60 29 c 2
447 1040 m 2
 906 1040 l 2
 940 1040 940 1041 940 1075 c 2
 940 1170 l 2
 940 1205 929 1188 905 1185 c 0
 837 1176 776 1224 776 1282 c 0
 776 1342 818 1356 818 1396 c 0
 818 1420 762 1450 678 1450 c 0
 498 1450 420 1314 420 1070 c 0
 420 1047 425 1040 447 1040 c 2
EndSplineSet
LCarets2: 1 0
Ligature2: "'liga' Standard Ligatures lookup 4 subtable" f f
EndChar

StartChar: uniFB01
Encoding: 64257 64257 109
Width: 1290
Flags: MW
LayerCount: 2
Fore
SplineSet
420 874 m 2
 420 158 l 2
 420 113 427 110 473 110 c 2
 619 110 l 2
 651 110 660 108 660 76 c 2
 660 35 l 2
 660 4 643 0 615 0 c 2
 97 0 l 2
 65 0 60 6 60 40 c 2
 60 72 l 2
 60 104 64 110 95 110 c 2
 187 110 l 2
 233 110 240 113 240 158 c 2
 240 884 l 2
 240 927 233 930 189 930 c 2
 107 930 l 2
 69 930 60 932 60 970 c 2
 60 1004 l 2
 60 1038 74 1040 105 1040 c 2
 193 1040 l 2
 233 1040 240 1045 240 1086 c 2
 240 1144 l 2
 240 1406 374 1580 674 1580 c 0
 916 1580 1050 1472 1050 1358 c 0
 1050 1272 1002 1226 932 1226 c 0
 862 1226 816 1266 816 1322 c 0
 816 1382 858 1396 858 1436 c 0
 858 1460 822 1490 698 1490 c 0
 498 1490 420 1374 420 1100 c 2
 420 1088 l 2
 420 1047 423 1040 463 1040 c 2
 1041 1040 l 2
 1078 1040 1080 1032 1080 994 c 2
 1080 152 l 2
 1080 111 1089 110 1131 110 c 2
 1233 110 l 2
 1258 110 1260 102 1260 76 c 2
 1260 38 l 2
 1260 8 1255 0 1223 0 c 2
 759 0 l 2
 721 0 720 9 720 48 c 2
 720 72 l 2
 720 104 724 110 755 110 c 2
 859 110 l 2
 895 110 900 116 900 154 c 2
 900 884 l 2
 900 920 899 930 863 930 c 2
 473 930 l 2
 425 930 420 924 420 874 c 2
EndSplineSet
LCarets2: 1 0
Ligature2: "'liga' Standard Ligatures lookup 4 subtable" f i
EndChar

StartChar: uniFB02
Encoding: 64258 64258 110
Width: 1360
Flags: MW
LayerCount: 2
Fore
SplineSet
420 888 m 2
 420 156 l 2
 420 112 431 110 472 110 c 2
 628 110 l 2
 657 110 660 102 660 72 c 2
 660 36 l 2
 660 6 655 0 626 0 c 2
 92 0 l 2
 67 0 60 4 60 28 c 2
 60 80 l 2
 60 109 64 110 93 110 c 2
 200 110 l 2
 237 110 240 120 240 154 c 2
 240 896 l 2
 240 930 230 930 196 930 c 2
 100 930 l 2
 70 930 60 934 60 966 c 2
 60 1006 l 2
 60 1035 67 1040 94 1040 c 2
 198 1040 l 2
 235 1040 240 1046 240 1084 c 2
 240 1144 l 2
 240 1406 394 1580 694 1580 c 0
 802 1580 886 1558 944 1524 c 0
 995 1492 991 1477 1040 1515 c 2
 1096 1558 l 2
 1138 1591 1150 1589 1150 1502 c 2
 1150 160 l 2
 1150 115 1156 110 1200 110 c 2
 1306 110 l 2
 1325 110 1330 101 1330 84 c 2
 1330 36 l 2
 1330 1 1314 0 1282 0 c 2
 826 0 l 2
 797 0 790 5 790 36 c 2
 790 72 l 2
 790 110 808 110 842 110 c 2
 924 110 l 2
 962 110 970 113 970 150 c 2
 970 1188 l 2
 970 1220 962 1226 930 1226 c 0
 866 1226 816 1266 816 1322 c 0
 816 1382 858 1396 858 1436 c 0
 858 1460 822 1490 698 1490 c 0
 478 1490 420 1354 420 1100 c 2
 420 1084 l 2
 420 1047 424 1040 460 1040 c 2
 659 1040 l 2
 695 1040 700 1034 700 996 c 2
 700 966 l 2
 700 935 693 930 664 930 c 2
 454 930 l 2
 421 930 420 921 420 888 c 2
EndSplineSet
LCarets2: 1 0
Ligature2: "'liga' Standard Ligatures lookup 4 subtable" f l
EndChar

StartChar: uniFB03
Encoding: 64259 64259 111
Width: 1990
Flags: MW
LayerCount: 2
Fore
SplineSet
453 1040 m 2
 903 1040 l 2
 938 1040 940 1049 940 1084 c 2
 942 1166 l 2
 943 1209 920 1185 889 1185 c 0
 828 1186 776 1228 776 1282 c 0
 776 1342 818 1356 818 1396 c 0
 818 1420 762 1450 678 1450 c 0
 498 1450 420 1314 420 1070 c 0
 420 1044 429 1040 453 1040 c 2
60 31 m 2
 60 77 l 2
 60 104 66 110 92 110 c 2
 195 110 l 2
 236 110 240 119 240 158 c 2
 240 894 l 2
 240 923 237 930 209 930 c 2
 89 930 l 2
 66 930 60 936 60 960 c 2
 60 1016 l 2
 60 1037 76 1040 94 1040 c 2
 206 1040 l 2
 234 1040 240 1045 240 1072 c 2
 241 1144 l 2
 243 1385 427 1540 674 1540 c 0
 806 1540 910 1493 965 1429 c 0
 1004 1383 990 1387 1026 1436 c 0
 1101 1537 1224 1600 1394 1600 c 0
 1636 1600 1750 1472 1750 1358 c 0
 1750 1272 1702 1226 1632 1226 c 0
 1562 1226 1516 1266 1516 1322 c 0
 1516 1382 1558 1396 1558 1436 c 0
 1558 1460 1522 1530 1398 1530 c 0
 1178 1530 1120 1354 1120 1100 c 2
 1120 1074 l 2
 1120 1041 1138 1040 1168 1040 c 2
 1741 1040 l 2
 1771 1040 1780 1036 1780 1004 c 2
 1780 149 l 2
 1780 117 1785 110 1819 110 c 2
 1933 110 l 2
 1955 110 1960 103 1960 80 c 2
 1960 39 l 2
 1960 8 1957 0 1927 0 c 2
 1454 0 l 2
 1423 0 1420 7 1420 39 c 2
 1420 83 l 2
 1420 105 1427 110 1450 110 c 2
 1565 110 l 2
 1595 110 1600 117 1600 145 c 2
 1600 894 l 2
 1600 930 1600 930 1564 930 c 2
 1156 930 l 2
 1125 930 1120 924 1120 892 c 2
 1120 143 l 2
 1120 111 1129 110 1162 110 c 2
 1321 110 l 2
 1345 110 1360 108 1360 81 c 2
 1360 41 l 2
 1360 6 1356 0 1322 0 c 2
 794 0 l 2
 764 0 760 7 760 38 c 2
 760 84 l 2
 760 105 766 110 789 110 c 2
 903 110 l 2
 932 110 940 115 940 146 c 2
 940 882 l 2
 940 927 930 930 887 930 c 2
 457 930 l 2
 425 930 420 924 420 890 c 2
 420 146 l 2
 420 111 429 110 464 110 c 2
 614 110 l 2
 643 110 660 109 660 77 c 2
 660 34 l 2
 660 4 652 0 624 0 c 2
 97 0 l 2
 68 0 60 3 60 31 c 2
EndSplineSet
LCarets2: 2 0 0
Ligature2: "'liga' Standard Ligatures lookup 4 subtable" f f i
EndChar

StartChar: uniFB04
Encoding: 64260 64260 112
Width: 1990
Flags: MW
LayerCount: 2
Fore
SplineSet
453 1040 m 2
 890 1040 l 2
 936 1040 940 1047 941 1091 c 2
 941 1136 l 2
 942 1192 948 1190 904 1186 c 0
 836 1179 776 1223 776 1282 c 0
 776 1342 818 1356 818 1396 c 0
 818 1420 762 1450 678 1450 c 0
 498 1450 420 1314 420 1070 c 0
 420 1044 429 1040 453 1040 c 2
60 45 m 2
 60 65 l 2
 60 100 63 110 100 110 c 2
 190 110 l 2
 230 110 240 111 240 151 c 2
 240 903 l 2
 240 925 232 930 212 930 c 2
 92 930 l 2
 66 930 60 935 60 963 c 2
 60 1009 l 2
 60 1038 68 1040 98 1040 c 2
 202 1040 l 2
 239 1040 240 1050 240 1087 c 2
 241 1144 l 2
 243 1385 427 1540 674 1540 c 0
 809 1540 913 1491 968 1425 c 0
 1001 1385 989 1384 1020 1428 c 0
 1094 1534 1219 1600 1394 1600 c 0
 1504 1600 1587 1574 1646 1534 c 0
 1671 1517 1670 1514 1694 1533 c 2
 1736 1566 l 2
 1768 1591 1780 1617 1780 1549 c 2
 1780 163 l 2
 1780 120 1781 110 1824 110 c 2
 1928 110 l 2
 1953 110 1960 107 1960 83 c 2
 1960 43 l 2
 1960 5 1953 0 1916 0 c 2
 1460 0 l 2
 1425 0 1420 8 1420 41 c 2
 1420 61 l 2
 1420 100 1421 110 1460 110 c 2
 1550 110 l 2
 1594 110 1600 115 1600 161 c 2
 1600 1203 l 2
 1600 1238 1585 1230 1564 1242 c 0
 1534 1259 1516 1287 1516 1322 c 0
 1516 1382 1558 1396 1558 1436 c 0
 1558 1460 1522 1530 1398 1530 c 0
 1178 1530 1120 1354 1120 1100 c 2
 1120 1087 l 2
 1120 1050 1121 1040 1158 1040 c 2
 1362 1040 l 2
 1404 1040 1420 1030 1420 985 c 2
 1420 971 l 2
 1420 933 1410 930 1374 930 c 2
 1152 930 l 2
 1125 930 1120 924 1120 895 c 2
 1120 173 l 2
 1120 114 1127 110 1184 110 c 2
 1316 110 l 2
 1348 110 1360 108 1360 73 c 2
 1360 35 l 2
 1360 5 1354 0 1326 0 c 2
 800 0 l 2
 774 0 760 2 760 31 c 2
 760 71 l 2
 760 105 766 110 802 110 c 2
 884 110 l 2
 935 110 940 116 940 165 c 2
 940 883 l 2
 940 924 935 930 896 930 c 2
 470 930 l 2
 427 930 420 927 420 885 c 2
 420 163 l 2
 420 111 424 110 477 110 c 2
 614 110 l 2
 641 110 660 109 660 79 c 2
 660 45 l 2
 660 9 658 0 622 0 c 2
 100 0 l 2
 63 0 60 7 60 45 c 2
EndSplineSet
LCarets2: 2 0 0
Ligature2: "'liga' Standard Ligatures lookup 4 subtable" f f l
EndChar

StartChar: R.alt
Encoding: 65536 -1 113
Width: 1545
Flags: MW
LayerCount: 2
Fore
SplineSet
543 810 m 2
 865 810 l 2
 1017 810 1165 902 1165 1100 c 0
 1165 1298 1017 1390 865 1390 c 2
 531 1390 l 2
 490 1390 485 1384 485 1342 c 2
 485 862 l 2
 485 812 496 810 543 810 c 2
1469 0 m 2
 1355 0 l 2
 929 0 1298 690 845 690 c 2
 539 690 l 2
 494 690 485 689 485 644 c 2
 485 150 l 2
 485 118 489 110 523 110 c 2
 671 110 l 2
 700 110 705 104 705 74 c 2
 705 42 l 2
 705 3 694 0 657 0 c 2
 109 0 l 2
 80 0 75 6 75 36 c 2
 75 66 l 2
 75 104 80 110 117 110 c 2
 251 110 l 2
 291 110 295 118 295 156 c 2
 295 1354 l 2
 295 1381 294 1390 267 1390 c 2
 107 1390 l 2
 85 1390 75 1400 75 1422 c 2
 75 1466 l 2
 75 1492 78 1500 103 1500 c 2
 865 1500 l 2
 1227 1500 1365 1320 1365 1100 c 0
 1365 944 1305 824 1134 764 c 0
 1103 753 1098 730 1125 717 c 0
 1434 567 1217 110 1407 110 c 2
 1467 110 l 2
 1493 110 1505 107 1505 78 c 2
 1505 36 l 2
 1505 5 1498 0 1469 0 c 2
EndSplineSet
EndChar

StartChar: zero.oldstyle
Encoding: 65537 -1 114
Width: 1080
Flags: MW
LayerCount: 2
Fore
SplineSet
80 520 m 0
 80 886 294 1060 540 1060 c 0
 806 1060 1000 886 1000 520 c 0
 1000 154 766 -20 540 -20 c 0
 294 -20 80 154 80 520 c 0
300 520 m 0
 300 236 372 80 540 80 c 0
 728 80 780 236 780 520 c 0
 780 804 728 960 540 960 c 0
 372 960 300 804 300 520 c 0
EndSplineSet
Substitution2: "'tnum' Tabular Numbers lookup 6 subtable" zero.oldtab
EndChar

StartChar: one.oldstyle
Encoding: 65538 -1 115
Width: 1050
Flags: MW
LayerCount: 2
Fore
SplineSet
100 28 m 2
 100 80 l 2
 100 105 107 110 130 110 c 2
 410 110 l 2
 434 110 440 116 440 139 c 2
 440 776 l 2
 440 811 439 820 404 820 c 2
 170 820 l 2
 140 820 134 826 134 857 c 2
 134 892 l 2
 134 920 134 930 162 930 c 0
 364 931 438 945 529 1154 c 0
 537 1172 540 1180 567 1180 c 2
 600 1180 l 2
 629 1180 630 1171 630 1141 c 2
 630 150 l 2
 630 117 634 110 666 110 c 2
 918 110 l 2
 941 110 950 109 950 86 c 2
 950 31 l 2
 950 1 941 0 910 0 c 2
 130 0 l 2
 109 0 100 5 100 28 c 2
EndSplineSet
Substitution2: "'tnum' Tabular Numbers lookup 6 subtable" one.oldtab
EndChar

StartChar: two.oldstyle
Encoding: 65539 -1 116
Width: 1090
Flags: MW
LayerCount: 2
Fore
SplineSet
1020 290 m 0
 1014 19 913 -60 740 -60 c 0
 526 -60 476 60 310 60 c 0
 241 60 208 31 188 -14 c 0
 178 -37 172 -40 137 -40 c 2
 108 -40 l 2
 86 -40 79 -34 80 -14 c 0
 91 265 275 440 504 538 c 0
 710 626 774 712 774 840 c 0
 774 988 702 1056 544 1056 c 0
 396 1056 290 998 290 944 c 0
 290 898 354 888 354 816 c 0
 354 742 294 700 240 700 c 0
 182 700 112 736 112 832 c 0
 112 996 300 1140 544 1140 c 0
 786 1140 996 1040 996 820 c 0
 996 660 862 519 534 420 c 0
 415 384 315 309 250 214 c 0
 225 178 210 150 215 144 c 0
 220 138 233 162 272 177 c 0
 302 188 337 194 380 194 c 0
 580 194 600 126 752 126 c 0
 869 126 918 181 925 287 c 0
 927 312 932 314 959 314 c 2
 989 314 l 2
 1013 314 1020 314 1020 290 c 0
EndSplineSet
Substitution2: "'tnum' Tabular Numbers lookup 6 subtable" two.oldtab
EndChar

StartChar: three.oldstyle
Encoding: 65540 -1 117
Width: 1060
Flags: MW
LayerCount: 2
Fore
SplineSet
50 -162 m 0
 50 -66 120 -30 178 -30 c 0
 232 -30 292 -72 292 -146 c 0
 292 -218 228 -228 228 -274 c 0
 228 -328 314 -396 482 -396 c 0
 700 -396 778 -228 778 -80 c 0
 778 54 732 225 474 257 c 0
 428 263 384 243 384 302 c 2
 384 320 l 2
 384 379 429 359 474 366 c 0
 725 404 738 606 738 722 c 0
 738 870 660 976 482 976 c 0
 354 976 288 910 288 856 c 0
 288 810 352 800 352 728 c 0
 352 654 292 612 238 612 c 0
 180 612 110 648 110 744 c 0
 110 908 238 1060 522 1060 c 0
 724 1060 940 962 940 722 c 0
 940 586 906 436 732 354 c 0
 657 319 646 332 646 310 c 0
 646 294 684 298 726 283 c 0
 924 213 980 74 980 -80 c 0
 980 -300 804 -480 502 -480 c 0
 198 -480 50 -326 50 -162 c 0
EndSplineSet
Substitution2: "'tnum' Tabular Numbers lookup 6 subtable" three.oldtab
EndChar

StartChar: four.oldstyle
Encoding: 65541 -1 118
Width: 1080
Flags: MW
LayerCount: 2
Fore
SplineSet
1030 -376 m 2
 1030 -434 l 2
 1030 -457 1023 -460 999 -460 c 2
 532 -460 l 2
 507 -460 500 -455 500 -428 c 2
 500 -383 l 2
 500 -357 505 -350 530 -350 c 2
 662 -350 l 2
 683 -350 690 -345 690 -325 c 2
 690 -38 l 2
 690 -7 687 0 657 0 c 2
 154 0 l 2
 124 0 117 3 103 17 c 2
 77 43 l 2
 58 62 63 68 74 95 c 0
 214 426 626 590 728 987 c 0
 736 1017 728 1040 769 1040 c 2
 878 1040 l 2
 919 1040 927 1036 922 999 c 0
 867 587 392 414 234 158 c 0
 215 127 223 110 280 110 c 2
 672 110 l 2
 693 110 690 115 690 135 c 2
 690 260 l 2
 690 293 698 292 715 305 c 0
 762 341 790 388 820 478 c 0
 826 495 823 510 848 510 c 2
 854 510 l 2
 880 510 880 503 880 479 c 2
 880 154 l 2
 880 116 885 110 922 110 c 2
 1029 110 l 2
 1056 110 1060 103 1060 75 c 2
 1060 30 l 2
 1060 3 1052 0 1024 0 c 2
 915 0 l 2
 884 0 880 -10 880 -39 c 2
 880 -314 l 2
 880 -345 886 -350 918 -350 c 2
 995 -350 l 2
 1020 -350 1030 -351 1030 -376 c 2
EndSplineSet
Substitution2: "'tnum' Tabular Numbers lookup 6 subtable" four.oldtab
EndChar

StartChar: five.oldstyle
Encoding: 65542 -1 119
Width: 1030
Flags: MW
LayerCount: 2
Fore
SplineSet
60 -182 m 0
 60 -86 130 -50 188 -50 c 0
 242 -50 302 -92 302 -166 c 0
 302 -238 238 -248 238 -294 c 0
 238 -348 324 -396 432 -396 c 0
 630 -396 768 -208 768 0 c 0
 768 268 650 442 472 442 c 0
 359 442 296 419 234 343 c 0
 218 324 211 314 173 314 c 2
 131 314 l 2
 93 314 96 328 100 358 c 2
 183 1002 l 2
 187 1033 194 1040 228 1040 c 2
 474 1040 l 2
 696 1040 738 1009 798 1076 c 0
 808 1087 812 1104 837 1104 c 2
 894 1104 l 2
 908 1104 911 1102 908 1090 c 2
 896 1040 l 2
 860 876 824 860 350 860 c 2
 306 860 l 2
 276 860 265 856 261 828 c 2
 219 506 l 2
 213 458 203 434 211 430 c 0
 224 424 230 446 266 474 c 0
 317 514 388 540 496 540 c 0
 818 540 970 320 970 40 c 0
 970 -260 734 -480 452 -480 c 0
 208 -480 60 -346 60 -182 c 0
EndSplineSet
Substitution2: "'tnum' Tabular Numbers lookup 6 subtable" five.oldtab
EndChar

StartChar: seven.oldstyle
Encoding: 65543 -1 120
Width: 1048
Flags: MW
LayerCount: 2
Fore
SplineSet
80 702 m 0
 84 979 185 1060 360 1060 c 0
 554 1060 624 940 790 940 c 0
 864 940 896 973 916 1023 c 0
 921 1036 922 1040 941 1040 c 2
 1010 1040 l 2
 1033 1040 1029 1034 1026 1013 c 0
 1002 863 805 537 676 276 c 0
 584 88 568 12 568 -76 c 0
 568 -222 634 -252 634 -344 c 0
 634 -418 594 -480 506 -480 c 0
 428 -480 374 -406 374 -268 c 0
 374 -90 426 94 558 302 c 0
 649 446 760 637 833 794 c 0
 843 815 855 831 850 836 c 0
 845 841 833 823 812 817 c 0
 786 809 756 806 720 806 c 0
 520 806 500 874 348 874 c 0
 227 874 178 821 174 706 c 0
 174 691 173 686 158 686 c 2
 102 686 l 2
 87 686 80 687 80 702 c 0
EndSplineSet
Substitution2: "'tnum' Tabular Numbers lookup 6 subtable" seven.oldtab
EndChar

StartChar: nine.oldstyle
Encoding: 65544 -1 121
Width: 1100
Flags: MW
LayerCount: 2
Fore
SplineSet
354 -342 m 0
 354 -368 384 -396 462 -396 c 0
 694 -396 781 -163 797 180 c 0
 799 213 803 226 796 230 c 0
 788 234 784 220 767 201 c 0
 700 127 600 80 468 80 c 0
 246 80 60 240 60 570 c 0
 60 890 240 1060 522 1060 c 0
 844 1060 1000 870 1000 300 c 0
 1000 -180 794 -480 472 -480 c 0
 308 -480 160 -406 160 -242 c 0
 160 -146 230 -110 288 -110 c 0
 342 -110 402 -152 402 -226 c 0
 402 -298 354 -316 354 -342 c 0
260 570 m 0
 260 342 354 178 512 178 c 0
 678 178 800 320 800 480 c 0
 800 778 700 970 502 970 c 0
 324 970 260 788 260 570 c 0
EndSplineSet
Substitution2: "'tnum' Tabular Numbers lookup 6 subtable" nine.oldtab
EndChar

StartChar: zero.oldtab
Encoding: 65545 -1 122
Width: 1100
Flags: MW
LayerCount: 2
Fore
SplineSet
90 520 m 0
 90 886 304 1060 550 1060 c 0
 816 1060 1010 886 1010 520 c 0
 1010 154 776 -20 550 -20 c 0
 304 -20 90 154 90 520 c 0
310 520 m 0
 310 236 382 80 550 80 c 0
 738 80 790 236 790 520 c 0
 790 804 738 960 550 960 c 0
 382 960 310 804 310 520 c 0
EndSplineSet
EndChar

StartChar: one.oldtab
Encoding: 65546 -1 123
Width: 1100
Flags: MW
LayerCount: 2
Fore
SplineSet
125 28 m 2
 125 80 l 2
 125 105 132 110 155 110 c 2
 435 110 l 2
 459 110 465 116 465 139 c 2
 465 776 l 2
 465 811 464 820 429 820 c 2
 195 820 l 2
 165 820 159 826 159 857 c 2
 159 892 l 2
 159 920 159 930 187 930 c 0
 389 931 463 945 554 1154 c 0
 562 1172 565 1180 592 1180 c 2
 625 1180 l 2
 654 1180 655 1171 655 1141 c 2
 655 150 l 2
 655 117 659 110 691 110 c 2
 943 110 l 2
 966 110 975 109 975 86 c 2
 975 31 l 2
 975 1 966 0 935 0 c 2
 155 0 l 2
 134 0 125 5 125 28 c 2
EndSplineSet
EndChar

StartChar: two.oldtab
Encoding: 65547 -1 124
Width: 1100
Flags: MW
LayerCount: 2
Fore
SplineSet
1025 290 m 0
 1019 19 918 -60 745 -60 c 0
 531 -60 481 60 315 60 c 0
 246 60 213 31 193 -14 c 0
 183 -37 177 -40 142 -40 c 2
 113 -40 l 2
 91 -40 84 -34 85 -14 c 0
 96 265 280 440 509 538 c 0
 715 626 779 712 779 840 c 0
 779 988 707 1056 549 1056 c 0
 401 1056 295 998 295 944 c 0
 295 898 359 888 359 816 c 0
 359 742 299 700 245 700 c 0
 187 700 117 736 117 832 c 0
 117 996 305 1140 549 1140 c 0
 791 1140 1001 1040 1001 820 c 0
 1001 660 867 519 539 420 c 0
 420 384 320 309 255 214 c 0
 230 178 215 150 220 144 c 0
 225 138 238 162 277 177 c 0
 307 188 342 194 385 194 c 0
 585 194 605 126 757 126 c 0
 874 126 923 181 930 287 c 0
 932 312 937 314 964 314 c 2
 994 314 l 2
 1018 314 1025 314 1025 290 c 0
EndSplineSet
EndChar

StartChar: three.oldtab
Encoding: 65548 -1 125
Width: 1100
Flags: MW
LayerCount: 2
Fore
SplineSet
70 -162 m 0
 70 -66 140 -30 198 -30 c 0
 252 -30 312 -72 312 -146 c 0
 312 -218 248 -228 248 -274 c 0
 248 -328 334 -396 502 -396 c 0
 720 -396 798 -228 798 -80 c 0
 798 54 752 225 494 257 c 0
 448 263 404 243 404 302 c 2
 404 320 l 2
 404 379 449 359 494 366 c 0
 745 404 758 606 758 722 c 0
 758 870 680 976 502 976 c 0
 374 976 308 910 308 856 c 0
 308 810 372 800 372 728 c 0
 372 654 312 612 258 612 c 0
 200 612 130 648 130 744 c 0
 130 908 258 1060 542 1060 c 0
 744 1060 960 962 960 722 c 0
 960 586 926 436 752 354 c 0
 677 319 666 332 666 310 c 0
 666 294 704 298 746 283 c 0
 944 213 1000 74 1000 -80 c 0
 1000 -300 824 -480 522 -480 c 0
 218 -480 70 -326 70 -162 c 0
EndSplineSet
EndChar

StartChar: four.oldtab
Encoding: 65549 -1 126
Width: 1100
Flags: MW
LayerCount: 2
Fore
SplineSet
1040 -376 m 2
 1040 -434 l 2
 1040 -457 1033 -460 1009 -460 c 2
 542 -460 l 2
 517 -460 510 -455 510 -428 c 2
 510 -383 l 2
 510 -357 515 -350 540 -350 c 2
 672 -350 l 2
 693 -350 700 -345 700 -325 c 2
 700 -38 l 2
 700 -7 697 0 667 0 c 2
 164 0 l 2
 134 0 127 3 113 17 c 2
 87 43 l 2
 68 62 73 68 84 95 c 0
 224 426 636 590 738 987 c 0
 746 1017 738 1040 779 1040 c 2
 888 1040 l 2
 929 1040 937 1036 932 999 c 0
 877 587 402 414 244 158 c 0
 225 127 233 110 290 110 c 2
 682 110 l 2
 703 110 700 115 700 135 c 2
 700 260 l 2
 700 293 708 292 725 305 c 0
 772 341 800 388 830 478 c 0
 836 495 833 510 858 510 c 2
 864 510 l 2
 890 510 890 503 890 479 c 2
 890 154 l 2
 890 116 895 110 932 110 c 2
 1039 110 l 2
 1066 110 1070 103 1070 75 c 2
 1070 30 l 2
 1070 3 1062 0 1034 0 c 2
 925 0 l 2
 894 0 890 -10 890 -39 c 2
 890 -314 l 2
 890 -345 896 -350 928 -350 c 2
 1005 -350 l 2
 1030 -350 1040 -351 1040 -376 c 2
EndSplineSet
EndChar

StartChar: five.oldtab
Encoding: 65550 -1 127
Width: 1100
Flags: MW
LayerCount: 2
Fore
SplineSet
95 -182 m 0
 95 -86 165 -50 223 -50 c 0
 277 -50 337 -92 337 -166 c 0
 337 -238 273 -248 273 -294 c 0
 273 -348 359 -396 467 -396 c 0
 665 -396 803 -208 803 0 c 0
 803 268 685 442 507 442 c 0
 394 442 331 419 269 343 c 0
 253 324 246 314 208 314 c 2
 166 314 l 2
 128 314 131 328 135 358 c 2
 218 1002 l 2
 222 1033 229 1040 263 1040 c 2
 509 1040 l 2
 731 1040 773 1009 833 1076 c 0
 843 1087 847 1104 872 1104 c 2
 929 1104 l 2
 943 1104 946 1102 943 1090 c 2
 931 1040 l 2
 895 876 859 860 385 860 c 2
 341 860 l 2
 311 860 300 856 296 828 c 2
 254 506 l 2
 248 458 238 434 246 430 c 0
 259 424 265 446 301 474 c 0
 352 514 423 540 531 540 c 0
 853 540 1005 320 1005 40 c 0
 1005 -260 769 -480 487 -480 c 0
 243 -480 95 -346 95 -182 c 0
EndSplineSet
EndChar

StartChar: seven.oldtab
Encoding: 65551 -1 128
Width: 1100
Flags: MW
LayerCount: 2
Fore
SplineSet
106 702 m 0
 110 979 211 1060 386 1060 c 0
 580 1060 650 940 816 940 c 0
 890 940 922 973 942 1023 c 0
 947 1036 948 1040 967 1040 c 2
 1036 1040 l 2
 1059 1040 1055 1034 1052 1013 c 0
 1028 863 831 537 702 276 c 0
 610 88 594 12 594 -76 c 0
 594 -222 660 -252 660 -344 c 0
 660 -418 620 -480 532 -480 c 0
 454 -480 400 -406 400 -268 c 0
 400 -90 452 94 584 302 c 0
 675 446 786 637 859 794 c 0
 869 815 881 831 876 836 c 0
 871 841 859 823 838 817 c 0
 812 809 782 806 746 806 c 0
 546 806 526 874 374 874 c 0
 253 874 204 821 200 706 c 0
 200 691 199 686 184 686 c 2
 128 686 l 2
 113 686 106 687 106 702 c 0
EndSplineSet
EndChar

StartChar: nine.oldtab
Encoding: 65552 -1 129
Width: 1100
Flags: MW
LayerCount: 2
Fore
SplineSet
354 -342 m 0
 354 -368 384 -396 462 -396 c 0
 694 -396 781 -163 797 180 c 0
 799 213 803 226 796 230 c 0
 788 234 784 220 767 201 c 0
 700 127 600 80 468 80 c 0
 246 80 60 240 60 570 c 0
 60 890 240 1060 522 1060 c 0
 844 1060 1000 870 1000 300 c 0
 1000 -180 794 -480 472 -480 c 0
 308 -480 160 -406 160 -242 c 0
 160 -146 230 -110 288 -110 c 0
 342 -110 402 -152 402 -226 c 0
 402 -298 354 -316 354 -342 c 0
260 570 m 0
 260 342 354 178 512 178 c 0
 678 178 800 320 800 480 c 0
 800 778 700 970 502 970 c 0
 324 970 260 788 260 570 c 0
EndSplineSet
EndChar

StartChar: uniFF10
Encoding: 65296 65296 130
Width: 1100
Flags: MW
LayerCount: 2
Fore
SplineSet
91 750 m 0
 91 1316 329 1520 550 1520 c 0
 789 1520 1009 1316 1009 750 c 0
 1009 184 753 -20 550 -20 c 0
 329 -20 91 184 91 750 c 0
289 750 m 0
 289 266 399 80 550 80 c 0
 719 80 811 266 811 750 c 0
 811 1234 719 1420 550 1420 c 0
 399 1420 289 1234 289 750 c 0
EndSplineSet
EndChar

StartChar: uniFF19
Encoding: 65305 65305 139
Width: 1100
Flags: MW
LayerCount: 2
Fore
SplineSet
354 118 m 0
 354 92 384 64 462 64 c 0
 694 64 781 297 797 640 c 0
 799 673 803 686 796 690 c 0
 788 694 784 680 767 661 c 0
 700 587 600 540 468 540 c 0
 246 540 60 700 60 1030 c 0
 60 1350 240 1520 522 1520 c 0
 844 1520 1000 1330 1000 760 c 0
 1000 280 794 -20 472 -20 c 0
 308 -20 160 54 160 218 c 0
 160 314 230 350 288 350 c 0
 342 350 402 308 402 234 c 0
 402 162 354 144 354 118 c 0
260 1030 m 0
 260 802 354 638 512 638 c 0
 678 638 800 780 800 940 c 0
 800 1238 700 1430 502 1430 c 0
 324 1430 260 1248 260 1030 c 0
EndSplineSet
EndChar

StartChar: dagger
Encoding: 8224 8224 152
Width: 1186
Flags: MW
LayerCount: 2
Fore
SplineSet
536 1074 m 0
 531 1207 512 1237 495 1361 c 0
 493 1375 493 1386 493 1398 c 0
 493 1476 534 1520 593 1520 c 0
 652 1520 693 1476 693 1398 c 0
 693 1386 693 1375 691 1361 c 0
 674 1238 656 1207 650 1078 c 0
 649 1048 641 1032 675 1035 c 0
 751 1042 815 1058 927 1074 c 0
 941 1076 952 1076 964 1076 c 0
 1042 1076 1086 1035 1086 976 c 0
 1086 917 1042 876 964 876 c 0
 952 876 941 876 927 878 c 0
 821 893 759 907 688 915 c 0
 657 918 647 925 648 889 c 0
 651 740 666 610 714 524 c 0
 729 497 725 495 714 465 c 0
 651 298 648 -17 648 -465 c 0
 648 -489 644 -500 618 -500 c 2
 564 -500 l 2
 543 -500 538 -492 538 -473 c 0
 538 -6 535 318 465 482 c 0
 455 506 466 511 477 533 c 0
 520 617 534 741 537 881 c 0
 538 924 531 919 493 915 c 0
 424 907 362 893 259 878 c 0
 245 876 234 876 222 876 c 0
 144 876 100 917 100 976 c 0
 100 1035 144 1076 222 1076 c 0
 234 1076 245 1076 259 1074 c 0
 359 1060 421 1046 487 1038 c 0
 529 1033 538 1028 536 1074 c 0
EndSplineSet
EndChar

StartChar: daggerdbl
Encoding: 8225 8225 153
Width: 1186
Flags: MW
LayerCount: 2
Fore
SplineSet
536 1056 m 0
 532 1204 513 1231 495 1361 c 0
 493 1375 493 1386 493 1398 c 0
 493 1476 534 1520 593 1520 c 0
 652 1520 693 1476 693 1398 c 0
 693 1386 693 1375 691 1361 c 0
 673 1231 654 1204 650 1056 c 0
 649 1033 650 1033 672 1035 c 0
 749 1042 813 1058 927 1074 c 0
 941 1076 952 1076 964 1076 c 0
 1042 1076 1086 1035 1086 976 c 0
 1086 917 1042 876 964 876 c 0
 952 876 941 876 927 878 c 0
 817 894 753 909 679 916 c 0
 655 918 647 924 648 896 c 0
 651 745 666 613 713 526 c 0
 727 500 727 501 713 474 c 0
 666 387 651 257 648 109 c 0
 647 80 649 80 676 83 c 0
 752 90 815 106 927 122 c 0
 941 124 952 124 964 124 c 0
 1042 124 1086 83 1086 24 c 0
 1086 -35 1042 -76 964 -76 c 0
 952 -76 941 -76 927 -74 c 0
 821 -59 758 -44 688 -36 c 0
 653 -32 649 -30 650 -68 c 0
 655 -206 673 -235 691 -361 c 0
 693 -375 693 -386 693 -398 c 0
 693 -476 652 -520 593 -520 c 0
 534 -520 493 -476 493 -398 c 0
 493 -386 493 -375 495 -361 c 0
 513 -233 531 -205 536 -60 c 0
 537 -27 527 -33 498 -36 c 0
 428 -44 365 -59 259 -74 c 0
 245 -76 234 -76 222 -76 c 0
 144 -76 100 -35 100 24 c 0
 100 83 144 124 222 124 c 0
 234 124 245 124 259 122 c 0
 366 107 429 92 501 84 c 0
 526 81 539 74 538 104 c 0
 535 260 519 397 467 484 c 0
 455 505 463 507 474 528 c 0
 519 614 534 741 537 886 c 0
 538 929 521 918 486 914 c 0
 420 906 359 892 259 878 c 0
 245 876 234 876 222 876 c 0
 144 876 100 917 100 976 c 0
 100 1035 144 1076 222 1076 c 0
 234 1076 245 1076 259 1074 c 0
 368 1058 431 1044 504 1036 c 0
 529 1033 537 1027 536 1056 c 0
EndSplineSet
EndChar

StartChar: gravecomb
Encoding: 768 768 156
Width: 0
Flags: MW
AnchorPoint: "Anchor-0" 571 1500 mark 0
LayerCount: 2
Fore
SplineSet
595 1669 m 2
 359 1807 l 2
 325 1827 303 1870 332 1920 c 256
 359 1966 427 1973 464 1936 c 2
 658 1747 l 2
 671 1734 672 1725 659 1711 c 2
 625 1675 l 2
 614 1663 610 1660 595 1669 c 2
EndSplineSet
EndChar

StartChar: acutecomb
Encoding: 769 769 157
Width: 0
Flags: MW
AnchorPoint: "Anchor-0" 429 1500 mark 0
LayerCount: 2
Fore
SplineSet
374 1677 m 2
 340 1713 l 2
 328 1726 328 1734 340 1745 c 2
 536 1936 l 2
 573 1973 641 1966 668 1920 c 256
 697 1870 675 1827 641 1807 c 2
 413 1674 l 2
 395 1663 389 1661 374 1677 c 2
EndSplineSet
EndChar

StartChar: uni0302
Encoding: 770 770 158
Width: 0
Flags: MW
AnchorPoint: "Anchor-0" 499 1500 mark 0
LayerCount: 2
Fore
SplineSet
242 1690 m 2
 220 1714 l 2
 205 1729 205 1729 220 1744 c 2
 408 1932 l 2
 422 1946 432 1949 461 1949 c 2
 546 1949 l 2
 572 1949 580 1944 592 1932 c 2
 784 1740 l 2
 794 1730 796 1730 785 1719 c 2
 752 1686 l 2
 737 1671 737 1673 720 1685 c 2
 525 1830 l 2
 507 1843 493 1844 475 1831 c 2
 278 1684 l 2
 263 1673 255 1677 242 1690 c 2
EndSplineSet
EndChar

StartChar: tildecomb
Encoding: 771 771 159
Width: 0
Flags: MW
AnchorPoint: "Anchor-0" 496 1500 mark 0
LayerCount: 2
Fore
SplineSet
646 1680 m 0
 562 1680 510 1717 468 1759 c 0
 435 1792 397 1838 337 1838 c 0
 262 1838 229 1794 226 1714 c 0
 225 1702 219 1700 206 1700 c 2
 174 1700 l 2
 151 1700 151 1710 153 1730 c 0
 165 1857 250 1954 374 1954 c 0
 458 1954 510 1918 549 1875 c 0
 578 1843 610 1796 663 1796 c 0
 736 1796 769 1837 774 1912 c 0
 775 1928 777 1934 796 1934 c 2
 829 1934 l 2
 847 1934 849 1928 848 1912 c 0
 843 1764 783 1680 646 1680 c 0
EndSplineSet
EndChar

StartChar: uni0304
Encoding: 772 772 160
Width: 0
Flags: MW
AnchorPoint: "Anchor-0" 500 1500 mark 0
LayerCount: 2
Fore
SplineSet
260 1712 m 2
 260 1745 l 2
 260 1764 262 1772 280 1772 c 2
 706 1772 l 2
 731 1772 740 1768 740 1741 c 2
 740 1710 l 2
 740 1689 739 1680 718 1680 c 2
 295 1680 l 2
 269 1680 260 1684 260 1712 c 2
EndSplineSet
EndChar

StartChar: uni0306
Encoding: 774 774 161
Width: 0
Flags: MW
AnchorPoint: "Anchor-0" 499 1500 mark 0
LayerCount: 2
Fore
SplineSet
499 1680 m 256
 327 1680 274 1775 271 1919 c 0
 271 1936 277 1938 294 1938 c 2
 313 1938 l 2
 327 1938 330 1935 331 1922 c 0
 338 1832 402 1790 499 1790 c 256
 591 1790 656 1828 668 1909 c 0
 671 1928 664 1938 688 1938 c 2
 710 1938 l 2
 731 1938 731 1934 730 1914 c 0
 725 1774 668 1680 499 1680 c 256
EndSplineSet
EndChar

StartChar: uni0307
Encoding: 775 775 162
Width: 0
Flags: MW
AnchorPoint: "Anchor-0" 500 920 mark 0
LayerCount: 2
Fore
SplineSet
501 1269 m 0
 436 1269 381 1325 381 1390 c 0
 381 1456 436 1510 501 1510 c 0
 567 1510 621 1456 621 1390 c 0
 621 1325 567 1269 501 1269 c 0
EndSplineSet
EndChar

StartChar: uni0308
Encoding: 776 776 163
Width: 0
Flags: MW
AnchorPoint: "Anchor-0" 501 1500 mark 0
LayerCount: 2
Fore
SplineSet
660 1690 m 256
 607 1690 564 1733 564 1786 c 256
 564 1839 607 1883 660 1883 c 256
 713 1883 756 1839 756 1786 c 256
 756 1733 713 1690 660 1690 c 256
340 1690 m 256
 287 1690 244 1733 244 1786 c 256
 244 1839 287 1883 340 1883 c 256
 393 1883 436 1839 436 1786 c 256
 436 1733 393 1690 340 1690 c 256
EndSplineSet
EndChar

StartChar: uni030A
Encoding: 778 778 164
Width: 0
Flags: MW
AnchorPoint: "Anchor-0" 500 1500 mark 0
LayerCount: 2
Fore
SplineSet
500 1680 m 0
 399 1680 321 1758 321 1859 c 0
 321 1960 399 2040 500 2040 c 0
 602 2040 680 1961 680 1859 c 0
 680 1758 601 1680 500 1680 c 0
500 1754 m 256
 560 1754 602 1795 602 1859 c 256
 602 1922 560 1967 500 1967 c 256
 440 1967 399 1922 399 1859 c 256
 399 1795 440 1754 500 1754 c 256
EndSplineSet
EndChar

StartChar: uni030B
Encoding: 779 779 165
Width: 0
Flags: MW
AnchorPoint: "Anchor-0" 424 1500 mark 0
LayerCount: 2
Fore
SplineSet
577 1680 m 2
 554 1705 l 2
 533 1727 530 1729 552 1750 c 2
 742 1936 l 2
 786 1979 846 1962 875 1924 c 256
 903 1887 890 1832 847 1807 c 2
 614 1671 l 2
 595 1660 592 1664 577 1680 c 2
160 1685 m 2
 139 1706 l 2
 118 1729 126 1736 147 1756 c 2
 331 1936 l 2
 375 1979 431 1965 460 1927 c 256
 488 1890 483 1835 436 1807 c 2
 226 1687 l 2
 194 1668 185 1658 160 1685 c 2
EndSplineSet
EndChar

StartChar: uni030C
Encoding: 780 780 166
Width: 0
Flags: MW
AnchorPoint: "Anchor-0" 499 1500 mark 0
LayerCount: 2
Fore
SplineSet
391 1721 m 2
 227 1887 l 2
 210 1904 204 1911 223 1926 c 2
 241 1940 l 2
 262 1957 266 1953 289 1938 c 2
 445 1836 l 2
 485 1810 512 1809 551 1836 c 2
 717 1952 l 2
 738 1967 743 1961 761 1943 c 2
 771 1935 l 2
 790 1917 794 1910 776 1892 c 2
 599 1714 l 2
 584 1699 581 1690 549 1690 c 2
 469 1690 l 2
 428 1690 410 1702 391 1721 c 2
EndSplineSet
EndChar

StartChar: uni0311
Encoding: 785 785 167
Width: 0
Flags: MW
AnchorPoint: "Anchor-0" 499 1500 mark 0
LayerCount: 2
Fore
SplineSet
502 1938 m 256
 674 1938 727 1843 730 1699 c 0
 730 1682 724 1680 707 1680 c 2
 688 1680 l 2
 674 1680 671 1683 670 1696 c 0
 663 1786 599 1828 502 1828 c 256
 410 1828 345 1790 333 1709 c 0
 330 1690 337 1680 313 1680 c 2
 291 1680 l 2
 270 1680 270 1684 271 1704 c 0
 276 1844 333 1938 502 1938 c 256
EndSplineSet
EndChar

StartChar: uni0312
Encoding: 786 786 168
Width: 0
Flags: MW
AnchorPoint: "Anchor-0" 497 920 mark 0
LayerCount: 2
Fore
SplineSet
610 1198 m 0
 610 1145 564 1103 503 1103 c 0
 441 1103 391 1153 391 1270 c 0
 391 1377 463 1513 595 1525 c 0
 607 1526 613 1527 613 1513 c 2
 613 1478 l 2
 613 1464 605 1462 593 1460 c 0
 520 1449 458 1375 467 1283 c 0
 469 1270 475 1276 484 1282 c 0
 497 1291 508 1292 525 1292 c 0
 578 1292 610 1251 610 1198 c 0
EndSplineSet
EndChar

StartChar: dotbelowcomb
Encoding: 803 803 169
Width: 0
Flags: MW
AnchorPoint: "Anchor-1" 500 0 mark 0
AnchorPoint: "Anchor-2" 500 0 mark 0
LayerCount: 2
Fore
SplineSet
501 -410 m 0
 436 -410 381 -354 381 -289 c 0
 381 -223 436 -169 501 -169 c 0
 567 -169 621 -223 621 -289 c 0
 621 -354 567 -410 501 -410 c 0
EndSplineSet
EndChar

StartChar: uni0326
Encoding: 806 806 170
Width: 0
Flags: MW
AnchorPoint: "Anchor-1" 496 0 mark 0
AnchorPoint: "Anchor-2" 496 0 mark 0
LayerCount: 2
Fore
SplineSet
393 -296 m 0
 393 -243 439 -201 500 -201 c 0
 562 -201 612 -251 612 -368 c 0
 612 -475 540 -611 408 -623 c 0
 396 -624 390 -625 390 -611 c 2
 390 -576 l 2
 390 -562 398 -560 410 -558 c 0
 483 -547 545 -473 536 -381 c 0
 534 -368 528 -374 519 -380 c 0
 506 -389 495 -390 478 -390 c 0
 425 -390 393 -349 393 -296 c 0
EndSplineSet
EndChar

StartChar: uni0327
Encoding: 807 807 171
Width: 0
Flags: MW
AnchorPoint: "Anchor-1" 528 0 mark 0
AnchorPoint: "Anchor-2" 528 0 mark 0
LayerCount: 2
Fore
SplineSet
345 -480 m 2
 345 -463 l 2
 345 -441 356 -437 376 -436 c 0
 457 -430 541 -402 541 -336 c 0
 541 -256 455 -237 365 -229 c 0
 326 -225 325 -218 338 -200 c 2
 489 2 l 2
 495 11 496 12 512 12 c 2
 563 12 l 2
 593 12 582 7 571 -8 c 2
 482 -126 l 2
 465 -149 465 -147 501 -150 c 0
 610 -160 683 -198 683 -310 c 0
 683 -455 526 -505 370 -509 c 0
 349 -510 345 -502 345 -480 c 2
EndSplineSet
EndChar

StartChar: uni0328
Encoding: 808 808 172
Width: 0
Flags: MW
AnchorPoint: "Anchor-2" 511 47 mark 0
AnchorPoint: "Anchor-3" 511 47 mark 0
LayerCount: 2
Fore
SplineSet
494 -372 m 0
 381 -372 278 -335 278 -220 c 0
 278 -108 426 -2 533 70 c 0
 555 85 573 90 581 80 c 0
 590 69 579 54 563 36 c 0
 517 -16 464 -89 464 -170 c 0
 464 -221 489 -275 559 -275 c 0
 608 -275 643 -246 665 -214 c 0
 675 -199 684 -199 694 -207 c 2
 708 -217 l 2
 721 -226 720 -230 712 -245 c 0
 672 -318 611 -372 494 -372 c 0
EndSplineSet
EndChar

StartChar: breve
Encoding: 728 728 173
Width: 1000
Flags: MW
AnchorPoint: "Anchor-0" 499 1500 mark 0
LayerCount: 2
Fore
SplineSet
499 1680 m 256
 327 1680 274 1775 271 1919 c 0
 271 1936 277 1938 294 1938 c 2
 313 1938 l 2
 327 1938 330 1935 331 1922 c 0
 338 1832 402 1790 499 1790 c 256
 591 1790 656 1828 668 1909 c 0
 671 1928 664 1938 688 1938 c 2
 710 1938 l 2
 731 1938 731 1934 730 1914 c 0
 725 1774 668 1680 499 1680 c 256
EndSplineSet
EndChar

StartChar: dotaccent
Encoding: 729 729 174
Width: 1000
Flags: MW
AnchorPoint: "Anchor-0" 497 1040 mark 0
LayerCount: 2
Fore
SplineSet
501 1269 m 0
 436 1269 381 1325 381 1390 c 0
 381 1456 436 1510 501 1510 c 0
 567 1510 621 1456 621 1390 c 0
 621 1325 567 1269 501 1269 c 0
EndSplineSet
EndChar

StartChar: ring
Encoding: 730 730 175
Width: 1000
Flags: MW
AnchorPoint: "Anchor-0" 500 1500 mark 0
LayerCount: 2
Fore
SplineSet
500 1680 m 0
 399 1680 321 1758 321 1859 c 0
 321 1960 399 2040 500 2040 c 0
 602 2040 680 1961 680 1859 c 0
 680 1758 601 1680 500 1680 c 0
500 1754 m 256
 560 1754 602 1795 602 1859 c 256
 602 1922 560 1967 500 1967 c 256
 440 1967 399 1922 399 1859 c 256
 399 1795 440 1754 500 1754 c 256
EndSplineSet
EndChar

StartChar: ogonek
Encoding: 731 731 176
Width: 1000
Flags: MW
AnchorPoint: "Anchor-2" 511 47 mark 0
AnchorPoint: "Anchor-3" 511 47 mark 0
LayerCount: 2
Fore
SplineSet
494 -372 m 0
 381 -372 278 -335 278 -220 c 0
 278 -108 426 -2 533 70 c 0
 555 85 573 90 581 80 c 0
 590 69 579 54 563 36 c 0
 517 -16 464 -89 464 -170 c 0
 464 -221 489 -275 559 -275 c 0
 608 -275 643 -246 665 -214 c 0
 675 -199 684 -199 694 -207 c 2
 708 -217 l 2
 721 -226 720 -230 712 -245 c 0
 672 -318 611 -372 494 -372 c 0
EndSplineSet
EndChar

StartChar: tilde
Encoding: 732 732 177
Width: 1000
Flags: MW
AnchorPoint: "Anchor-0" 496 1500 mark 0
LayerCount: 2
Fore
SplineSet
646 1680 m 0
 562 1680 510 1717 468 1759 c 0
 435 1792 397 1838 337 1838 c 0
 262 1838 229 1794 226 1714 c 0
 225 1702 219 1700 206 1700 c 2
 174 1700 l 2
 151 1700 151 1710 153 1730 c 0
 165 1857 250 1954 374 1954 c 0
 458 1954 510 1918 549 1875 c 0
 578 1843 610 1796 663 1796 c 0
 736 1796 769 1837 774 1912 c 0
 775 1928 777 1934 796 1934 c 2
 829 1934 l 2
 847 1934 849 1928 848 1912 c 0
 843 1764 783 1680 646 1680 c 0
EndSplineSet
EndChar

StartChar: hungarumlaut
Encoding: 733 733 178
Width: 1000
Flags: MW
AnchorPoint: "Anchor-0" 424 1500 mark 0
LayerCount: 2
Fore
SplineSet
577 1680 m 2
 554 1705 l 2
 533 1727 530 1729 552 1750 c 2
 742 1936 l 2
 786 1979 846 1962 875 1924 c 256
 903 1887 890 1832 847 1807 c 2
 614 1671 l 2
 595 1660 592 1664 577 1680 c 2
160 1685 m 2
 139 1706 l 2
 118 1729 126 1736 147 1756 c 2
 331 1936 l 2
 375 1979 431 1965 460 1927 c 256
 488 1890 483 1835 436 1807 c 2
 226 1687 l 2
 194 1668 185 1658 160 1685 c 2
EndSplineSet
EndChar

StartChar: exclamdown
Encoding: 161 161 187
Width: 638
Flags: MW
LayerCount: 2
Fore
SplineSet
438 942 m 0
 438 876 386 824 320 824 c 0
 254 824 202 876 202 942 c 0
 202 1008 254 1060 320 1060 c 0
 386 1060 438 1008 438 942 c 0
202 -278 m 0
 223 63 278 308 282 595 c 0
 282 617 282 624 306 624 c 2
 337 624 l 2
 356 624 358 618 358 600 c 0
 361 311 417 65 438 -278 c 0
 438 -292 438 -304 438 -316 c 0
 438 -408 414 -476 320 -476 c 0
 226 -476 200 -408 200 -316 c 0
 200 -304 202 -292 202 -278 c 0
EndSplineSet
EndChar

StartChar: cent
Encoding: 162 162 188
Width: 1116
Flags: MW
LayerCount: 2
Fore
SplineSet
652 1230 m 2
 722 1230 l 2
 743 1230 746 1225 743 1205 c 2
 548 -146 l 2
 545 -164 537 -170 518 -170 c 2
 464 -170 l 2
 442 -170 438 -164 440 -147 c 2
 635 1216 l 2
 637 1229 637 1230 652 1230 c 2
EndSplineSet
Refer: 40 99 N 1 0 0 1 0 0 2
EndChar

StartChar: sterling
Encoding: 163 163 189
Width: 1270
Flags: MW
LayerCount: 2
Fore
SplineSet
111 -7 m 0
 99 251 368 399 368 522 c 0
 368 598 349 660 303 660 c 2
 27 660 l 2
 1 660 0 669 0 696 c 2
 0 740 l 2
 0 765 8 770 32 770 c 2
 269 770 l 2
 319 770 300 784 286 813 c 0
 246 899 206 986 206 1100 c 0
 206 1380 416 1520 738 1520 c 0
 1042 1520 1190 1376 1190 1212 c 0
 1190 1116 1120 1080 1062 1080 c 0
 1008 1080 948 1122 948 1196 c 0
 948 1268 1012 1278 1012 1324 c 0
 1012 1378 886 1436 738 1436 c 0
 500 1436 428 1268 428 1120 c 0
 428 998 470 901 503 809 c 0
 516 772 517 770 567 770 c 2
 873 770 l 2
 900 770 900 770 900 743 c 2
 900 682 l 2
 900 666 894 660 876 660 c 2
 571 660 l 2
 544 660 540 654 540 629 c 0
 539 402 407 341 307 223 c 0
 283 195 236 155 255 143 c 0
 263 138 278 171 326 184 c 0
 351 191 380 194 414 194 c 0
 614 194 694 126 846 126 c 0
 965 126 1068 183 1079 294 c 0
 1081 314 1079 314 1101 314 c 2
 1152 314 l 2
 1176 314 1174 300 1173 280 c 0
 1161 17 1005 -60 834 -60 c 0
 560 -60 470 60 344 60 c 0
 274 60 242 31 222 -15 c 0
 216 -28 218 -40 198 -40 c 2
 132 -40 l 2
 108 -40 112 -27 111 -7 c 0
EndSplineSet
EndChar

StartChar: currency
Encoding: 164 164 190
Width: 1140
Flags: MW
LayerCount: 2
Fore
SplineSet
121 248 m 1
 48 321 l 1
 206 479 l 1
 137 563 112 653 112 770 c 256
 112 887 137 977 206 1061 c 1
 48 1219 l 1
 121 1292 l 1
 279 1134 l 1
 351 1196 441 1229 571 1229 c 256
 701 1229 789 1196 862 1135 c 1
 1019 1292 l 1
 1092 1219 l 1
 934 1061 l 1
 1003 977 1028 887 1028 770 c 0
 1028 654 1004 563 935 478 c 1
 1092 321 l 1
 1019 248 l 1
 862 405 l 1
 790 344 700 310 571 310 c 256
 441 310 350 344 278 405 c 1
 121 248 l 1
571 433 m 0
 774 433 898 571 898 770 c 256
 898 969 773 1107 571 1107 c 0
 368 1107 242 969 242 770 c 256
 242 571 369 433 571 433 c 0
EndSplineSet
EndChar

StartChar: yen
Encoding: 165 165 191
Width: 1570
Flags: MW
LayerCount: 2
Fore
SplineSet
404 740 m 2
 1216 740 l 2
 1246 740 1250 736 1250 712 c 2
 1250 663 l 2
 1250 639 1247 630 1213 630 c 2
 401 630 l 2
 369 630 368 634 368 660 c 2
 368 712 l 2
 368 735 377 740 404 740 c 2
404 460 m 2
 1216 460 l 2
 1246 460 1250 456 1250 432 c 2
 1250 383 l 2
 1250 359 1247 350 1213 350 c 2
 401 350 l 2
 369 350 368 354 368 380 c 2
 368 432 l 2
 368 455 377 460 404 460 c 2
EndSplineSet
Refer: 36 89 N 1 0 0 1 0 0 2
EndChar

StartChar: brokenbar
Encoding: 166 166 192
Width: 479
Flags: MW
LayerCount: 2
Fore
SplineSet
200 818 m 1
 200 1560 l 1
 313 1560 l 1
 313 818 l 1
 200 818 l 1
200 -500 m 1
 200 332 l 1
 313 332 l 1
 313 -500 l 1
 200 -500 l 1
EndSplineSet
EndChar

StartChar: section
Encoding: 167 167 193
Width: 1068
Flags: MW
LayerCount: 2
Fore
SplineSet
714 1316 m 4
 714 1382 590 1418 486 1418 c 4
 360 1418 250 1362 250 1268 c 4
 250 1036 936 1076 936 750 c 4
 936 653 894 564 800 494 c 5
 871 447 920 382 920 284 c 4
 920 76 700 -20 490 -20 c 4
 274 -20 42 64 42 296 c 4
 42 392 112 448 170 448 c 4
 224 448 284 406 284 332 c 4
 284 260 220 250 220 204 c 4
 220 138 384 82 488 82 c 4
 614 82 764 138 764 232 c 4
 764 464 58 424 58 750 c 4
 58 885 117 940 213 1006 c 5
 142 1053 94 1118 94 1216 c 4
 94 1424 274 1520 464 1520 c 4
 680 1520 892 1436 892 1224 c 4
 892 1128 822 1072 764 1072 c 4
 710 1072 650 1114 650 1188 c 4
 650 1260 714 1270 714 1316 c 4
294 963 m 1
 279 932 250 879 250 814 c 0
 250 649 515 626 712 541 c 1
 747 583 764 635 764 686 c 0
 764 853 491 875 294 963 c 1
EndSplineSet
EndChar

StartChar: dieresis
Encoding: 168 168 194
Width: 1000
Flags: MW
AnchorPoint: "Anchor-0" 501 1500 mark 0
LayerCount: 2
Fore
SplineSet
660 1690 m 260
 607 1690 564 1733 564 1786 c 260
 564 1839 607 1883 660 1883 c 260
 713 1883 756 1839 756 1786 c 260
 756 1733 713 1690 660 1690 c 260
340 1690 m 260
 287 1690 244 1733 244 1786 c 260
 244 1839 287 1883 340 1883 c 260
 393 1883 436 1839 436 1786 c 260
 436 1733 393 1690 340 1690 c 260
EndSplineSet
EndChar

StartChar: copyright
Encoding: 169 169 195
Width: 1739
Flags: MW
LayerCount: 2
Fore
SplineSet
870 1520 m 256
 1314 1520 1641 1192 1641 750 c 256
 1641 306 1312 -20 870 -20 c 256
 426 -20 100 308 100 750 c 256
 100 1193 428 1520 870 1520 c 256
870 73 m 256
 1253 73 1546 349 1546 750 c 256
 1546 1151 1251 1427 870 1427 c 256
 487 1427 194 1151 194 750 c 256
 194 347 489 73 870 73 c 256
EndSplineSet
Refer: 14 67 N 0.6 0 0 0.6 354 290 2
EndChar

StartChar: ordfeminine
Encoding: 170 170 196
Width: 703
Flags: MW
LayerCount: 2
Fore
SplineSet
40 1112 m 0
 40 1225 145 1323 351 1323 c 2
 410 1323 l 2
 424 1323 425 1324 425 1338 c 2
 425 1404 l 2
 425 1484 404 1545 308 1545 c 0
 243 1545 179 1522 179 1498 c 0
 179 1476 213 1483 213 1436 c 0
 213 1395 188 1366 147 1366 c 0
 110 1366 76 1383 76 1436 c 0
 76 1540 211 1600 332 1600 c 0
 500 1600 533 1507 533 1410 c 2
 533 1049 l 2
 533 1025 547 1014 564 1014 c 0
 581 1014 600 1020 621 1053 c 0
 625 1060 629 1063 635 1058 c 1
 657 1044 l 2
 664 1040 664 1038 660 1030 c 0
 632 977 585 952 536 952 c 0
 535 952 l 0
 444 952 434 1009 429 1038 c 0
 427 1052 423 1053 412 1038 c 0
 393 1011 353 952 226 952 c 0
 119 952 40 1011 40 1112 c 0
162 1130 m 0
 162 1050 220 1019 280 1019 c 0
 362 1019 425 1084 425 1193 c 2
 425 1265 l 2
 425 1275 423 1277 413 1277 c 2
 351 1277 l 2
 212 1277 162 1222 162 1130 c 0
EndSplineSet
EndChar

StartChar: guillemotleft
Encoding: 171 171 197
Width: 1390
Flags: MW
LayerCount: 2
Fore
SplineSet
862 775 m 1
 1330 380 l 1
 1270 290 l 1
 610 750 l 1
 610 800 l 1
 1270 1260 l 1
 1330 1170 l 1
 862 775 l 1
302 775 m 1
 770 380 l 1
 710 290 l 1
 50 750 l 1
 50 800 l 1
 710 1260 l 1
 770 1170 l 1
 302 775 l 1
EndSplineSet
EndChar

StartChar: logicalnot
Encoding: 172 172 198
Width: 971
Flags: MW
LayerCount: 2
Fore
SplineSet
739 406 m 1
 739 716 l 1
 120 716 l 1
 120 830 l 1
 852 830 l 1
 852 406 l 1
 739 406 l 1
EndSplineSet
EndChar

StartChar: registered
Encoding: 174 174 200
Width: 1739
Flags: MW
LayerCount: 2
Fore
SplineSet
870 1520 m 256
 1314 1520 1641 1192 1641 750 c 256
 1641 306 1312 -20 870 -20 c 256
 426 -20 100 308 100 750 c 256
 100 1193 428 1520 870 1520 c 256
870 73 m 256
 1253 73 1546 349 1546 750 c 256
 1546 1151 1251 1427 870 1427 c 256
 487 1427 194 1151 194 750 c 256
 194 347 489 73 870 73 c 256
EndSplineSet
Refer: 29 82 N 0.6 0 0 0.6 403 306 2
EndChar

StartChar: degree
Encoding: 176 176 202
Width: 639
Flags: MW
LayerCount: 2
Fore
SplineSet
320 1120 m 256
 184 1120 80 1223 80 1359 c 256
 80 1495 184 1600 320 1600 c 256
 457 1600 561 1496 561 1359 c 256
 561 1223 456 1120 320 1120 c 256
320 1230 m 0
 394 1230 450 1286 450 1359 c 0
 450 1433 394 1490 320 1490 c 0
 247 1490 189 1433 189 1359 c 0
 189 1286 247 1230 320 1230 c 0
EndSplineSet
EndChar

StartChar: plusminus
Encoding: 177 177 203
Width: 1059
Flags: MW
LayerCount: 2
Fore
SplineSet
473 361 m 1
 473 716 l 1
 120 716 l 1
 120 828 l 1
 473 828 l 1
 473 1180 l 1
 586 1180 l 1
 586 828 l 1
 939 828 l 1
 939 716 l 1
 586 716 l 1
 586 361 l 1
 473 361 l 1
121 -15 m 1
 121 97 l 1
 940 97 l 1
 940 -15 l 1
 121 -15 l 1
EndSplineSet
EndChar

StartChar: uni00B2
Encoding: 178 178 204
Width: 675
Flags: MW
LayerCount: 2
Fore
SplineSet
634 1109 m 0
 643 952 570 902 466 902 c 0
 338 902 260 974 172 974 c 0
 137 974 118 958 106 932 c 0
 102 922 99 914 83 914 c 2
 54 914 l 2
 41 914 40 920 40 931 c 0
 45 1098 133 1216 300 1333 c 0
 389 1395 492 1479 492 1616 c 0
 492 1723 431 1776 324 1776 c 0
 229 1776 154 1722 154 1690 c 0
 154 1662 210 1657 210 1602 c 0
 210 1558 171 1532 139 1532 c 0
 104 1532 59 1553 59 1611 c 0
 59 1721 166 1826 342 1826 c 0
 511 1826 626 1754 626 1598 c 0
 626 1454 500 1358 330 1262 c 0
 215 1197 148 1117 116 1036 c 0
 107 1013 94 994 104 994 c 0
 115 994 114 1012 130 1029 c 0
 158 1057 196 1075 244 1075 c 0
 334 1075 382 1023 473 1023 c 0
 543 1023 573 1055 577 1110 c 0
 579 1124 578 1126 594 1126 c 2
 618 1126 l 2
 632 1126 633 1123 634 1109 c 0
EndSplineSet
EndChar

StartChar: uni00B3
Encoding: 179 179 205
Width: 638
Flags: MW
LayerCount: 2
Fore
SplineSet
40 1093 m 0
 40 1151 82 1172 117 1172 c 0
 149 1172 185 1146 185 1102 c 0
 185 1059 147 1054 147 1026 c 0
 147 994 198 952 299 952 c 0
 430 952 477 1053 477 1142 c 0
 477 1222 449 1325 294 1344 c 0
 266 1348 240 1336 240 1371 c 2
 240 1382 l 2
 240 1417 267 1406 294 1410 c 0
 445 1433 453 1553 453 1623 c 0
 453 1712 406 1776 299 1776 c 0
 222 1776 183 1736 183 1704 c 0
 183 1676 221 1670 221 1627 c 0
 221 1583 185 1557 153 1557 c 0
 118 1557 76 1578 76 1636 c 0
 76 1734 153 1826 323 1826 c 0
 444 1826 574 1767 574 1623 c 0
 574 1541 553 1451 449 1402 c 0
 404 1381 398 1389 398 1376 c 0
 398 1366 421 1369 446 1360 c 0
 565 1318 598 1234 598 1142 c 0
 598 1010 492 902 311 902 c 0
 129 902 40 995 40 1093 c 0
EndSplineSet
EndChar

StartChar: acute
Encoding: 180 180 206
Width: 790
Flags: MW
LayerCount: 2
Fore
SplineSet
605 1440 m 2
 144 1421 l 2
 119 1420 112 1421 110 1440 c 0
 107 1460 123 1464 148 1470 c 2
 585 1576 l 2
 641 1589 675 1548 675 1510 c 0
 675 1472 643 1441 605 1440 c 2
EndSplineSet
EndChar

StartChar: mu
Encoding: 181 181 207
Width: 1233
Flags: HMW
LayerCount: 2
Fore
SplineSet
347 847 m 5
 347 -242 l 6
 347 -413 441 -423 449 -415 c 4
 456 -407 436 -406 436 -352 c 4
 436 -297 494 -246 559 -246 c 4
 629 -246 682 -308 682 -380 c 4
 682 -471 615 -520 515 -520 c 4
 353 -520 235 -409 235 -242 c 6
 235 847 l 5
 347 847 l 5
EndSplineSet
Refer: 58 117 N 1 0 0 1 0 0 2
EndChar

StartChar: paragraph
Encoding: 182 182 208
Width: 1332
Flags: MW
LayerCount: 2
Fore
SplineSet
535 -270 m 2
 535 -246 l 2
 535 -197 536 -187 585 -187 c 2
 673 -187 l 2
 705 -187 715 -186 715 -154 c 2
 715 740 l 2
 715 775 706 779 673 779 c 2
 596 779 l 2
 339 779 126 892 126 1139 c 0
 126 1386 338 1500 596 1500 c 2
 1209 1500 l 2
 1237 1500 1246 1496 1246 1466 c 2
 1246 1428 l 2
 1246 1390 1238 1387 1199 1387 c 2
 1109 1387 l 2
 1067 1387 1066 1378 1066 1336 c 2
 1066 -132 l 2
 1066 -166 1069 -187 1107 -187 c 2
 1211 -187 l 2
 1237 -187 1246 -188 1246 -214 c 2
 1246 -259 l 2
 1246 -293 1240 -300 1207 -300 c 2
 581 -300 l 2
 555 -300 535 -299 535 -270 c 2
953 -144 m 2
 953 1358 l 2
 953 1386 944 1387 915 1387 c 2
 871 1387 l 2
 833 1387 828 1381 828 1342 c 2
 828 -136 l 2
 828 -169 828 -187 865 -187 c 2
 901 -187 l 2
 943 -187 953 -186 953 -144 c 2
EndSplineSet
EndChar

StartChar: cedilla
Encoding: 184 184 210
Width: 1000
Flags: MW
LayerCount: 2
Fore
SplineSet
345 -480 m 2
 345 -463 l 2
 345 -441 356 -437 376 -436 c 0
 457 -430 541 -402 541 -336 c 0
 541 -256 455 -237 365 -229 c 0
 326 -225 325 -218 338 -200 c 2
 489 2 l 2
 495 11 496 12 512 12 c 2
 563 12 l 2
 593 12 582 7 571 -8 c 2
 482 -126 l 2
 465 -149 465 -147 501 -150 c 0
 610 -160 683 -198 683 -310 c 0
 683 -455 526 -505 370 -509 c 0
 349 -510 345 -502 345 -480 c 2
EndSplineSet
EndChar

StartChar: uni00B9
Encoding: 185 185 211
Width: 630
Flags: MW
LayerCount: 2
Fore
SplineSet
60 935 m 2
 60 960 l 2
 60 977 67 978 84 978 c 2
 239 978 l 2
 261 978 264 983 264 1003 c 2
 264 1616 l 2
 264 1638 262 1644 241 1644 c 2
 107 1644 l 2
 90 1644 80 1645 80 1664 c 2
 80 1682 l 2
 80 1704 83 1710 106 1710 c 0
 222 1711 261 1719 313 1835 c 0
 319 1848 318 1860 338 1860 c 2
 355 1860 l 2
 370 1860 378 1859 378 1844 c 2
 378 1009 l 2
 378 981 381 978 410 978 c 2
 544 978 l 2
 560 978 570 977 570 960 c 2
 570 936 l 2
 570 917 569 912 550 912 c 2
 80 912 l 2
 62 912 60 916 60 935 c 2
EndSplineSet
EndChar

StartChar: ordmasculine
Encoding: 186 186 212
Width: 654
Flags: MW
LayerCount: 2
Fore
SplineSet
166 1286 m 0
 166 1137 196 1004 327 1004 c 0
 458 1004 488 1137 488 1262 c 0
 488 1411 458 1544 327 1544 c 0
 196 1544 166 1411 166 1286 c 0
40 1262 m 0
 40 1454 134 1598 327 1598 c 0
 520 1598 614 1454 614 1286 c 0
 614 1094 520 950 327 950 c 0
 134 950 40 1094 40 1262 c 0
EndSplineSet
EndChar

StartChar: guillemotright
Encoding: 187 187 213
Width: 1390
Flags: MW
LayerCount: 2
Fore
SplineSet
528 775 m 1
 60 1170 l 1
 120 1260 l 1
 780 800 l 1
 780 750 l 1
 120 290 l 1
 60 380 l 1
 528 775 l 1
1088 775 m 1
 620 1170 l 1
 680 1260 l 1
 1340 800 l 1
 1340 750 l 1
 680 290 l 1
 620 380 l 1
 1088 775 l 1
EndSplineSet
EndChar

StartChar: onequarter
Encoding: 188 188 214
Width: 2000
Flags: MW
LayerCount: 2
Fore
SplineSet
1402 1440 m 1
 1530 1440 l 1
 608 -60 l 1
 470 -60 l 1
 1402 1440 l 1
EndSplineSet
Refer: 6 52 N 0.6 0 0 0.6 1070 4 2
Refer: 3 49 N 0.6 0 0 0.6 214 632 2
EndChar

StartChar: onehalf
Encoding: 189 189 215
Width: 2000
Flags: MW
LayerCount: 2
Fore
SplineSet
1402 1450 m 1
 1530 1450 l 1
 608 -50 l 1
 470 -50 l 1
 1402 1450 l 1
EndSplineSet
Refer: 4 50 N 0.6 0 0 0.6 1152 -16 2
Refer: 3 49 N 0.6 0 0 0.6 214 622 2
EndChar

StartChar: threequarters
Encoding: 190 190 216
Width: 2000
Flags: MW
LayerCount: 2
Fore
SplineSet
1402 1400 m 1
 1530 1400 l 1
 608 -100 l 1
 470 -100 l 1
 1402 1400 l 1
EndSplineSet
Refer: 6 52 N 0.6 0 0 0.6 1070 -36 2
Refer: 5 51 N 0.6 0 0 0.6 130 614 2
EndChar

StartChar: questiondown
Encoding: 191 191 217
Width: 1100
Flags: MW
LayerCount: 2
Fore
SplineSet
792 -284 m 0
 792 -224 730 -222 730 -120 c 0
 730 -36 796 0 866 0 c 0
 936 0 1000 -46 1000 -142 c 0
 1000 -306 852 -480 568 -480 c 0
 246 -480 90 -320 90 -60 c 0
 90 139 243 337 489 400 c 0
 521 408 536 410 536 453 c 2
 536 589 l 2
 536 619 544 622 575 622 c 2
 612 622 l 2
 647 622 656 620 656 585 c 2
 656 389 l 2
 656 346 647 340 617 329 c 0
 423 257 292 93 292 -100 c 0
 292 -248 370 -396 568 -396 c 0
 736 -396 792 -328 792 -284 c 0
677 940 m 0
 677 874 623 820 557 820 c 0
 491 820 437 874 437 940 c 0
 437 1006 491 1060 557 1060 c 0
 623 1060 677 1006 677 940 c 0
EndSplineSet
EndChar

StartChar: multiply
Encoding: 215 215 254
Width: 1003
Flags: MW
LayerCount: 2
Fore
SplineSet
525 886 m 2
 727 1088 l 2
 743 1104 754 1109 771 1092 c 2
 812 1052 l 2
 824 1040 829 1033 817 1021 c 2
 606 811 l 2
 583 788 580 780 602 758 c 2
 816 544 l 2
 828 532 825 526 812 513 c 2
 771 472 l 2
 757 458 753 454 739 468 c 2
 530 677 l 2
 505 702 501 705 476 680 c 2
 270 475 l 2
 252 457 246 458 229 475 c 2
 191 513 l 2
 175 529 178 538 193 553 c 2
 399 760 l 2
 418 779 420 787 399 808 c 2
 194 1013 l 2
 178 1029 176 1037 194 1055 c 2
 234 1095 l 2
 248 1109 255 1105 270 1090 c 2
 473 887 l 2
 496 864 503 864 525 886 c 2
EndSplineSet
EndChar

StartChar: Thorn
Encoding: 222 222 255
Width: 1380
Flags: MW
LayerCount: 2
Fore
SplineSet
535 454 m 2
 785 454 l 2
 977 454 1085 586 1085 764 c 0
 1085 942 977 1074 785 1074 c 2
 514 1074 l 2
 488 1074 485 1062 485 1035 c 2
 485 498 l 2
 485 456 493 454 535 454 c 2
485 288 m 2
 485 173 l 2
 485 118 489 110 543 110 c 2
 673 110 l 2
 704 110 705 101 705 70 c 2
 705 48 l 2
 705 8 703 0 663 0 c 2
 129 0 l 2
 88 0 75 2 75 46 c 2
 75 82 l 2
 75 106 82 110 107 110 c 2
 249 110 l 2
 290 110 295 120 295 158 c 2
 295 1364 l 2
 295 1387 287 1390 263 1390 c 2
 100 1390 l 2
 76 1390 75 1399 75 1423 c 2
 75 1464 l 2
 75 1495 83 1500 112 1500 c 2
 651 1500 l 2
 692 1500 705 1498 705 1454 c 2
 705 1418 l 2
 705 1394 698 1390 673 1390 c 2
 531 1390 l 2
 490 1390 485 1380 485 1342 c 2
 485 1222 l 2
 485 1190 491 1184 522 1184 c 2
 785 1184 l 2
 1147 1184 1305 1024 1305 764 c 0
 1305 504 1147 344 785 344 c 2
 549 344 l 2
 494 344 485 343 485 288 c 2
EndSplineSet
EndChar

StartChar: dotlessi
Encoding: 305 305 256
Width: 665
Flags: MW
AnchorPoint: "Anchor-0" 349 1040 basechar 0
AnchorPoint: "Anchor-1" 347 0 basechar 0
AnchorPoint: "Anchor-2" 347 0 basechar 0
LayerCount: 2
Fore
SplineSet
241 930 m 2
 106 930 l 2
 86 930 85 934 85 954 c 2
 85 1014 l 2
 85 1034 90 1040 109 1040 c 2
 426 1040 l 2
 442 1040 445 1036 445 1019 c 2
 445 134 l 2
 445 117 450 110 466 110 c 2
 601 110 l 2
 620 110 625 109 625 90 c 2
 625 24 l 2
 625 5 625 0 606 0 c 2
 116 0 l 2
 93 0 85 2 85 24 c 2
 85 80 l 2
 85 106 94 110 118 110 c 2
 242 110 l 2
 264 110 265 116 265 138 c 2
 265 906 l 2
 265 926 259 930 241 930 c 2
EndSplineSet
EndChar

StartChar: germandbls
Encoding: 223 223 257
Width: 1561
Flags: MW
LayerCount: 2
Fore
SplineSet
1402 320 m 4
 1402 100 1244 -20 1002 -20 c 4
 829 -20 626 77 626 241 c 4
 626 323 680 372 750 372 c 4
 811 372 858 332 858 260 c 4
 858 225 842 196 817 176 c 4
 795 159 795 152 811 141 c 4
 861 107 925 93 993 93 c 4
 1131 93 1200 162 1200 290 c 4
 1200 505 836 577 836 787 c 4
 836 1007 1130 1045 1130 1233 c 4
 1130 1378 1014 1463 806 1463 c 4
 488 1463 391 1246 391 962 c 6
 391 37 l 6
 391 5 385 0 351 0 c 6
 60 0 l 6
 32 0 29 8 29 37 c 6
 29 80 l 6
 29 108 37 113 63 113 c 6
 173 113 l 6
 209 113 210 128 210 161 c 6
 210 982 l 6
 210 1328 380 1570 806 1570 c 4
 1142 1570 1333 1448 1333 1262 c 4
 1333 1043 994 950 994 843 c 4
 994 717 1402 547 1402 320 c 4
EndSplineSet
EndChar

StartChar: AE
Encoding: 198 198 258
Width: 2505
Flags: MW
LayerCount: 2
Fore
SplineSet
0 42 m 2
 0 84 l 2
 0 104 6 110 28 110 c 2
 144 110 l 2
 186 110 196 120 215 150 c 2
 1082 1349 l 2
 1112 1391 1095 1390 1024 1390 c 2
 896 1390 l 2
 871 1390 870 1394 870 1420 c 2
 870 1472 l 2
 870 1495 877 1500 898 1500 c 2
 1524 1500 l 2
 1547 1500 1550 1496 1550 1472 c 2
 1550 1423 l 2
 1550 1399 1548 1390 1522 1390 c 2
 1278 1390 l 2
 1224 1390 1241 1381 1219 1351 c 2
 654 578 l 2
 641 557 646 550 682 550 c 2
 1374 550 l 1
 1354 440 l 1
 596 440 l 2
 560 440 547 428 529 400 c 2
 346 158 l 2
 325 124 333 110 377 110 c 2
 528 110 l 2
 552 110 560 105 560 80 c 2
 560 32 l 2
 560 0 560 0 528 0 c 2
 50 0 l 2
 13 0 0 2 0 42 c 2
EndSplineSet
Refer: 16 69 N 1 0 0 1 990 0 2
EndChar

StartChar: ae
Encoding: 230 230 259
Width: 1746
Flags: MW
LayerCount: 2
Fore
SplineSet
974 608 m 2
 1426 608 l 2
 1452 608 1455 610 1455 624 c 0
 1455 756 1382 972 1220 972 c 0
 1035 972 946 790 946 633 c 0
 946 613 950 608 974 608 c 2
742 447 m 2
 742 494 741 522 712 522 c 2
 618 522 l 2
 386 522 304 430 304 276 c 0
 304 142 400 92 500 92 c 0
 636 92 742 200 742 382 c 2
 742 447 l 2
100 246 m 0
 100 434 274 598 618 598 c 2
 716 598 l 2
 739 598 742 600 742 624 c 2
 742 734 l 2
 742 868 706 968 546 968 c 0
 438 968 332 930 332 890 c 0
 332 854 388 864 388 786 c 0
 388 718 346 670 278 670 c 0
 216 670 160 698 160 786 c 0
 160 960 384 1060 586 1060 c 0
 728 1060 812 1020 861 960 c 0
 882 933 877 924 904 948 c 0
 981 1019 1086 1060 1220 1060 c 0
 1546 1060 1654 788 1654 551 c 0
 1654 524 1646 522 1618 522 c 2
 975 522 l 2
 953 522 942 516 942 493 c 0
 942 272 1023 78 1230 78 c 0
 1388 78 1493 175 1546 322 c 0
 1551 336 1553 346 1573 346 c 2
 1631 346 l 2
 1651 346 1655 340 1651 325 c 0
 1596 125 1463 -20 1217 -20 c 0
 1053 -20 918 94 878 134 c 0
 861 151 841 156 820 133 c 0
 778 88 621 -20 410 -20 c 0
 232 -20 100 78 100 246 c 0
EndSplineSet
EndChar

StartChar: Eth
Encoding: 208 208 260
Width: 1645
Flags: MW
LayerCount: 2
Fore
SplineSet
110 840 m 2
 872 840 l 2
 900 840 903 836 903 812 c 2
 903 763 l 2
 903 739 901 730 869 730 c 2
 108 730 l 2
 78 730 76 734 76 760 c 2
 76 812 l 2
 76 835 84 840 110 840 c 2
EndSplineSet
Refer: 15 68 N 1 0 0 1 0 0 2
EndChar

StartChar: Oslash
Encoding: 216 216 261
Width: 1660
Flags: MW
LayerCount: 2
Fore
SplineSet
1186 1660 m 2
 1231 1660 l 2
 1269 1660 1270 1655 1260 1630 c 2
 543 -168 l 2
 532 -196 522 -200 481 -200 c 2
 449 -200 l 2
 400 -200 397 -189 409 -158 c 2
 1130 1626 l 2
 1141 1653 1146 1660 1186 1660 c 2
EndSplineSet
Refer: 26 79 N 1 0 0 1 0 0 2
EndChar

StartChar: eth
Encoding: 240 240 262
Width: 1240
Flags: MW
LayerCount: 2
Fore
SplineSet
560.8359375 1233.38867188 m 2
 957.131835938 1507.74804688 l 2
 980.153320312 1523.68554688 984.896484375 1522.10449219 998.557617188 1502.37207031 c 2
 1026.44921875 1462.08496094 l 2
 1040.11035156 1442.3515625 1043.58886719 1433.81347656 1017.27832031 1415.59960938 c 2
 621.803710938 1141.80957031 l 2
 597.138671875 1124.73242188 593.216796875 1126.8828125 578.41796875 1148.25976562 c 2
 548.818359375 1191.01464844 l 2
 535.7265625 1209.92480469 539.458007812 1218.58886719 560.8359375 1233.38867188 c 2
521 1552 m 0
 764 1448 1140 1187 1140 700 c 0
 1140 190 934 -20 612 -20 c 0
 290 -20 100 190 100 510 c 0
 100 840 316 1060 588 1060 c 0
 770 1060 850 973 907 909 c 0
 924 890 928 876 936 880 c 0
 943 884 939 897 937 930 c 0
 922 1258 658 1366 485 1454 c 0
 469 1462 460 1462 468 1480 c 2
 493 1541 l 2
 500 1557 506 1558 521 1552 c 0
300 510 m 0
 300 292 374 70 592 70 c 0
 790 70 940 361 940 650 c 0
 940 810 798 962 632 962 c 0
 424 962 300 738 300 510 c 0
EndSplineSet
EndChar

StartChar: divide
Encoding: 247 247 269
Width: 1119
Flags: MW
LayerCount: 2
Fore
SplineSet
135 836 m 2
 994 836 l 2
 1014 836 1020 830 1020 808 c 2
 1020 742 l 2
 1020 727 1012 724 996 724 c 2
 132 724 l 2
 106 724 100 729 100 754 c 2
 100 796 l 2
 100 829 103 836 135 836 c 2
439 430 m 0
 439 496 495 550 561 550 c 0
 627 550 680 496 680 430 c 0
 680 364 627 310 561 310 c 0
 495 310 439 364 439 430 c 0
439 1140 m 0
 439 1206 495 1260 561 1260 c 0
 627 1260 680 1206 680 1140 c 0
 680 1074 627 1020 561 1020 c 0
 495 1020 439 1074 439 1140 c 0
EndSplineSet
EndChar

StartChar: thorn
Encoding: 254 254 270
Width: 1276
Flags: MW
AnchorPoint: "Anchor-0" 798 1040 basechar 0
AnchorPoint: "Anchor-1" 877 0 basechar 0
AnchorPoint: "Anchor-2" 877 0 basechar 0
LayerCount: 2
Fore
SplineSet
410 520 m 0
 410 292 524 84 706 84 c 0
 874 84 986 292 986 520 c 0
 986 748 874 956 706 956 c 0
 524 956 410 748 410 520 c 0
50 1490 m 2
 50 1528 l 2
 50 1557 61 1560 87 1560 c 2
 373 1560 l 2
 404 1560 410 1556 410 1526 c 2
 410 892 l 2
 410 842 416 844 428 866 c 0
 493 984 607 1060 742 1060 c 0
 980 1060 1186 860 1186 520 c 0
 1186 180 980 -18 742 -18 c 0
 618 -18 517 39 450 138 c 0
 420 182 410 184 410 78 c 2
 410 -344 l 2
 410 -385 417 -390 457 -390 c 2
 555 -390 l 2
 585 -390 590 -396 590 -428 c 2
 590 -469 l 2
 590 -498 587 -500 559 -500 c 2
 81 -500 l 2
 54 -500 50 -489 50 -464 c 2
 50 -424 l 2
 50 -398 52 -390 77 -390 c 2
 191 -390 l 2
 228 -390 230 -382 230 -344 c 2
 230 1412 l 2
 230 1447 218 1450 185 1450 c 2
 85 1450 l 2
 53 1450 50 1460 50 1490 c 2
EndSplineSet
EndChar

StartChar: oslash
Encoding: 248 248 277
Width: 1139
Flags: MW
LayerCount: 2
Fore
SplineSet
926 1215 m 2
 971 1215 l 2
 1009 1215 1010 1211 1000 1192 c 2
 283 -165 l 2
 272 -186 262 -189 221 -189 c 2
 189 -189 l 2
 140 -189 137 -181 149 -158 c 2
 870 1189 l 2
 881 1209 886 1215 926 1215 c 2
EndSplineSet
Refer: 52 111 N 1 0 0 1 0 0 2
EndChar

StartChar: dcroat
Encoding: 273 273 304
Width: 1283
Flags: HMW
LayerCount: 2
Fore
SplineSet
543 1300 m 2
 1211 1300 l 2
 1236 1300 1238 1296 1238 1272 c 2
 1238 1223 l 2
 1238 1199 1236 1190 1208 1190 c 2
 541 1190 l 2
 514 1190 513 1194 513 1220 c 2
 513 1272 l 2
 513 1295 521 1300 543 1300 c 2
EndSplineSet
Refer: 41 100 N 1 0 0 1 -0 0 2
EndChar

StartChar: Dcroat
Encoding: 272 272 305
Width: 1645
Flags: MW
LayerCount: 2
Fore
SplineSet
110 840 m 2
 872 840 l 2
 900 840 903 836 903 812 c 2
 903 763 l 2
 903 739 901 730 869 730 c 2
 108 730 l 2
 78 730 76 734 76 760 c 2
 76 812 l 2
 76 835 84 840 110 840 c 2
EndSplineSet
Refer: 15 68 N 1 0 0 1 0 0 2
EndChar

StartChar: Hbar
Encoding: 294 294 307
Width: 1770
Flags: MW
LayerCount: 2
Fore
SplineSet
143 1190 m 2
 1633 1190 l 2
 1688 1190 1695 1186 1695 1162 c 2
 1695 1113 l 2
 1695 1089 1690 1080 1628 1080 c 2
 138 1080 l 2
 78 1080 76 1084 76 1110 c 2
 76 1162 l 2
 76 1185 93 1190 143 1190 c 2
EndSplineSet
Refer: 19 72 N 1 0 0 1 0 0 2
EndChar

StartChar: hbar
Encoding: 295 295 308
Width: 1345
Flags: MW
LayerCount: 2
Fore
SplineSet
108 1290 m 2
 870 1290 l 2
 898 1290 901 1286 901 1262 c 2
 901 1213 l 2
 901 1189 899 1180 867 1180 c 2
 106 1180 l 2
 76 1180 74 1184 74 1210 c 2
 74 1262 l 2
 74 1285 82 1290 108 1290 c 2
EndSplineSet
Refer: 45 104 N 1 0 0 1 0 0 2
EndChar

StartChar: uni0237
Encoding: 567 567 330
Width: 584
Flags: MW
AnchorPoint: "Anchor-0" 295 1040 basechar 0
AnchorPoint: "Anchor-1" 142 -565 basechar 0
AnchorPoint: "Anchor-2" 142 -565 basechar 0
LayerCount: 2
Fore
SplineSet
210 930 m 2
 73 930 l 2
 54 930 50 931 50 950 c 2
 50 1017 l 2
 50 1037 53 1040 73 1040 c 2
 386 1040 l 2
 404 1040 410 1037 410 1018 c 2
 410 22 l 2
 410 -278 368 -520 86 -520 c 0
 -92 -520 -196 -404 -196 -280 c 0
 -196 -204 -148 -138 -78 -138 c 0
 -10 -138 38 -184 38 -250 c 0
 38 -320 0 -318 0 -358 c 0
 0 -384 12 -432 86 -432 c 0
 308 -432 230 -20 230 208 c 2
 230 911 l 2
 230 926 224 930 210 930 c 2
EndSplineSet
EndChar

StartChar: kgreenlandic
Encoding: 312 312 335
Width: 1222
Flags: MW
LayerCount: 2
Fore
SplineSet
191 930 m 2
 76 930 l 2
 52 930 50 933 50 956 c 2
 50 1004 l 2
 50 1032 52 1040 79 1040 c 2
 363 1040 l 2
 393 1040 410 1034 410 1001 c 2
 410 648 l 2
 410 612 405 591 429 610 c 2
 799 899 l 2
 835 927 847 930 779 930 c 2
 661 930 l 2
 629 930 628 939 628 972 c 2
 628 1010 l 2
 628 1033 631 1040 653 1040 c 2
 1145 1040 l 2
 1168 1040 1174 1034 1174 1010 c 2
 1174 960 l 2
 1174 932 1166 930 1137 930 c 2
 1029 930 l 2
 999 930 984 923 969 910 c 2
 627 631 l 2
 604 612 602 612 623 590 c 2
 1058 134 l 2
 1075 116 1080 110 1117 110 c 2
 1179 110 l 2
 1197 110 1202 104 1202 85 c 2
 1202 38 l 2
 1202 6 1193 0 1163 0 c 2
 757 0 l 2
 729 0 728 9 728 38 c 2
 728 75 l 2
 728 104 731 110 759 110 c 2
 808 110 l 2
 852 110 845 118 828 136 c 2
 429 546 l 2
 414 561 410 554 410 518 c 2
 410 146 l 2
 410 119 414 110 443 110 c 2
 533 110 l 2
 554 110 570 107 570 84 c 2
 570 22 l 2
 570 2 562 0 541 0 c 2
 75 0 l 2
 54 0 50 11 50 30 c 2
 50 92 l 2
 50 109 59 110 77 110 c 2
 195 110 l 2
 222 110 230 112 230 138 c 2
 230 898 l 2
 230 927 218 930 191 930 c 2
EndSplineSet
EndChar

StartChar: Lslash
Encoding: 321 321 344
Width: 1455
Flags: MW
LayerCount: 2
Fore
SplineSet
144 736 m 2
 778 1139 l 2
 798 1152 811 1173 811 1132 c 2
 811 1083 l 2
 811 1048 809 1044 788 1031 c 2
 150 625 l 2
 130 613 120 594 120 634 c 2
 120 695 l 2
 120 725 127 725 144 736 c 2
EndSplineSet
Refer: 23 76 N 1 0 0 1 0 0 2
EndChar

StartChar: lslash
Encoding: 322 322 345
Width: 619
Flags: HMW
LayerCount: 2
Fore
SplineSet
60 810 m 2
 590 1145 l 2
 611 1159 614 1165 614 1128 c 2
 614 1068 l 2
 614 1031 610 1030 588 1016 c 2
 68 687 l 2
 48 674 44 665 44 701 c 2
 44 775 l 2
 44 799 46 801 60 810 c 2
EndSplineSet
Refer: 49 108 N 1 0 0 1 0 0 2
EndChar

StartChar: eng
Encoding: 331 331 353
Width: 1345
Flags: MW
LayerCount: 2
Fore
SplineSet
236 930 m 2
 101 930 l 2
 84 930 80 937 80 955 c 2
 80 1017 l 2
 80 1033 84 1040 99 1040 c 2
 409 1040 l 2
 431 1040 440 1023 440 1005 c 2
 440 888 l 2
 440 836 447 849 460 871 c 0
 524 978 633 1060 806 1060 c 0
 1060 1060 1130 952 1130 738 c 2
 1130 22 l 2
 1130 -278 1088 -520 806 -520 c 0
 628 -520 524 -404 524 -280 c 0
 524 -204 572 -138 642 -138 c 0
 710 -138 758 -184 758 -250 c 0
 758 -320 720 -318 720 -358 c 0
 720 -384 732 -432 806 -432 c 0
 1028 -432 950 -20 950 208 c 2
 950 716 l 2
 950 864 892 946 760 946 c 0
 564 946 440 772 440 566 c 2
 440 151 l 2
 440 120 451 110 482 110 c 2
 585 110 l 2
 612 110 620 105 620 76 c 2
 620 30 l 2
 620 6 615 0 592 0 c 2
 108 0 l 2
 84 0 80 7 80 32 c 2
 80 78 l 2
 80 106 90 110 116 110 c 2
 226 110 l 2
 252 110 260 113 260 138 c 2
 260 913 l 2
 260 928 252 930 236 930 c 2
EndSplineSet
EndChar

StartChar: Eng
Encoding: 330 330 354
Width: 1636
Flags: MW
LayerCount: 2
Fore
SplineSet
272 1390 m 2
 97 1390 l 2
 80 1390 76 1397 76 1415 c 2
 76 1477 l 2
 76 1493 80 1500 95 1500 c 2
 455 1500 l 2
 477 1500 486 1483 486 1465 c 2
 486 1228 l 2
 486 1176 493 1189 506 1211 c 0
 570 1318 749 1520 1012 1520 c 0
 1316 1520 1476 1372 1476 1098 c 2
 1476 22 l 2
 1476 -278 1434 -520 1152 -520 c 0
 974 -520 870 -404 870 -280 c 0
 870 -204 918 -138 988 -138 c 0
 1056 -138 1104 -184 1104 -250 c 0
 1104 -320 1066 -318 1066 -358 c 0
 1066 -384 1078 -432 1152 -432 c 0
 1374 -432 1286 -20 1286 208 c 2
 1286 1076 l 2
 1286 1284 1148 1406 966 1406 c 0
 720 1406 486 1142 486 936 c 2
 486 151 l 2
 486 120 497 110 528 110 c 2
 691 110 l 2
 718 110 726 105 726 76 c 2
 726 30 l 2
 726 6 721 0 698 0 c 2
 104 0 l 2
 80 0 76 7 76 32 c 2
 76 78 l 2
 76 106 86 110 112 110 c 2
 262 110 l 2
 288 110 296 113 296 138 c 2
 296 1373 l 2
 296 1388 288 1390 272 1390 c 2
EndSplineSet
EndChar

StartChar: OE
Encoding: 338 338 361
Width: 2424
Flags: MW
LayerCount: 2
Fore
SplineSet
1050 1500 m 1
 1050 1390 l 1
 830 1390 l 2
 462 1390 340 1114 340 750 c 0
 340 386 482 110 830 110 c 2
 1050 110 l 1
 1050 0 l 1
 830 0 l 2
 384 0 110 324 110 750 c 0
 110 1176 404 1500 830 1500 c 2
 1050 1500 l 1
EndSplineSet
Refer: 16 69 N 1 0 0 1 909 0 2
EndChar

StartChar: Tbar
Encoding: 358 358 404
Width: 1550
Flags: MW
LayerCount: 2
Fore
SplineSet
394 820 m 2
 1156 820 l 2
 1184 820 1187 816 1187 792 c 2
 1187 743 l 2
 1187 719 1185 710 1153 710 c 2
 392 710 l 2
 362 710 360 714 360 740 c 2
 360 792 l 2
 360 815 368 820 394 820 c 2
EndSplineSet
Refer: 31 84 N 1 0 0 1 0 0 2
EndChar

StartChar: tbar
Encoding: 359 359 405
Width: 709
Flags: MW
LayerCount: 2
Fore
SplineSet
43 720 m 2
 652 720 l 2
 674 720 678 716 678 692 c 2
 678 643 l 2
 678 619 675 610 650 610 c 2
 41 610 l 2
 17 610 16 614 16 640 c 2
 16 692 l 2
 16 715 23 720 43 720 c 2
EndSplineSet
Refer: 57 116 N 1 0 0 1 -0 0 2
EndChar

StartChar: longs
Encoding: 383 383 406
Width: 782
Flags: MW
LayerCount: 2
Fore
SplineSet
402 146 m 6
 402 114 403 110 435 110 c 6
 603 110 l 6
 622 110 642 109 642 88 c 6
 642 30 l 6
 642 5 634 0 610 0 c 6
 65 0 l 6
 44 0 42 4 42 26 c 6
 42 88 l 6
 42 108 52 110 70 110 c 6
 200 110 l 6
 221 110 222 117 222 137 c 6
 222 1144 l 6
 222 1406 356 1580 616 1580 c 4
 818 1580 952 1472 952 1358 c 4
 952 1272 904 1226 834 1226 c 4
 764 1226 718 1266 718 1322 c 4
 718 1382 760 1396 760 1436 c 4
 760 1460 724 1490 620 1490 c 4
 460 1490 402 1354 402 1100 c 6
 402 146 l 6
EndSplineSet
EndChar

StartChar: uni0394
Encoding: 916 916 413
Width: 1720
Flags: MW
LayerCount: 2
Fore
SplineSet
1248 110 m 2
 1280 110 1272 127 1265 146 c 2
 848 1256 l 2
 833 1296 831 1296 816 1262 c 2
 346 158 l 2
 332 126 333 110 377 110 c 2
 1248 110 l 2
1468 0 m 10
 216 0 l 18
 166 0 155 12 167 40 c 2
 808 1520 l 2
 812 1529 816 1530 829 1530 c 2
 909 1530 l 2
 925 1530 931 1529 935 1518 c 2
 1522 44 l 2
 1535 12 1528 0 1468 0 c 10
EndSplineSet
EndChar

StartChar: uni03BC
Encoding: 956 956 414
Width: 1345
Flags: HMW
LayerCount: 2
Fore
SplineSet
235 76 m 14
 235 897 l 6
 235 922 233 930 209 930 c 6
 91 930 l 6
 64 930 55 931 55 958 c 6
 55 1004 l 6
 55 1035 62 1040 91 1040 c 6
 377 1040 l 6
 407 1040 415 1038 415 1009 c 6
 415 324 l 6
 415 176 473 74 605 74 c 4
 801 74 925 268 925 474 c 6
 925 896 l 6
 925 928 912 930 883 930 c 6
 773 930 l 6
 755 930 745 931 745 949 c 6
 745 1012 l 6
 745 1033 749 1040 769 1040 c 6
 1081 1040 l 6
 1102 1040 1105 1032 1105 1010 c 6
 1105 144 l 6
 1105 114 1108 110 1139 110 c 6
 1251 110 l 6
 1269 110 1285 107 1285 86 c 6
 1285 34 l 6
 1285 7 1283 0 1257 0 c 6
 959 0 l 6
 929 0 925 7 925 38 c 6
 925 159 l 6
 925 172 915 187 901 163 c 4
 837 56 733 -20 559 -20 c 4
 474.85488071 -20 410.903105745 -8.14738485279 363 15.4851318472 c 4
 311.13051481 41.0744220595 311.13051481 41.0744220595 319.011706659 -12 c 4
 331.50175246 -96.1118926078 355.208935326 -182.726235573 371 -288 c 4
 373 -302 373 -312 373 -324 c 4
 373 -402 331 -446 273 -446 c 4
 215 -446 173 -402 173 -324 c 4
 173 -312 173 -302 175 -288 c 4
 196 -146 235 -37 235 76 c 14
EndSplineSet
EndChar

StartChar: pi
Encoding: 960 960 415
Width: 1330
Flags: HMW
LayerCount: 2
Fore
SplineSet
1205 1004 m 2
 1205 927 l 2
 1205 880 1195 880 1152 880 c 2
 1087 880 l 2
 1055 880 1055 870 1055 824 c 2
 1055 221 l 2
 1055 152.05078125 1081.03417969 113 1127 113 c 0
 1183.60449219 113 1215.8203125 145.861328125 1242 169 c 0
 1253.0390625 178.756835938 1255.52246094 183.58203125 1265 176 c 2
 1301 154 l 2
 1312 147 1314.20019531 142.375976562 1307 130 c 4
 1255.86132812 42.0986328125 1174.48730469 -20 1079 -20 c 4
 944.21875 -20 875 50.576171875 875 188 c 2
 875 812 l 2
 875 870 865 880 810 880 c 2
 467 880 l 2
 435 880 425 870 425 821 c 2
 425 134 l 2
 425 117 430 110 446 110 c 2
 581 110 l 2
 600 110 605 109 605 90 c 2
 605 24 l 2
 605 5 605 0 586 0 c 2
 96 0 l 2
 73 0 65 2 65 24 c 2
 65 80 l 2
 65 106 74 110 98 110 c 2
 222 110 l 2
 244 110 245 116 245 138 c 2
 245 856 l 2
 245 876 239 880 221 880 c 2
 86 880 l 2
 66 880 65 884 65 904 c 2
 65 1014 l 2
 65 1034 70 1040 89 1040 c 2
 1137 1040 l 6
 1195 1040 1205 1030 1205 1004 c 2
EndSplineSet
EndChar

StartChar: uni03A9
Encoding: 937 937 416
Width: 1602
Flags: HMW
LayerCount: 2
Fore
SplineSet
1488 450 m 2
 1532 450 l 2
 1566 450 1566 430 1566 392 c 2
 1566 66 l 2
 1566 10 1566 0 1496 0 c 2
 1004 0 l 2
 927 0 927 -7.1054273576e-15 927 52 c 2
 927 164 l 2
 927 211.515086285 927 211.515086285 973.977894793 239.999994623 c 0
 1123.9598283 330.941098885 1257 561.352539062 1257 845 c 0
 1257 1188 1109 1413 801 1413 c 0
 493 1413 346 1188 346 845 c 0
 346 556.961914062 483.191562592 316.509593757 635.999995056 227.032033384 c 0
 676 203.609877946 676 203.609877946 676 164 c 2
 676 60 l 2
 676 0 676 0 604 0 c 2
 80 0 l 2
 37 0 37 0 37 40 c 2
 37 362 l 2
 37 420 37 450 64 450 c 2
 104 450 l 2
 148.69865705 450 148.69865705 450 151.189186609 407.999995888 c 0
 161.475531238 234.532262804 238.67888248 163 390 163 c 2
 456 163 l 2
 496 163 516 163 516 184 c 0
 516 203.345563321 513.620481066 199.544403905 459.610401898 235.999982971 c 4
 294.936101092 347.151402959 117 552.4609375 117 845 c 0
 117 1251 384 1520 801 1520 c 0
 1218 1520 1486 1251 1486 845 c 0
 1486 545.043945312 1299.4401704 341.939060728 1130.09304586 236.000026175 c 4
 1088.66094367 210.081210504 1087 212.948052376 1087 188 c 0
 1087 163 1107 163 1144 163 c 2
 1213 163 l 2
 1360.78330699 163 1437.87402344 221.2265625 1450.97949219 386 c 0
 1455.27441406 440 1455.27449842 450 1488 450 c 2
EndSplineSet
EndChar

StartChar: uni1E9E
Encoding: 7838 7838 427
Width: 1892
Flags: MW
LayerCount: 2
Fore
SplineSet
915 271 m 1
 915 151 1127 97 1273 97 c 0
 1471 97 1602 192 1602 380 c 0
 1602 528 1575 735 1137 735 c 1
 1137 848 l 1
 1719 848 1812 601 1812 380 c 0
 1812 120 1594 -20 1312 -20 c 0
 1028 -20 780 126 780 271 c 0
 780 353 831 412 911 412 c 0
 982 412 1029 362 1029 290 c 0
 1029 226 975 180 916 180 c 0
 855 180 782 221 782 271 c 1
 915 271 l 1
50 110 m 1
 611 110 l 1
 611 0 l 1
 50 0 l 1
 50 110 l 1
1337 820 m 1
 1296 831 1204 838 1137 848 c 1
 1520 1298 l 1
 1440 1363 1245 1407 1097 1407 c 0
 619 1407 431 1205 431 861 c 2
 431 0 l 1
 231 0 l 1
 231 882 l 2
 231 1288 561 1520 1097 1520 c 0
 1404 1520 1692 1388 1753 1322 c 1
 1337 820 l 1
EndSplineSet
EndChar

StartChar: guilsinglleft
Encoding: 8249 8249 430
Width: 830
Flags: MW
LayerCount: 2
Fore
SplineSet
302 775 m 1
 770 380 l 1
 710 290 l 1
 50 750 l 1
 50 800 l 1
 710 1260 l 1
 770 1170 l 1
 302 775 l 1
EndSplineSet
EndChar

StartChar: guilsinglright
Encoding: 8250 8250 431
Width: 830
Flags: MW
LayerCount: 2
Fore
SplineSet
528 775 m 1
 60 1170 l 1
 120 1260 l 1
 780 800 l 1
 780 750 l 1
 120 290 l 1
 60 380 l 1
 528 775 l 1
EndSplineSet
EndChar

StartChar: uni2074
Encoding: 8308 8308 432
Width: 757
Flags: MW
LayerCount: 2
Fore
SplineSet
659 969 m 2
 659 935 l 2
 659 921 654 919 640 919 c 2
 360 919 l 2
 345 919 341 922 341 938 c 2
 341 965 l 2
 341 981 344 985 359 985 c 2
 438 985 l 2
 451 985 455 988 455 1000 c 2
 455 1172 l 2
 455 1191 453 1195 435 1195 c 2
 133 1195 l 2
 115 1195 111 1197 103 1205 c 2
 87 1221 l 2
 76 1232 78 1236 85 1252 c 0
 169 1451 417 1549 478 1787 c 0
 483 1805 477 1819 502 1819 c 2
 568 1819 l 2
 593 1819 597 1816 594 1794 c 0
 561 1547 276 1444 181 1290 c 0
 170 1271 175 1261 209 1261 c 2
 444 1261 l 2
 457 1261 455 1264 455 1276 c 2
 455 1351 l 2
 455 1371 460 1370 470 1378 c 0
 498 1400 515 1428 533 1482 c 0
 537 1492 535 1501 550 1501 c 2
 553 1501 l 2
 569 1501 569 1496 569 1482 c 2
 569 1287 l 2
 569 1264 572 1261 594 1261 c 2
 658 1261 l 2
 674 1261 677 1257 677 1240 c 2
 677 1213 l 2
 677 1197 672 1195 655 1195 c 2
 590 1195 l 2
 571 1195 569 1189 569 1172 c 2
 569 1007 l 2
 569 988 573 985 592 985 c 2
 638 985 l 2
 653 985 659 984 659 969 c 2
EndSplineSet
EndChar

StartChar: Euro
Encoding: 8364 8364 433
Width: 1629
Flags: MW
LayerCount: 2
Fore
SplineSet
1040 1404 m 0
 692 1404 500 1114 500 750 c 0
 500 386 682 98 980 98 c 0
 1281 98 1431 325 1438 464 c 0
 1439 476 1444 480 1458 480 c 2
 1528 480 l 2
 1542 480 1549 479 1549 466 c 0
 1544 266 1341 -20 960 -20 c 0
 584 -20 270 304 270 750 c 0
 270 1196 624 1520 1030 1520 c 0
 1324 1520 1512 1356 1512 1152 c 0
 1512 1056 1442 1020 1384 1020 c 0
 1330 1020 1270 1062 1270 1136 c 0
 1270 1208 1334 1218 1334 1264 c 0
 1334 1318 1258 1404 1040 1404 c 0
EndSplineSet
Refer: 87 61 N 1 0 0 1 -70 -30 2
EndChar

StartChar: partialdiff
Encoding: 8706 8706 434
Width: 1100
Flags: MW
LayerCount: 2
Fore
SplineSet
354 1382 m 0
 354 1356 402 1338 402 1266 c 0
 402 1192 342 1150 288 1150 c 0
 230 1150 160 1186 160 1282 c 0
 160 1446 308 1520 472 1520 c 0
 794 1520 1000 1220 1000 740 c 0
 1000 170 844 -20 522 -20 c 0
 240 -20 60 150 60 470 c 0
 60 800 246 960 468 960 c 0
 600 960 700 913 767 839 c 0
 784 820 788 806 796 810 c 0
 803 814 799 827 797 860 c 0
 781 1203 694 1436 462 1436 c 0
 384 1436 354 1408 354 1382 c 0
260 470 m 0
 260 252 324 70 502 70 c 0
 700 70 800 262 800 560 c 0
 800 720 678 862 512 862 c 0
 354 862 260 698 260 470 c 0
EndSplineSet
EndChar

StartChar: emptyset
Encoding: 8709 8709 435
Width: 1140
Flags: MW
LayerCount: 2
Fore
SplineSet
48 311 m 1
 1019 1282 l 1
 1102 1209 l 1
 131 238 l 1
 48 311 l 1
242 770 m 0
 242 592 358 433 571 433 c 0
 784 433 898 592 898 770 c 0
 898 948 784 1107 571 1107 c 0
 358 1107 242 948 242 770 c 0
112 770 m 0
 112 1020 289 1229 571 1229 c 0
 853 1229 1028 1020 1028 770 c 0
 1028 520 853 310 571 310 c 0
 289 310 112 520 112 770 c 0
EndSplineSet
EndChar

StartChar: summation
Encoding: 8721 8721 436
Width: 1305
Flags: MW
LayerCount: 2
Fore
SplineSet
66 1500 m 1
 1170 1500 l 1
 1170 1090 l 1
 1056 1090 l 1
 1056 1304 1031 1387 797 1387 c 2
 296 1387 l 1
 702 813 l 1
 252 113 l 1
 776 113 l 2
 1049 113 1076 196 1076 450 c 1
 1189 450 l 1
 1189 0 l 1
 56 0 l 1
 528 750 l 1
 66 1387 l 1
 66 1500 l 1
EndSplineSet
EndChar

StartChar: minus
Encoding: 8722 8722 437
Width: 1224
Flags: MW
LayerCount: 2
Fore
SplineSet
160 830 m 2
 1066 830 l 2
 1099 830 1104 826 1104 802 c 2
 1104 753 l 2
 1104 729 1102 720 1064 720 c 2
 157 720 l 2
 121 720 120 724 120 750 c 2
 120 802 l 2
 120 825 130 830 160 830 c 2
EndSplineSet
EndChar

StartChar: uni2219
Encoding: 8729 8729 439
Width: 440
Flags: MW
LayerCount: 2
Fore
SplineSet
100 770 m 0
 100 836 154 890 220 890 c 0
 286 890 340 836 340 770 c 0
 340 704 286 650 220 650 c 0
 154 650 100 704 100 770 c 0
EndSplineSet
EndChar

StartChar: product
Encoding: 8719 8719 440
Width: 1770
Flags: MW
LayerCount: 2
Fore
SplineSet
485 1347 m 2
 485 150 l 2
 485 119 490 110 523 110 c 2
 692 110 l 2
 719 110 725 105 725 76 c 2
 725 50 l 2
 725 5 719 0 675 0 c 2
 115 0 l 2
 82 0 75 5 75 40 c 2
 75 68 l 2
 75 104 81 110 116 110 c 2
 254 110 l 2
 286 110 295 112 295 144 c 2
 295 1351 l 2
 295 1383 286 1390 256 1390 c 2
 110 1390 l 2
 76 1390 75 1401 75 1436 c 2
 75 1462 l 2
 75 1494 85 1500 115 1500 c 2
 1655 1500 l 2
 1687 1500 1695 1496 1695 1462 c 2
 1695 1424 l 2
 1695 1396 1686 1390 1656 1390 c 2
 1530 1390 l 2
 1486 1390 1475 1388 1475 1344 c 2
 1475 144 l 2
 1475 116 1482 110 1512 110 c 2
 1656 110 l 2
 1683 110 1695 107 1695 78 c 2
 1695 44 l 2
 1695 2 1684 0 1645 0 c 2
 1085 0 l 2
 1049 0 1045 7 1045 44 c 2
 1045 74 l 2
 1045 102 1047 110 1074 110 c 2
 1243 110 l 2
 1282 110 1285 123 1285 160 c 2
 1285 1338 l 2
 1285 1382 1279 1390 1236 1390 c 2
 532 1390 l 2
 490 1390 485 1384 485 1347 c 2
EndSplineSet
EndChar

StartChar: radical
Encoding: 8730 8730 441
Width: 1130
Flags: MW
LayerCount: 2
Fore
SplineSet
966 1390 m 1
 657 -20 l 1
 539 -20 l 1
 263 421 l 1
 151 363 l 1
 111 450 l 1
 342 580 l 1
 586 160 l 1
 889 1500 l 1
 1130 1500 l 1
 1130 1390 l 1
 966 1390 l 1
EndSplineSet
EndChar

StartChar: infinity
Encoding: 8734 8734 442
Width: 1813
Flags: MW
LayerCount: 2
Fore
SplineSet
1622 780 m 0
 1622 948 1517 1047 1364 1047 c 0
 1237 1047 1126 945 1031 825 c 0
 1004 791 992 784 1020 748 c 0
 1117 623 1232 513 1364 513 c 0
 1517 513 1622 622 1622 780 c 0
1763 780 m 0
 1763 540 1606 401 1364 401 c 0
 1209 401 1061 508 946 644 c 0
 906 691 910 696 870 648 c 0
 754 510 606 401 449 401 c 0
 207 401 50 550 50 780 c 0
 50 1020 207 1159 449 1159 c 0
 611 1159 763 1044 881 899 c 0
 906 868 904 864 930 896 c 0
 1048 1043 1201 1159 1364 1159 c 0
 1606 1159 1763 1020 1763 780 c 0
786 820 m 0
 688 942 568 1047 439 1047 c 0
 286 1047 191 928 191 780 c 0
 191 622 286 513 439 513 c 0
 569 513 691 621 789 744 c 0
 818 780 815 784 786 820 c 0
EndSplineSet
EndChar

StartChar: integral
Encoding: 8747 8747 443
Width: 782
Flags: MW
LayerCount: 2
Fore
SplineSet
222 1144 m 2
 222 1406 356 1580 616 1580 c 0
 818 1580 952 1472 952 1358 c 0
 952 1272 904 1226 834 1226 c 0
 764 1226 718 1266 718 1322 c 0
 718 1382 760 1396 760 1436 c 0
 760 1460 724 1490 620 1490 c 0
 460 1490 402 1354 402 1100 c 2
 402 -85 l 2
 402 -347 268 -521 8 -521 c 0
 -194 -521 -328 -413 -328 -299 c 0
 -328 -213 -280 -167 -210 -167 c 0
 -140 -167 -94 -207 -94 -263 c 0
 -94 -323 -136 -337 -136 -377 c 0
 -136 -401 -100 -431 4 -431 c 0
 164 -431 222 -295 222 -41 c 2
 222 1144 l 2
EndSplineSet
EndChar

StartChar: approxequal
Encoding: 8776 8776 444
Width: 1200
Flags: MW
LayerCount: 2
Fore
SplineSet
798 864 m 0
 680 864 597 942 542 1007 c 0
 493 1065 441 1091 388 1091 c 0
 281 1091 232 1036 232 957 c 0
 232 941 234 925 238 907 c 2
 238 907 239 905 239 904 c 0
 240 893 230 882 219 882 c 2
 136 882 l 2
 127 882 119 888 117 897 c 0
 80 1028 169 1164 307 1203 c 0
 333 1210 359 1214 388 1214 c 0
 513 1214 596 1133 650 1071 c 0
 699 1014 737 987 788 987 c 0
 877 987 918 1035 918 1110 c 0
 918 1129 916 1149 910 1171 c 0
 910 1172 909 1173 909 1174 c 0
 908 1185 918 1196 929 1196 c 2
 1012 1196 l 2
 1020 1196 1029 1190 1031 1181 c 0
 1065 1038 975 900 849 870 c 0
 832 866 816 864 798 864 c 0
798 364 m 0
 680 364 597 442 542 507 c 0
 493 565 441 591 388 591 c 0
 281 591 232 536 232 457 c 0
 232 441 234 425 238 407 c 2
 238 407 239 405 239 404 c 0
 240 393 230 382 219 382 c 2
 136 382 l 2
 127 382 119 388 117 397 c 0
 80 528 169 664 307 703 c 0
 333 710 359 714 388 714 c 0
 513 714 596 633 650 571 c 0
 699 514 737 487 788 487 c 0
 877 487 918 535 918 610 c 0
 918 629 916 649 910 671 c 0
 910 672 909 673 909 674 c 0
 908 685 918 696 929 696 c 2
 1012 696 l 2
 1020 696 1029 690 1031 681 c 0
 1065 538 975 400 849 370 c 0
 832 366 816 364 798 364 c 0
EndSplineSet
EndChar

StartChar: notequal
Encoding: 8800 8800 445
Width: 1119
Flags: MW
LayerCount: 2
Fore
SplineSet
157 980 m 2
 967 980 l 2
 997 980 1000 976 1000 952 c 2
 1000 903 l 2
 1000 879 998 870 964 870 c 2
 154 870 l 2
 122 870 120 874 120 900 c 2
 120 952 l 2
 120 975 130 980 157 980 c 2
157 680 m 2
 967 680 l 2
 997 680 1000 676 1000 652 c 2
 1000 603 l 2
 1000 579 998 570 964 570 c 2
 154 570 l 2
 122 570 120 574 120 600 c 2
 120 652 l 2
 120 675 130 680 157 680 c 2
190 282 m 2
 859 1239 l 2
 884 1274 890 1276 906 1265 c 2
 938 1243 l 2
 954 1232 957 1225 929 1185 c 2
 259 228 l 2
 232 190 229 191 212 203 c 2
 178 226 l 2
 163 237 168 250 190 282 c 2
EndSplineSet
EndChar

StartChar: lessequal
Encoding: 8804 8804 446
Width: 1119
Flags: MW
LayerCount: 2
Fore
SplineSet
296 752 m 2
 962 495 l 2
 990 484 1000 477 1000 437 c 2
 1000 395 l 2
 1000 350 983 357 956 367 c 2
 152 678 l 2
 123 689 120 699 120 740 c 2
 120 820 l 2
 120 862 125 862 154 873 c 2
 966 1187 l 2
 991 1197 1000 1193 1000 1159 c 2
 1000 1113 l 2
 1000 1076 989 1066 964 1056 c 2
 298 799 l 2
 267 787 250 787 250 776 c 0
 250 765 263 765 296 752 c 2
156 170 m 2
 966 170 l 2
 996 170 1000 166 1000 142 c 2
 1000 93 l 2
 1000 69 998 60 964 60 c 2
 153 60 l 2
 121 60 120 64 120 90 c 2
 120 142 l 2
 120 165 129 170 156 170 c 2
EndSplineSet
EndChar

StartChar: greaterequal
Encoding: 8805 8805 447
Width: 1119
Flags: MW
LayerCount: 2
Fore
SplineSet
824 798 m 2
 158 1055 l 2
 130 1066 120 1073 120 1113 c 2
 120 1155 l 2
 120 1200 137 1193 164 1183 c 2
 968 872 l 2
 997 861 1000 851 1000 810 c 2
 1000 730 l 2
 1000 688 995 688 966 677 c 2
 154 363 l 2
 129 353 120 357 120 391 c 2
 120 437 l 2
 120 474 131 484 156 494 c 2
 822 751 l 2
 853 763 870 763 870 774 c 0
 870 785 857 785 824 798 c 2
156 170 m 2
 966 170 l 2
 996 170 1000 166 1000 142 c 2
 1000 93 l 2
 1000 69 998 60 964 60 c 2
 153 60 l 2
 121 60 120 64 120 90 c 2
 120 142 l 2
 120 165 129 170 156 170 c 2
EndSplineSet
EndChar

StartChar: lozenge
Encoding: 9674 9674 448
Width: 1200
Flags: MW
LayerCount: 2
Fore
SplineSet
612 30 m 257
 1000 712 l 257
 612 1392 l 257
 200 712 l 257
 612 30 l 257
612 250 m 257
 340 712 l 257
 612 1172 l 257
 868 712 l 257
 612 250 l 257
EndSplineSet
EndChar

StartChar: uniF8E8
Encoding: 63720 63720 449
Width: 1125
Flags: MW
LayerCount: 2
Fore
SplineSet
562 1592 m 256
 828 1592 1025 1395 1025 1130 c 256
 1025 864 827 668 562 668 c 256
 296 668 100 865 100 1130 c 256
 100 1396 297 1592 562 1592 c 256
562 724 m 256
 792 724 968 889 968 1130 c 256
 968 1371 791 1536 562 1536 c 256
 332 1536 157 1371 157 1130 c 256
 157 888 333 724 562 724 c 256
855 932 m 0
 842 888 811 856 752 856 c 0
 584 856 750 1112 565 1112 c 2
 473 1112 l 2
 457 1112 457 1109 457 1093 c 2
 457 915 l 2
 457 904 459 903 471 903 c 2
 525 903 l 2
 535 903 536 900 536 890 c 2
 536 874 l 2
 536 865 533 864 524 864 c 2
 320 864 l 2
 311 864 309 866 309 875 c 2
 309 891 l 2
 309 902 312 903 322 903 c 2
 371 903 l 2
 386 903 388 905 388 919 c 2
 388 1347 l 2
 388 1362 386 1364 371 1364 c 2
 322 1364 l 2
 309 1364 309 1367 309 1380 c 2
 309 1391 l 2
 309 1400 310 1404 319 1404 c 2
 594 1404 l 2
 724 1404 774 1339 774 1260 c 0
 774 1201 749 1157 681 1136 c 0
 667 1132 667 1127 683 1119 c 0
 789 1062 699 903 778 903 c 0
 791 903 805 915 816 940 c 0
 819 946 821 951 828 948 c 2
 846 942 l 2
 853 939 857 938 855 932 c 0
474 1155 m 2
 594 1155 l 2
 649 1155 702 1189 702 1260 c 0
 702 1331 649 1364 594 1364 c 2
 474 1364 l 2
 457 1364 457 1364 457 1347 c 2
 457 1172 l 2
 457 1157 459 1155 474 1155 c 2
EndSplineSet
EndChar

StartChar: uniF8E9
Encoding: 63721 63721 450
Width: 1125
Flags: MW
LayerCount: 2
Fore
SplineSet
562 1592 m 256
 828 1592 1025 1395 1025 1130 c 256
 1025 864 827 668 562 668 c 256
 296 668 100 865 100 1130 c 256
 100 1396 297 1592 562 1592 c 256
562 724 m 256
 792 724 968 889 968 1130 c 256
 968 1371 791 1536 562 1536 c 256
 332 1536 157 1371 157 1130 c 256
 157 888 333 724 562 724 c 256
292 1124 m 0
 292 1285 420 1401 566 1401 c 0
 635 1401 690 1372 726 1334 c 0
 733 1326 736 1327 740 1340 c 2
 755 1391 l 2
 756 1396 756 1398 763 1398 c 2
 782 1398 l 2
 788 1398 789 1397 789 1391 c 2
 789 1220 l 2
 789 1212 787 1210 779 1210 c 2
 757 1210 l 2
 748 1210 749 1213 748 1221 c 0
 736 1291 669 1359 570 1359 c 0
 445 1359 375 1255 375 1124 c 0
 375 993 437 889 562 889 c 0
 678 889 746 975 756 1061 c 0
 756 1065 758 1066 763 1066 c 2
 788 1066 l 2
 793 1066 796 1066 796 1061 c 0
 787 939 699 847 555 847 c 0
 402 847 292 963 292 1124 c 0
EndSplineSet
EndChar

StartChar: uniF8EA
Encoding: 63722 63722 451
Width: 1426
Flags: MW
LayerCount: 2
Fore
SplineSet
221 990 m 2
 221 1002 l 2
 221 1014 225 1015 236 1015 c 2
 295 1015 l 2
 312 1015 315 1016 315 1034 c 2
 315 1463 l 2
 315 1477 312 1479 299 1479 c 2
 264 1479 l 2
 170 1479 144 1447 142 1346 c 0
 142 1335 140 1331 128 1331 c 2
 118 1331 l 2
 106 1331 106 1339 106 1350 c 2
 106 1496 l 2
 106 1513 107 1515 123 1515 c 2
 577 1515 l 2
 591 1515 592 1512 592 1498 c 2
 592 1343 l 2
 592 1333 589 1331 578 1331 c 2
 570 1331 l 2
 557 1331 556 1336 556 1348 c 0
 553 1448 528 1479 434 1479 c 2
 397 1479 l 2
 384 1479 383 1477 383 1464 c 2
 383 1035 l 2
 383 1017 385 1015 403 1015 c 2
 462 1015 l 2
 476 1015 477 1012 477 997 c 2
 477 990 l 2
 477 976 469 975 456 975 c 2
 238 975 l 2
 224 975 221 976 221 990 c 2
720 1475 m 2
 665 1475 l 2
 655 1475 653 1477 653 1486 c 2
 653 1503 l 2
 653 1515 658 1515 668 1515 c 2
 816 1515 l 2
 832 1515 830 1509 834 1498 c 2
 969 1089 l 2
 974 1075 974 1065 978 1065 c 0
 981 1065 982 1070 986 1082 c 2
 1125 1503 l 2
 1128 1513 1127 1515 1140 1515 c 2
 1291 1515 l 2
 1301 1515 1304 1513 1304 1502 c 2
 1304 1493 l 2
 1304 1478 1303 1475 1288 1475 c 2
 1242 1475 l 2
 1229 1475 1227 1468 1227 1456 c 2
 1245 1030 l 2
 1245 1018 1247 1015 1260 1015 c 2
 1312 1015 l 2
 1326 1015 1326 1015 1326 1001 c 2
 1326 990 l 2
 1326 978 1325 975 1313 975 c 2
 1109 975 l 2
 1098 975 1092 977 1092 989 c 2
 1092 997 l 2
 1092 1011 1092 1015 1106 1015 c 2
 1163 1015 l 2
 1176 1015 1177 1018 1177 1030 c 2
 1164 1396 l 2
 1163 1415 1165 1456 1162 1456 c 0
 1154 1456 1146 1418 1139 1397 c 2
 999 981 l 2
 996 972 994 968 982 968 c 2
 965 968 l 2
 948 968 946 975 942 987 c 2
 796 1417 l 2
 791 1432 789 1465 780 1465 c 0
 777 1465 777 1457 776 1435 c 2
 759 1038 l 2
 758 1018 762 1015 783 1015 c 2
 827 1015 l 2
 841 1015 844 1013 844 999 c 2
 844 989 l 2
 844 976 838 975 825 975 c 2
 647 975 l 2
 634 975 631 976 631 989 c 2
 631 999 l 2
 631 1012 633 1015 646 1015 c 2
 696 1015 l 2
 708 1015 713 1020 713 1030 c 2
 733 1461 l 2
 733 1471 731 1475 720 1475 c 2
EndSplineSet
EndChar

StartChar: circumflex
Encoding: 710 710 452
Width: 1000
Flags: MW
LayerCount: 2
Fore
SplineSet
241 1690 m 2
 219 1714 l 2
 204 1729 204 1729 219 1744 c 2
 407 1932 l 2
 421 1946 431 1949 460 1949 c 2
 545 1949 l 2
 571 1949 579 1944 591 1932 c 2
 783 1740 l 2
 793 1730 795 1730 784 1719 c 2
 751 1686 l 2
 736 1671 736 1673 719 1685 c 2
 524 1830 l 2
 506 1843 492 1844 474 1831 c 2
 277 1684 l 2
 262 1673 254 1677 241 1690 c 2
EndSplineSet
EndChar

StartChar: quotesinglbase
Encoding: 8218 8218 453
Width: 508
Flags: MW
LayerCount: 2
Fore
SplineSet
119 98 m 0
 119 164 177 216 253 216 c 0
 331 216 393 154 393 8 c 0
 393 -126 303 -296 138 -311 c 0
 123 -312 115 -313 115 -296 c 2
 115 -253 l 2
 115 -235 125 -232 140 -230 c 0
 231 -216 309 -124 298 -9 c 0
 296 7 287 -1 276 -8 c 0
 260 -19 246 -20 225 -20 c 0
 159 -20 119 32 119 98 c 0
EndSplineSet
EndChar

StartChar: quotedblbase
Encoding: 8222 8222 455
Width: 878
Flags: MW
LayerCount: 2
Fore
SplineSet
104 98 m 0
 104 164 162 216 238 216 c 0
 316 216 378 154 378 8 c 0
 378 -126 288 -296 123 -311 c 0
 108 -312 100 -313 100 -296 c 2
 100 -253 l 2
 100 -235 110 -232 125 -230 c 0
 216 -216 294 -124 283 -9 c 0
 281 7 272 -1 261 -8 c 0
 245 -19 231 -20 210 -20 c 0
 144 -20 104 32 104 98 c 0
504 98 m 0
 504 164 562 216 638 216 c 0
 716 216 778 154 778 8 c 0
 778 -126 688 -296 523 -311 c 0
 508 -312 500 -313 500 -296 c 2
 500 -253 l 2
 500 -235 510 -232 525 -230 c 0
 616 -216 694 -124 683 -9 c 0
 681 7 672 -1 661 -8 c 0
 645 -19 631 -20 610 -20 c 0
 544 -20 504 32 504 98 c 0
EndSplineSet
EndChar

StartChar: a.sc
Encoding: 65554 -1 456
Width: 1304
Flags: MW
AnchorPoint: "Anchor-0" 589 1039 basechar 0
AnchorPoint: "Anchor-1" 552 0 basechar 0
AnchorPoint: "Anchor-2" 967 0 basechar 0
LayerCount: 2
Fore
SplineSet
0 48 m 2
 0 87 l 2
 0 106 5 119 27 119 c 2
 115 119 l 2
 139 119 143 122 150 137 c 2
 598 1050 l 2
 602 1059 611 1059 623 1059 c 2
 691 1059 l 2
 706 1059 715 1058 720 1047 c 2
 1136 140 l 2
 1143 126 1154 119 1168 119 c 2
 1279 119 l 2
 1306 119 1305 108 1305 83 c 2
 1305 41 l 2
 1305 13 1306 0 1275 0 c 2
 866 0 l 2
 839 0 827 6 827 38 c 2
 827 82 l 2
 827 109 836 119 865 119 c 2
 936 119 l 2
 947 119 955 121 952 129 c 2
 896 263 l 1
 885 285 879 289 846 289 c 2
 404 289 l 2
 373 289 366 288 359 271 c 2
 299 135 l 2
 294 124 298 119 313 119 c 2
 377 119 l 2
 402 119 412 112 412 84 c 2
 412 38 l 2
 412 3 411 0 377 0 c 2
 42 0 l 2
 8 0 0 9 0 48 c 2
426 426 m 2
 420 415 433 418 444 418 c 2
 795 418 l 2
 824 418 833 417 822 439 c 2
 638 845 l 2
 636 850 634 853 631 853 c 256
 628 853 626 852 625 850 c 2
 426 426 l 2
EndSplineSet
EndChar

StartChar: b.sc
Encoding: 65564 -1 466
Width: 1152
Flags: MW
AnchorPoint: "Anchor-0" 516 1040 basechar 0
AnchorPoint: "Anchor-1" 539 0 basechar 0
LayerCount: 2
Fore
SplineSet
683 0 m 2
 81 0 l 2
 57 0 52 3 52 30 c 2
 52 72 l 2
 52 97 56 104 78 104 c 2
 177 104 l 2
 195 104 205 106 205 124 c 2
 205 911 l 2
 205 935 199 936 174 936 c 2
 81 936 l 2
 55 936 52 941 52 970 c 2
 52 1010 l 2
 52 1033 55 1040 75 1040 c 2
 646 1040 l 2
 765 1040 860 1017 932 972 c 0
 1004 927 1040 860 1040 770 c 0
 1040 653 971 579 833 550 c 0
 820 547 814 544 814 540 c 0
 814 536 820 533 831 531 c 0
 916 514 982 487 1028 448 c 0
 1074 409 1097 357 1097 291 c 0
 1097 187 1060 113 986 68 c 0
 912 23 811 0 683 0 c 2
429 588 m 2
 642 588 l 2
 695 588 743 602 786 629 c 0
 829 656 851 701 851 762 c 256
 851 823 829 868 786 895 c 0
 743 922 695 936 642 936 c 2
 419 936 l 2
 397 936 395 929 395 908 c 2
 395 613 l 2
 395 588 402 588 429 588 c 2
662 104 m 2
 723 104 777 120 822 154 c 0
 867 188 889 236 889 297 c 256
 889 358 867 405 822 436 c 0
 777 467 723 483 662 483 c 2
 430 483 l 2
 400 483 395 478 395 449 c 2
 395 128 l 2
 395 105 404 104 428 104 c 2
 662 104 l 2
EndSplineSet
EndChar

StartChar: c.sc
Encoding: 65565 -1 467
Width: 1215
Flags: MW
AnchorPoint: "Anchor-0" 659 1050 basechar 0
AnchorPoint: "Anchor-1" 660 -11 basechar 0
LayerCount: 2
Fore
SplineSet
76 520 m 0
 76 694 150 825 245 914 c 0
 338 1001 471 1069 640 1069 c 0
 693 1069 740 1061 782 1044 c 0
 824 1027 865 1008 904 985 c 0
 927 972 947 968 964 974 c 0
 993 985 1016 1015 1028 1039 c 2
 1030 1044 l 2
 1034 1053 1034 1060 1050 1060 c 2
 1101 1060 l 2
 1114 1060 1120 1054 1120 1041 c 2
 1120 701 l 2
 1120 684 1112 681 1093 681 c 2
 1035 681 l 2
 1011 681 1017 684 1012 700 c 0
 1000 763 960 827 914 868 c 0
 856 919 773 958 669 958 c 0
 544 958 451 905 391 831 c 0
 331 757 294 645 294 520 c 256
 294 396 327 284 384 210 c 0
 442 135 531 83 657 83 c 0
 771 83 857 123 919 180 c 0
 975 232 1023 316 1033 402 c 0
 1034 409 1040 413 1052 413 c 2
 1118 413 l 2
 1132 413 1139 410 1138 403 c 0
 1129 277 1072 168 995 98 c 0
 910 20 787 -30 630 -30 c 0
 523 -30 428 -6 344 41 c 0
 260 88 194 153 147 236 c 0
 100 319 76 414 76 520 c 0
EndSplineSet
EndChar

StartChar: d.sc
Encoding: 65571 -1 473
Width: 1238
Flags: MW
AnchorPoint: "Anchor-0" 523 1040 basechar 0
AnchorPoint: "Anchor-1" 522 0 basechar 0
LayerCount: 2
Fore
SplineSet
52 32 m 2
 52 68 l 2
 52 95 52 104 76 104 c 2
 183 104 l 2
 204 104 205 109 205 130 c 2
 205 907 l 2
 205 930 205 936 181 936 c 2
 92 936 l 2
 61 936 52 937 52 970 c 2
 52 1013 l 2
 52 1036 68 1040 90 1040 c 2
 611 1040 l 2
 788 1040 925 982 1017 891 c 0
 1102 807 1162 675 1162 520 c 0
 1162 366 1098 234 1012 150 c 0
 920 61 782 0 611 0 c 2
 76 0 l 2
 53 0 52 8 52 32 c 2
413 104 m 2
 614 104 l 2
 740 104 820 144 874 216 c 0
 928 288 954 398 954 520 c 0
 954 637 928 741 878 812 c 0
 824 888 741 936 614 936 c 2
 415 936 l 2
 389 936 385 933 385 907 c 2
 385 126 l 2
 385 104 391 104 413 104 c 2
EndSplineSet
EndChar

StartChar: e.sc
Encoding: 65573 -1 475
Width: 1154
Flags: MW
AnchorPoint: "Anchor-0" 599 1040 basechar 0
AnchorPoint: "Anchor-1" 580 0 basechar 0
AnchorPoint: "Anchor-2" 909 0 basechar 0
LayerCount: 2
Fore
SplineSet
171 936 m 2
 77 936 l 2
 52 936 52 950 52 976 c 2
 52 1004 l 2
 52 1030 52 1040 76 1040 c 2
 1003 1040 l 2
 1042 1040 1045 1036 1045 995 c 2
 1045 735 l 2
 1045 711 1047 710 1018 710 c 2
 980 710 l 2
 955 710 952 713 950 733 c 0
 946 889 895 936 733 936 c 2
 417 936 l 2
 392 936 385 933 385 908 c 2
 385 603 l 2
 385 584 389 575 409 575 c 2
 503 575 l 2
 602 575 661 616 669 700 c 0
 670 713 679 720 694 720 c 2
 726 720 l 2
 745 720 755 714 755 701 c 2
 755 372 l 2
 755 350 749 347 725 347 c 2
 694 347 l 2
 678 347 670 351 668 368 c 0
 659 452 603 498 503 498 c 2
 411 498 l 2
 387 498 385 493 385 470 c 2
 385 132 l 2
 385 107 391 104 417 104 c 2
 721 104 l 2
 906 104 965 156 969 336 c 0
 969 349 977 356 992 356 c 2
 1028 356 l 2
 1052 356 1064 350 1064 337 c 2
 1064 32 l 2
 1064 8 1062 0 1039 0 c 2
 80 0 l 2
 56 0 52 7 52 34 c 2
 52 78 l 2
 52 102 55 104 77 104 c 2
 167 104 l 2
 201 104 205 107 205 140 c 2
 205 905 l 2
 205 933 200 936 171 936 c 2
EndSplineSet
EndChar

StartChar: f.sc
Encoding: 65583 -1 485
Width: 1098
Flags: MW
AnchorPoint: "Anchor-0" 578 1040 basechar 0
AnchorPoint: "Anchor-1" 301 0 basechar 0
LayerCount: 2
Fore
SplineSet
185 936 m 2
 69 936 l 2
 54 936 52 940 52 957 c 2
 52 1022 l 2
 52 1034 55 1040 62 1040 c 2
 1010 1040 l 2
 1023 1040 1029 1031 1029 1013 c 2
 1029 724 l 2
 1029 715 1020 711 1002 711 c 2
 953 711 l 2
 937 711 934 712 934 726 c 0
 933 890 883 936 717 936 c 2
 410 936 l 2
 393 936 385 928 385 913 c 2
 385 590 l 2
 385 568 390 565 412 565 c 2
 516 565 l 2
 615 565 673 581 683 682 c 0
 684 691 691 696 707 696 c 2
 739 696 l 2
 758 696 768 691 768 681 c 2
 768 349 l 2
 768 336 765 332 750 332 c 2
 701 332 l 2
 685 332 685 333 683 346 c 0
 678 434 618 469 517 469 c 2
 406 469 l 2
 387 469 385 465 385 446 c 2
 385 129 l 2
 385 107 388 104 411 104 c 2
 532 104 l 2
 547 104 551 102 551 85 c 2
 551 28 l 2
 551 5 548 0 528 0 c 2
 69 0 l 2
 54 0 52 2 52 19 c 2
 52 87 l 2
 52 102 57 104 71 104 c 2
 186 104 l 2
 199 104 205 111 205 124 c 2
 205 916 l 2
 205 935 204 936 185 936 c 2
EndSplineSet
EndChar

StartChar: g.sc
Encoding: 65584 -1 486
Width: 1319
Flags: MW
AnchorPoint: "Anchor-0" 659 1040 basechar 0
AnchorPoint: "Anchor-1" 639 5 basechar 0
LayerCount: 2
Fore
SplineSet
812 543 m 2
 1264 543 l 2
 1296 543 1298 536 1298 499 c 2
 1298 452 l 2
 1298 427 1297 420 1273 420 c 2
 1182 420 l 2
 1160 420 1159 415 1159 394 c 2
 1159 332 l 2
 1159 315 1159 316 1159 300 c 0
 1159 290 1158 279 1155 270 c 0
 1144 229 1119 186 1079 142 c 0
 1039 98 982 61 910 31 c 0
 838 1 748 -14 641 -14 c 256
 534 -14 437 9 352 55 c 0
 267 101 199 165 150 246 c 0
 101 327 76 419 76 522 c 0
 76 694 152 821 248 907 c 0
 344 992 482 1059 652 1059 c 0
 696 1059 737 1055 774 1046 c 0
 839 1030 875 1007 932 979 c 0
 956 967 980 959 1000 955 c 0
 1020 951 1032 957 1036 973 c 2
 1045 1011 l 2
 1050 1030 1059 1040 1073 1040 c 2
 1115 1040 l 2
 1132 1040 1140 1032 1140 1015 c 2
 1140 723 l 2
 1140 706 1137 696 1117 696 c 2
 1071 696 l 2
 1041 696 1037 698 1032 719 c 0
 1022 776 991 836 951 872 c 0
 889 927 807 953 682 953 c 0
 559 953 463 899 401 827 c 0
 339 755 294 645 294 522 c 256
 294 400 328 289 384 216 c 0
 440 142 526 90 648 90 c 0
 735 90 802 107 852 142 c 0
 902 177 936 213 953 251 c 0
 958 261 960 273 960 287 c 2
 960 400 l 2
 960 419 951 420 932 420 c 2
 815 420 l 2
 789 420 787 426 787 454 c 2
 787 507 l 2
 787 534 788 543 812 543 c 2
EndSplineSet
EndChar

StartChar: h.sc
Encoding: 65588 -1 490
Width: 1324
Flags: MW
AnchorPoint: "Anchor-0" 656 1040 basechar 0
AnchorPoint: "Anchor-1" 656 0 basechar 0
LayerCount: 2
Fore
SplineSet
385 909 m 2
 385 624 l 2
 385 590 389 588 425 588 c 2
 903 588 l 2
 939 588 940 593 940 628 c 2
 940 904 l 2
 940 932 939 936 910 936 c 2
 797 936 l 2
 781 936 773 948 773 973 c 2
 773 1000 l 2
 773 1031 774 1040 801 1040 c 2
 1245 1040 l 2
 1271 1040 1273 1033 1273 1004 c 2
 1273 968 l 2
 1273 944 1269 936 1246 936 c 2
 1158 936 l 2
 1128 936 1120 936 1120 906 c 2
 1120 126 l 2
 1120 111 1129 104 1146 104 c 2
 1246 104 l 2
 1268 104 1273 98 1273 74 c 2
 1273 42 l 2
 1273 6 1269 0 1238 0 c 2
 801 0 l 2
 773 0 773 11 773 42 c 2
 773 70 l 2
 773 93 773 104 794 104 c 2
 911 104 l 2
 937 104 940 111 940 135 c 2
 940 453 l 2
 940 480 934 483 906 483 c 2
 418 483 l 2
 391 483 385 482 385 457 c 2
 385 129 l 2
 385 109 390 104 411 104 c 2
 529 104 l 2
 550 104 551 96 551 72 c 2
 551 47 l 2
 551 9 551 0 517 0 c 2
 80 0 l 2
 54 0 52 9 52 38 c 2
 52 64 l 2
 52 95 54 104 81 104 c 2
 176 104 l 2
 198 104 205 104 205 126 c 2
 205 911 l 2
 205 933 199 936 178 936 c 2
 76 936 l 2
 49 936 52 950 52 979 c 2
 52 1004 l 2
 52 1031 56 1040 80 1040 c 2
 524 1040 l 2
 546 1040 551 1034 551 1010 c 2
 551 972 l 2
 551 945 551 936 526 936 c 2
 412 936 l 2
 388 936 385 932 385 909 c 2
EndSplineSet
EndChar

StartChar: hyphen.sc
Encoding: 65590 -1 492
Width: 920
Flags: MW
LayerCount: 2
Fore
SplineSet
148 600 m 2
 774 600 l 2
 785 600 793 598 796 595 c 128
 799 592 800 584 800 572 c 2
 800 523 l 2
 800 511 799 503 796 498 c 128
 793 493 785 490 772 490 c 2
 146 490 l 2
 133 490 126 492 124 496 c 128
 122 500 120 507 120 520 c 2
 120 572 l 2
 120 583 122 590 126 594 c 128
 130 598 137 600 148 600 c 2
EndSplineSet
EndChar

StartChar: i.sc
Encoding: 65591 -1 493
Width: 623
Flags: MW
AnchorPoint: "Anchor-0" 306 1040 basechar 0
AnchorPoint: "Anchor-1" 303 0 basechar 0
AnchorPoint: "Anchor-2" 303 0 basechar 0
LayerCount: 2
Fore
SplineSet
395 913 m 2
 395 133 l 2
 395 114 404 104 422 104 c 2
 546 104 l 2
 556 104 561 94 561 74 c 2
 561 30 l 2
 561 10 552 0 534 0 c 2
 90 0 l 2
 71 0 62 10 62 30 c 2
 62 78 l 2
 62 100 71 104 94 104 c 2
 168 104 l 2
 194 104 215 108 215 136 c 2
 215 914 l 2
 215 933 215 936 195 936 c 2
 86 936 l 2
 70 936 62 945 62 964 c 2
 62 1015 l 2
 62 1037 64 1040 83 1040 c 2
 536 1040 l 2
 560 1040 561 1035 561 1008 c 2
 561 976 l 2
 561 949 555 936 532 936 c 2
 422 936 l 2
 401 936 395 935 395 913 c 2
EndSplineSet
EndChar

StartChar: j.sc
Encoding: 65600 -1 502
Width: 915
Flags: MW
AnchorPoint: "Anchor-0" 570 1040 basechar 0
AnchorPoint: "Anchor-1" 362 5 basechar 0
LayerCount: 2
Fore
SplineSet
14 208 m 0
 14 253 28 287 56 310 c 0
 84 333 116 344 151 344 c 0
 182 344 208 337 230 323 c 0
 252 309 263 290 263 267 c 0
 263 239 258 220 248 210 c 0
 238 200 228 192 218 186 c 0
 208 180 202 168 202 149 c 0
 202 138 210 126 227 112 c 0
 244 98 280 90 337 90 c 0
 400 90 450 110 485 149 c 0
 520 188 538 253 538 344 c 2
 538 898 l 2
 538 928 536 936 505 936 c 2
 375 936 l 2
 342 936 343 946 343 983 c 2
 343 1002 l 2
 343 1036 348 1040 378 1040 c 2
 856 1040 l 2
 876 1040 884 1037 884 1014 c 2
 884 968 l 2
 884 945 885 936 864 936 c 2
 749 936 l 2
 719 936 718 931 718 901 c 2
 718 363 l 2
 718 255 686 166 622 94 c 0
 558 22 460 -14 330 -14 c 0
 256 -14 196 -3 150 20 c 0
 104 43 69 72 47 106 c 0
 25 140 14 175 14 208 c 0
EndSplineSet
EndChar

StartChar: k.sc
Encoding: 65602 -1 504
Width: 1288
Flags: MW
AnchorPoint: "Anchor-0" 649 1040 basechar 0
AnchorPoint: "Anchor-1" 666 0 basechar 0
LayerCount: 2
Fore
SplineSet
52 44 m 2
 52 82 l 2
 52 107 62 119 82 119 c 2
 194 119 l 2
 216 119 215 120 215 141 c 2
 215 908 l 2
 215 917 210 921 201 921 c 2
 73 921 l 2
 53 921 52 935 52 955 c 2
 52 1005 l 2
 52 1028 61 1040 79 1040 c 2
 539 1040 l 2
 558 1040 568 1028 568 1005 c 2
 568 969 l 2
 568 935 561 921 528 921 c 2
 416 921 l 2
 394 921 390 917 390 893 c 2
 390 469 l 2
 390 434 418 469 444 493 c 2
 886 900 l 2
 900 913 903 921 885 921 c 2
 802 921 l 2
 770 921 766 937 766 969 c 2
 766 999 l 2
 766 1026 779 1040 805 1040 c 2
 1167 1040 l 2
 1195 1040 1199 1023 1199 995 c 2
 1199 971 l 2
 1199 938 1196 921 1164 921 c 2
 1108 921 l 2
 1076 921 1070 918 1054 902 c 2
 744 597 l 2
 736 589 735 581 742 572 c 2
 1114 139 l 2
 1128 122 1131 119 1161 119 c 2
 1254 119 l 2
 1283 119 1289 104 1289 74 c 2
 1289 40 l 2
 1289 7 1288 0 1258 0 c 2
 848 0 l 2
 827 0 816 13 816 40 c 2
 816 70 l 2
 816 101 820 119 851 119 c 2
 922 119 l 2
 940 119 947 120 937 133 c 2
 645 482 l 2
 626 505 633 503 610 484 c 2
 404 313 l 2
 388 300 390 299 390 270 c 2
 390 136 l 2
 390 125 397 119 412 119 c 2
 535 119 l 2
 563 119 568 104 568 76 c 2
 568 46 l 2
 568 16 562 0 533 0 c 2
 84 0 l 2
 56 0 52 16 52 44 c 2
EndSplineSet
EndChar

StartChar: l.sc
Encoding: 65603 -1 505
Width: 1083
Flags: MW
AnchorPoint: "Anchor-0" 289 1040 basechar 0
AnchorPoint: "Anchor-1" 524 0 basechar 0
AnchorPoint: "Anchor-3" 637 645 basechar 0
LayerCount: 2
Fore
SplineSet
176 936 m 2
 74 936 l 2
 54 936 52 946 52 968 c 2
 52 1013 l 2
 52 1035 55 1040 75 1040 c 2
 509 1040 l 2
 535 1040 538 1036 538 1008 c 2
 538 968 l 2
 538 944 534 936 513 936 c 2
 413 936 l 2
 392 936 385 933 385 911 c 2
 385 131 l 2
 385 111 394 110 414 110 c 2
 697 110 l 2
 877 110 932 174 933 346 c 0
 933 360 937 364 953 364 c 2
 993 364 l 2
 1016 364 1028 367 1028 346 c 2
 1028 43 l 2
 1028 11 1028 0 998 0 c 2
 82 0 l 2
 57 0 52 6 52 34 c 2
 52 80 l 2
 52 100 51 110 69 110 c 2
 172 110 l 2
 198 110 205 110 205 136 c 2
 205 911 l 2
 205 933 199 936 176 936 c 2
EndSplineSet
EndChar

StartChar: lcaron.sc
Encoding: 65605 -1 507
Width: 1083
Flags: MW
LayerCount: 2
Fore
SplineSet
743 1002 m 0
 743 1068 801 1120 877 1120 c 0
 955 1120 1017 1058 1017 912 c 0
 1017 778 927 608 762 593 c 0
 747 592 739 591 739 608 c 2
 739 651 l 2
 739 669 749 672 764 674 c 0
 855 688 933 780 922 895 c 0
 920 911 911 903 900 896 c 0
 884 885 870 884 849 884 c 0
 783 884 743 936 743 1002 c 0
EndSplineSet
Refer: 505 -1 N 1 0 0 1 0 0 3
EndChar

StartChar: m.sc
Encoding: 65606 -1 508
Width: 1618
Flags: MW
AnchorPoint: "Anchor-0" 832 1040 basechar 0
AnchorPoint: "Anchor-1" 818 4 basechar 0
LayerCount: 2
Fore
SplineSet
157 936 m 2
 46 936 l 2
 25 936 22 941 22 964 c 2
 22 1008 l 2
 22 1035 27 1040 51 1040 c 2
 425 1040 l 2
 458 1040 453 1032 462 1009 c 2
 795 259 l 2
 800 246 804 236 806 227 c 128
 808 218 810 214 814 214 c 0
 817 214 823 225 830 246 c 2
 1159 1008 l 2
 1170 1033 1163 1040 1196 1040 c 2
 1564 1040 l 2
 1587 1040 1589 1032 1589 1006 c 2
 1589 983 l 2
 1589 946 1590 936 1557 936 c 2
 1467 936 l 2
 1437 936 1427 928 1429 901 c 2
 1433 131 l 2
 1434 109 1437 104 1462 104 c 2
 1563 104 l 2
 1593 104 1590 101 1590 68 c 2
 1590 40 l 2
 1590 12 1590 0 1565 0 c 2
 1110 0 l 2
 1084 0 1074 8 1074 36 c 2
 1074 59 l 2
 1074 93 1073 104 1104 104 c 2
 1218 104 l 2
 1246 104 1254 107 1254 132 c 2
 1262 798 l 2
 1262 809 1265 824 1264 841 c 128
 1263 852 1265 908 1251 908 c 0
 1237 908 1225 853 1213 823 c 128
 1200 790 1186 739 1159 676 c 2
 876 15 l 2
 869 -4 866 -14 840 -14 c 2
 806 -14 l 2
 770 -14 770 2 758 27 c 2
 406 792 l 2
 398 812 389 835 380 862 c 128
 371 889 364 902 360 902 c 0
 357 902 354 889 353 863 c 2
 360 146 l 2
 360 106 374 104 418 104 c 2
 517 104 l 2
 549 104 551 97 551 62 c 2
 551 38 l 2
 551 7 542 0 513 0 c 2
 61 0 l 2
 33 0 31 7 31 38 c 2
 31 64 l 2
 31 95 32 104 60 104 c 2
 155 104 l 2
 176 104 187 114 188 133 c 2
 192 910 l 2
 193 927 181 936 157 936 c 2
EndSplineSet
EndChar

StartChar: n.sc
Encoding: 65607 -1 509
Width: 1280
Flags: MW
AnchorPoint: "Anchor-0" 655 1040 basechar 0
AnchorPoint: "Anchor-1" 606 4 basechar 0
LayerCount: 2
Fore
SplineSet
161 937 m 2
 83 937 l 2
 62 937 58 972 58 992 c 2
 58 1013 l 2
 58 1038 60 1044 85 1044 c 2
 327 1044 l 2
 383 1044 383 1036 408 1006 c 2
 932 346 l 2
 957 316 968 334 968 380 c 2
 968 905 l 1
 969 936 962 938 931 938 c 2
 891 938 l 2
 868 938 840 936 840 960 c 2
 840 1004 l 2
 840 1033 845 1044 875 1044 c 2
 1212 1044 l 2
 1230 1044 1248 1044 1248 1024 c 2
 1248 969 l 2
 1248 944 1247 938 1222 938 c 2
 1130 938 l 2
 1099 938 1095 933 1095 902 c 2
 1095 12 l 2
 1095 -6 1094 -20 1075 -20 c 2
 1050 -20 l 2
 1027 -20 1020 -15 1010 -2 c 2
 365 802 l 2
 337 835 327 816 327 761 c 2
 327 134 l 2
 327 107 331 104 359 104 c 2
 450 104 l 2
 472 104 475 97 475 75 c 2
 475 21 l 2
 475 -3 468 -6 444 -6 c 2
 89 -6 l 2
 64 -6 58 -5 58 20 c 2
 58 78 l 2
 58 102 69 104 92 104 c 2
 162 104 l 2
 195 104 202 107 202 140 c 2
 202 903 l 2
 202 936 195 937 161 937 c 2
EndSplineSet
EndChar

StartChar: o.sc
Encoding: 65611 -1 513
Width: 1267
Flags: MW
AnchorPoint: "Anchor-0" 631 1048 basechar 0
AnchorPoint: "Anchor-1" 631 -9 basechar 0
LayerCount: 2
Fore
SplineSet
76 520 m 0
 76 848 302 1067 634 1067 c 0
 967 1067 1191 848 1191 520 c 0
 1191 198 958 -28 634 -28 c 0
 302 -28 76 193 76 520 c 0
294 520 m 0
 294 275 390 68 634 68 c 0
 888 68 973 268 973 520 c 0
 973 766 880 971 634 971 c 0
 388 971 294 766 294 520 c 0
EndSplineSet
EndChar

StartChar: p.sc
Encoding: 65620 -1 522
Width: 1060
Flags: MW
AnchorPoint: "Anchor-0" 517 1040 basechar 0
AnchorPoint: "Anchor-1" 297 0 basechar 0
LayerCount: 2
Fore
SplineSet
183 936 m 2
 69 936 l 2
 50 936 52 947 52 967 c 2
 52 1006 l 2
 52 1032 55 1040 78 1040 c 2
 595 1040 l 2
 839 1040 1009 960 1009 742 c 256
 1009 528 849 444 613 444 c 2
 434 444 l 2
 395 444 385 446 385 409 c 2
 385 143 l 2
 385 108 389 104 425 104 c 2
 515 104 l 2
 539 104 538 92 538 66 c 2
 538 45 l 2
 538 11 539 0 508 0 c 2
 90 0 l 2
 56 0 52 5 52 43 c 2
 52 78 l 2
 52 99 55 104 74 104 c 2
 173 104 l 2
 201 104 205 108 205 135 c 2
 205 919 l 2
 205 930 198 936 183 936 c 2
420 549 m 2
 593 549 l 2
 717 549 801 623 801 742 c 256
 801 861 717 936 593 936 c 2
 405 936 l 2
 388 936 385 929 385 912 c 2
 385 576 l 2
 385 549 392 549 420 549 c 2
EndSplineSet
EndChar

StartChar: q.sc
Encoding: 65621 -1 523
Width: 1282
Flags: MW
AnchorPoint: "Anchor-0" 631 1048 basechar 0
LayerCount: 2
Fore
SplineSet
86 520 m 0
 86 848 302 1067 634 1067 c 0
 962 1067 1181 860 1181 538 c 0
 1181 323 1063 173 913 91 c 0
 883 76 875 76 898 49 c 0
 923 15 957 -29 1005 -29 c 0
 1094 -29 1146 27 1152 103 c 0
 1153 112 1161 117 1178 117 c 2
 1212 117 l 2
 1236 117 1247 118 1247 98 c 0
 1247 -55 1170 -197 1022 -197 c 0
 909 -197 863 -105 824 -24 c 0
 813 7 805 -1 772 -10 c 0
 730 -22 686 -28 639 -28 c 0
 306 -28 86 192 86 520 c 0
876 157 m 0
 940 240 973 367 973 512 c 0
 973 759 881 971 634 971 c 0
 386 971 294 755 294 506 c 0
 294 392 315 294 356 211 c 0
 364 196 375 188 377 210 c 0
 383 318 439 394 560 394 c 0
 709 394 777 269 830 158 c 0
 842 133 857 133 876 157 c 0
563 267 m 0
 491 267 429 242 432 180 c 0
 433 156 441 131 464 114 c 0
 509 81 573 68 634 68 c 0
 668 68 699 71 727 77 c 0
 764 83 757 95 752 110 c 24
 726 189 665 267 563 267 c 0
EndSplineSet
EndChar

StartChar: r.sc
Encoding: 65622 -1 524
Width: 1197
Flags: MW
AnchorPoint: "Anchor-0" 593 1040 basechar 0
AnchorPoint: "Anchor-1" 614 0 basechar 0
LayerCount: 2
Fore
SplineSet
1228 146 m 0
 1201 50 1135 -19 1011 -19 c 0
 846 -19 807 81 788 222 c 0
 770 353 747 462 594 462 c 2
 430 462 l 2
 399 462 395 459 395 430 c 2
 395 125 l 2
 395 105 403 104 423 104 c 2
 516 104 l 2
 537 104 537 93 537 70 c 2
 537 27 l 2
 537 5 536 0 515 0 c 2
 74 0 l 2
 54 0 52 8 52 30 c 2
 52 71 l 2
 52 96 55 104 77 104 c 2
 172 104 l 2
 200 104 205 105 205 132 c 2
 205 905 l 2
 205 934 200 936 171 936 c 2
 77 936 l 2
 50 936 52 950 52 979 c 2
 52 1008 l 2
 52 1030 51 1040 71 1040 c 2
 652 1040 l 2
 868 1040 1045 973 1045 771 c 0
 1045 630 952 569 817 539 c 0
 791 533 797 516 820 508 c 0
 902 477 942 421 948 327 c 0
 954 228 928 104 1039 104 c 0
 1074 104 1103 125 1128 167 c 0
 1134 177 1138 188 1157 181 c 2
 1204 168 l 2
 1223 163 1231 155 1228 146 c 0
428 577 m 2
 597 577 l 2
 735 577 856 624 856 756 c 256
 856 873 760 936 648 936 c 2
 428 936 l 2
 396 936 395 938 395 907 c 2
 395 607 l 2
 395 580 400 577 428 577 c 2
EndSplineSet
EndChar

StartChar: s.sc
Encoding: 65625 -1 527
Width: 1079
Flags: MW
AnchorPoint: "Anchor-0" 530 1040 basechar 0
AnchorPoint: "Anchor-1" 550 8 basechar 0
LayerCount: 2
Fore
SplineSet
832 707 m 0
 821 846 711 942 561 942 c 0
 440 942 338 904 338 787 c 0
 338 651 511 629 628 602 c 0
 813 561 1014 513 1014 288 c 0
 1014 68 817 -21 579 -21 c 0
 467 -21 370 18 306 70 c 0
 279 93 250 109 235 65 c 2
 224 32 l 2
 213 -1 208 -2 166 -2 c 2
 136 -2 l 2
 103 -2 90 3 90 40 c 2
 90 356 l 2
 90 385 111 384 136 384 c 2
 176 384 l 2
 203 384 213 378 217 353 c 0
 232 200 370 96 545 96 c 256
 692 96 823 150 823 284 c 0
 823 437 645 462 515 490 c 0
 344 529 147 567 147 777 c 0
 147 979 322 1059 525 1059 c 0
 631 1059 717 1023 783 952 c 0
 798 937 806 953 813 975 c 2
 829 1022 l 2
 834 1039 841 1040 860 1040 c 2
 921 1040 l 2
 950 1040 957 1031 957 1002 c 2
 957 701 l 2
 957 675 940 673 915 673 c 2
 873 673 l 2
 835 673 835 677 832 707 c 0
EndSplineSet
EndChar

